<svg xmlns="http://www.w3.org/2000/svg" viewBox="0 0 500 500"><path d="M417.1 6.5H82.9C40.6 6.5 6.5 40.6 6.5 82.9v334.2c0 42.2 34.1 76.4 76.4 76.4h334.2c41.9 0 75.8-33.8 76.4-75.7-50-27.9-120.2-65.6-186.5-96.1-34.9 47.8-91.5 88.1-161.6 88.1-76.7 0-101.9-49.2-105.5-83-4.3-42.4 16.2-88.6 108.2-88.6 38.5 0 86.3 11.1 138.2 27.1 18-32.7 28.8-65.6 28.8-65.6H121.3v-18.2h100.1v-34h-119v-20.7h119V72.1h55.4v54.8h119v20.7h-119v34h96.5s-16.5 50.7-41.7 98.8l161.6 57.3V82.9c.1-42.1-34-76.4-76.1-76.4zM57.9 322.8c1.1 21.9 11.1 58.4 76 58.4 56.6 0 100.6-43.1 128.1-79.2-48.5-20.3-91.8-34.1-119-34.1-73.2-.1-86.2 35.8-85.1 54.9z" fill="#0099e5"/></svg>