<svg xmlns="http://www.w3.org/2000/svg" viewBox="0 0 240 240">
   
  <path
         d="M 2160,4860 H 3960 V 3060 H 2160 v 1800"
         style="fill:#016fd0;fill-opacity:1;fill-rule:evenodd;stroke:none"
         id="path12" /><path
         d="m 2812.05,3344.82 v 644.97 L 3960,3988.76 V 3810.6 L 3827.32,3668.81 3960,3525.72 v -181.94 h -211.84 l -112.58,124.23 -111.78,-124.71 -711.75,1.52"
         style="fill:#ffffff;fill-opacity:1;fill-rule:evenodd;stroke:none"
         id="path14" /><path
         d="m 2888.73,3415.53 v 503.28 h 426.74 V 3802.88 H 3026.9 v -78.7 h 281.69 V 3610.16 H 3026.9 v -77.3 h 288.57 v -117.33 h -426.74"
         style="fill:#016fd0;fill-opacity:1;fill-rule:evenodd;stroke:none"
         id="path16" /><path
         d="m 3313.34,3415.53 236.13,251.93 -236.13,251.34 h 182.76 l 144.29,-159.51 144.7,159.51 H 3960 v -3.96 L 3728.9,3667.46 3960,3422.67 v -7.14 h -176.67 l -146.85,161.11 -145.34,-161.11 h -177.8"
         style="fill:#016fd0;fill-opacity:1;fill-rule:evenodd;stroke:none"
         id="path18" /><path
         d="m 2865.6,4562.26 h 276.71 l 97.19,-220.69 v 220.69 h 341.62 l 58.91,-165.35 59.11,165.35 H 3960 V 3917.29 H 2581.4 l 284.2,644.97"
         style="fill:#ffffff;fill-opacity:1;fill-rule:evenodd;stroke:none"
         id="path20" /><path
         d="m 2917.99,4492.19 -223.31,-502.86 h 153.16 l 42.13,100.7 h 228.28 l 42.1,-100.7 h 156.97 l -222.38,502.86 z m 19.19,-289.31 66.97,160.08 66.92,-160.08 z"
         style="fill:#016fd0;fill-opacity:1;fill-rule:evenodd;stroke:none"
         id="path22" /><path
         d="m 3315.23,3989.42 v 502.85 l 215.29,-0.74 110.78,-309.14 111.5,309.88 H 3960 v -502.86 l -133.33,-1.17 v 345.42 l -125.86,-344.25 h -121.7 l -128.47,345.42 v -345.42 l -135.41,0.01"
         style="fill:#016fd0;fill-opacity:1;fill-rule:evenodd;stroke:none"
         id="path24" /></svg>
