<?xml version="1.0" encoding="utf-8"?>
<!-- Generator: Adobe Illustrator 24.2.0, SVG Export Plug-In . SVG Version: 6.00 Build 0)  -->
<svg version="1.1" id="Layer_1" xmlns="http://www.w3.org/2000/svg" xmlns:xlink="http://www.w3.org/1999/xlink" x="0px" y="0px"
	 viewBox="0 0 500 500" style="enable-background:new 0 0 500 500;" xml:space="preserve">
<g>
	<g>
		<g>
			<path class="st0" d="M249.8,493.5h0.3c0,0,0,0,0,0C385,493.3,493.5,383.9,493.5,250C493.5,115.6,384.3,6.5,250,6.5
				C109,7.9,6.5,120.1,6.5,250C6.5,384.3,115.6,493.5,249.8,493.5z M62.8,347.4h67.8c9.1,40.2,23.4,73.9,41.3,98.7
				C124.9,427.3,86.1,392,62.8,347.4L62.8,347.4z M450.8,185.1C457.6,206,461,227.8,461,250c0,22.2-3.4,44-10.2,64.9h-75.5
				c3-21,4.6-42.8,4.6-64.9s-1.5-43.9-4.6-64.9H450.8z M266.2,185.1h76.2c3.3,20.9,4.9,42.7,4.9,64.9s-1.7,44-4.9,64.9h-76.2
				 M233.8,457.8c-28.9-11.5-55.4-53.1-69.8-110.4h69.8V457.8z M266.2,457.7V347.4l69.7,0C321.6,404.5,295.1,446,266.2,457.7z
				 M266.2,152.6V42.3c28.9,11.7,55.4,53.3,69.7,110.3H266.2z M233.8,42.1v110.5H164C173.8,113.1,196.9,56.5,233.8,42.1z
				 M233.8,185.1v129.9h-76.3c-3.2-20.9-4.9-42.7-4.9-64.9s1.7-44,4.9-64.9H233.8z M124.7,314.9H49.2C42.6,294.5,39,272.6,39,250
				c0-22.6,3.6-44.5,10.3-64.9h75.4c-3,21-4.5,42.8-4.5,64.9S121.7,293.9,124.7,314.9z M328,445.8c17.8-24.8,32.2-58.4,41.3-98.4
				l67.9,0C413.6,392.4,374.4,427.2,328,445.8L328,445.8z M437.2,152.6h-67.9c-9.1-40-23.5-73.6-41.3-98.4
				C374.4,72.8,413.6,107.6,437.2,152.6z M172,53.9c-17.9,24.9-32.3,58.5-41.4,98.7H62.9C86.2,108,125,72.7,172,53.9L172,53.9z"  fill="#1E6AFF"/>
		</g>
	</g>
</g>
</svg>
