<svg xmlns="http://www.w3.org/2000/svg" viewBox="0 0 500 500"><path d="M95.5 175.8c-5.7 6.8-14.8 12.1-24 11.3-1.1-9.1 3.3-18.8 8.6-24.8 5.7-6.9 15.7-11.9 23.8-12.3.9 9.5-2.8 18.9-8.4 25.8m8.3 13.1c-13.2-.8-24.5 7.5-30.8 7.5-6.4 0-16-7.1-26.4-6.9-13.6.2-26.3 7.9-33.2 20.2-14.3 24.5-3.7 60.9 10.1 80.9 6.8 9.9 14.8 20.7 25.5 20.4 10.1-.4 14.1-6.6 26.3-6.6 12.3 0 15.8 6.6 26.4 6.4 11-.2 18-9.9 24.7-19.8 7.7-11.2 10.8-22.2 11-22.7-.2-.2-21.3-8.3-21.5-32.6-.2-20.4 16.6-30.1 17.4-30.6-9.6-14.3-24.4-15.8-29.5-16.2m76.3-27.6v148.3h23v-50.7H235c29.1 0 49.6-20 49.6-48.9s-20.1-48.7-48.8-48.7h-55.7 0zm23.1 19.4h26.5c20 0 31.4 10.7 31.4 29.4s-11.4 29.5-31.5 29.5h-26.4v-58.9zm123.4 130.1c14.5 0 27.9-7.3 34-18.9h.5v17.8h21.3v-73.8c0-21.4-17.1-35.2-43.5-35.2-24.4 0-42.5 14-43.2 33.2h20.7c1.7-9.1 10.2-15.1 21.8-15.1 14.1 0 22 6.6 22 18.6v8.2l-28.7 1.7c-26.7 1.6-41.2 12.6-41.2 31.6 0 19.1 14.9 31.9 36.3 31.9zm6.2-17.6c-12.3 0-20.1-5.9-20.1-14.9 0-9.3 7.5-14.7 21.9-15.6l25.6-1.6v8.4c0 13.8-11.8 23.7-27.4 23.7zm78 56.8c22.5 0 33-8.6 42.2-34.5l40.4-113.4H470l-27 87.6h-.5l-27.1-87.6h-24.1l39 108-2.1 6.6c-3.5 11.1-9.2 15.4-19.4 15.4-1.8 0-5.3-.2-6.8-.4v17.8c1.4.3 7.1.5 8.8.5z"/></svg>