<svg xmlns="http://www.w3.org/2000/svg" viewBox="0 0 500 500"><path d="M249.4 487.6H112.1c-50-.1-92-33.2-103.2-81.5-1.6-6.9-2.4-14.1-2.4-21.4l.1-268.5c0-51.7 39.6-96.4 91-102.6 5.9-.8 11.8-1.1 17.8-1.1h271.5c45.2 0 82.9 25.4 99.8 67.3 4.5 11.3 6.8 23.2 6.8 35.4v268.5c0 51.9-38.3 95.7-89.8 102.8-5.6.8-11.3 1.1-17 1.2l-137.3-.1zm92.6-57.9c7.2 0 14.5-.2 21.8.1 5.7.2 6.9-.8 4.7-6.7l-89.7-262.3c-1.3-3.7-2.7-5.4-6.9-5.3-14.4.3-29 .3-43.4 0-4.5-.1-6.1 1.6-7.4 5.6l-22.9 67.8-67 195.1c-1.5 4.4-.9 5.8 4 5.7h44.3c3.9 0 5.9-1 7.2-5l22.5-68.8c1.5-4.7 3.3-6 8-6h63.6c5.1-.1 7.1 1.6 8.6 6.4l20.4 60.5c4.3 12.9 4.2 12.9 17.6 12.9H342zm55-322.4C329.8 78.8 262.5 73.5 193.5 87c-30 5.9-58.4 16.4-84.5 32.4-2.4 1.4-6.4 2-4.8 6.6l16.2 46.8c8.9-8.6 16.9-16.6 26.2-23.3 9.4-6.9 19.5-12.6 30-17.3 55.7-25.1 113.3-28.1 172.4-14.6 2.9.6 5.8 2.2 8.9 1.3l39.1-11.6z" fill="#fe0101"/><path d="M342 429.7h-14.8c-13.5 0-13.4 0-17.6-12.9l-20.4-60.5c-1.5-4.6-3.6-6.4-8.6-6.4-21.2.3-42.4.2-63.6 0-4.6 0-6.5 1.3-8 6l-22.5 68.8c-1.3 4.1-3.3 5.1-7.2 5-14.8-.2-29.5-.2-44.3 0-4.8.1-5.6-1.3-4-5.7l67-195.1 22.9-67.8c1.3-4 2.9-5.7 7.4-5.6 14.4.3 29 .3 43.4 0 4.2-.1 5.6 1.6 6.9 5.3l89.7 262.3c2 6 .9 7-4.7 6.7-7.1-.4-14.4-.1-21.6-.1zm-68.4-125.8L249 232.7l-24.1 71.2h48.7zM397 107.3l-39.3 11.5c-3.1.9-6-.5-8.9-1.3-59-13.6-116.6-10.4-172.4 14.6-10.6 4.7-20.6 10.6-30 17.3-9.2 6.7-17.2 14.6-26.2 23.3L104 125.9c-1.5-4.5 2.5-5.2 4.8-6.6 26.2-16 54.5-26.5 84.5-32.4 69.2-13.4 136.5-8.3 203.7 20.4z" fill="#fefcfc"/><path d="M273.6 303.9h-48.7l24.1-71.2 24.6 71.2z" fill="#fe0101"/></svg>