<svg xmlns="http://www.w3.org/2000/svg" viewBox="0 0 500 500" fill-rule="evenodd"><path d="M196.2 385.6l-23.7 22.3-25.6 24.3-33.6 32.9-27.6 28.3c-.3-.3-.6-.6-1-.9L214.7 8c.4-.1.7-.1 1.2-.2 1.8 4 3.5 8 5.5 11.9l24.9 50.8 18.3 38.5c1.2 2.3 2.7 4.5 4.1 6.7.3.9.6 1.9 1 2.7l39.7 82.1 22.9 46.9c.5 1.2.2 3.5-.6 4.5-1.9 2.6-4.3 4.9-6.7 7.2l-30.7 30.3-30.9 30.1-32.6 31.9-34.6 34.2z" fill="#f4791f"/><path d="M196.2 385.6l34.5-34.2 32.6-31.9 30.9-30.1 30.7-30.3 6.7-7.2c.8-1.2 1.2-3.4.6-4.5l-22.9-46.9-39.7-82.1c-.4-.8-.7-1.9-1-2.7l15.1-55.8 14.4-53.6 4.5 8.7 28.2 58.2 44.8 92 26.7 54.8 12.9 27.3c.5 1.3 0 3.8-1 4.8l-26.3 26.1-45.8 45.2-52.4 50.7-31.9 31.2-29 28.4-32 31.1-25.7 25.4c-.6.6-1.5 1.2-3.1 2.3l8.7-33.2 19.2-71.1c.1-.6.2-1.5.3-2.6z" fill="#018c45"/></svg>