<?xml version="1.0" encoding="utf-8"?>
<!-- Generator: Adobe Illustrator 24.1.2, SVG Export Plug-In . SVG Version: 6.00 Build 0)  -->
<svg version="1.1" id="Layer_1" xmlns="http://www.w3.org/2000/svg"
	 viewBox="0 0 512 512" style="0 0 512 512;">
<g id="Layer_1-2">
	<path class="st0" d="M162.4,188.3c17.3,12.6,41.5,8.8,54.1-8.5l45.4-62.7c12.8-17.3,9.1-41.7-8.3-54.5s-41.7-9.1-54.5,8.3
		L153.4,134C141.3,151.6,145.3,175.5,162.4,188.3z M369.9,99.7c-17.2-12.7-41.4-9-54,8.2c-0.1,0.1-0.1,0.2-0.2,0.3L133.4,358.9
		c-12.6,17.3-8.9,41.5,8.4,54.2s41.5,8.9,54.2-8.4L378.2,154c12.7-16.8,9.4-40.8-7.4-53.6C370.5,100.2,370.2,100,369.9,99.7z
		 M144.9,79.8c14-19.1,7.9-46.8-14.4-57.8c-14.5-7.1-32.8-4.1-44.2,7.4c-20.9,20.9-12.5,57.2,18.5,65.5
		C119.8,98.9,135.7,92.3,144.9,79.8L144.9,79.8z M421.5,423.8c-19.1-14-46.8-7.9-57.8,14.4c-7,14.2-4.2,32.1,6.7,43.5
		c17.2,17.9,45.4,15.4,59.5-3.6c12.4-17.2,8.7-41.2-8.3-53.9V423.8z M350.3,324.2c-17.3-12.6-41.6-8.8-54.3,8.5l-45.8,62.7
		c-12.7,17.3-9,41.7,8.3,54.4c17.3,12.7,41.7,9,54.4-8.3l0,0l45.8-62.7c12.6-17.3,8.8-41.5-8.5-54.1V324.2z"  fill="#05C0C7"/>
</g>
</svg>
