<svg xmlns="http://www.w3.org/2000/svg" viewBox="0 0 500 500" fill-rule="evenodd" xmlns:v="https://vecta.io/nano"><path d="M261.9 213.4c30.4 0 54.7-11.2 54.7-40.5 0-30.2-21.7-38.8-56.4-38.8h-78.1v238.8h94.6c37.3 0 59-16.4 59-53.4 0-31.9-27.8-44-55.5-44h-34.7v-62.1h16.4zM44.1 70.3h64.2V6.5H44.1v63.8zM182.5 6.5v63.8H278c89.4 0 112.8 56 112.8 94 0 52.6-20 65.5-34.7 75 45.1 16.4 56.4 51.7 56.4 87.9 0 29.3-12.2 56.9-31.2 75.9-21.7 19.8-41.7 32.8-116.3 32.8H108.8V134.1H44.6v359.4h411.3V6.5H182.5z"/></svg>