<svg xmlns="http://www.w3.org/2000/svg" viewBox="0 0 500 500" fill-rule="evenodd" xmlns:v="https://vecta.io/nano"><path d="M245.1 407.7l-11.2 2.4-26.9 4.6-25.1 4.3-26.4 4.7-23.9 4.1-24.8 4c-8.3 1.5-16.7 3.4-25.1 4.6-7.8 1.2-15.8 2.4-23.7 2.5-18.1.3-33.1-12.7-37.8-27.5-3.1-10.1-2.2-20.4-2.8-30.6l-2.3-40.2-.6-23.2-2.5-58.6-1.2-26.9-2.6-58.5c-.6-14.8-1.7-29.6-1.7-44.4-.1-11.4 4.3-21.6 11.1-30.7 7.1-9.6 16.7-16 28.1-19.1 5.3-1.5 11-1.4 16.5-1.6.9 0 2.2 1.8 2.8 3.1l27.1 66.4 50.3 122.4c10.9 26.7 21.9 53.6 35.6 79.2 6.5 12 13.2 23.8 22.7 33.6 10.2 10.3 22.5 17.4 36.2 21.8l6.9 2.1c.3.1.7.4 1 .6.1.2.2.6.3.9z" fill="#01adee"/><path d="M158.2 72.4l41.8-1.9 54-2.6 50.5-2.5c5-.3 10-.3 15-1 4-.5 5.3 1.4 6.2 4.6l15.5 49 29.7 95.4c3.6 12.3 6.6 25 8 37.6 1.4 13.3-3.1 26.1-10.3 37.4-11.7 18.5-29.6 29.2-49.1 37.9-9.2 4.1-18.9 7.1-29.1 6.5-19.8-1.1-34.4-11-42.9-28.8-7.6-16.2-14.3-32.7-20.7-49.4l-36.2-95.9L159 75c-.1-.8-.3-1.4-.8-2.6z" fill="#e53c30"/><path d="M403.6 61h4.4l62.4.1c2.4 0 5.1.9 7.1 2.2 11.5 8.1 16.1 20.1 16 33.4-.1 15-1.5 30-2.2 44.9l-1.7 36.4-2.5 44.1-2.6 44.1-2.6 43.6c-.8 9.8-1 19.9-3.8 29.2-5.3 18.1-16.8 31-36.4 34.6l-49.7 8.7-54.7 9.8c-4.4.8-9 1.3-13.6 1.1l18.1-9.3c25.7-13.9 50.4-29.5 70-51.8 14.6-16.6 26.1-35.1 31.3-56.8 2.2-9 2.8-18.5 3.8-27.9 1.8-17.1-1.5-33.8-5.5-50.3-5.5-22.9-11.9-45.6-18.2-68.3l-18.9-64.9c-.4-.6-.5-1.5-.7-2.9zm-81.7 333.8c-.3-.1-.4-.2-.7-.3l.3-.3c.3.1.4.2.7.3-.1.2-.2.2-.3.3z" fill="#fdc629"/></svg>