<svg xmlns="http://www.w3.org/2000/svg" viewBox="0 0 500 500"><path d="M478.3 143.5H113c-8.4 0-15.2 6.8-15.2 15.2v243.5c0 8.4 6.8 15.2 15.2 15.2h365.3c8.4 0 15.2-6.8 15.2-15.2V158.7c0-8.4-6.8-15.2-15.2-15.2zM295.7 295.7h-60.9c-8.4 0-15.2-6.8-15.2-15.2s6.8-15.2 15.2-15.2h60.9c8.4 0 15.2 6.8 15.2 15.2 0 8.3-6.8 15.2-15.2 15.2zm60.8-60.9H234.8c-8.4 0-15.2-6.8-15.2-15.2s6.8-15.2 15.2-15.2h121.8c8.4 0 15.2 6.8 15.2 15.2s-6.9 15.2-15.3 15.2zm60.9 121.7H387c-8.4 0-15.2-6.8-15.2-15.2s6.8-15.2 15.2-15.2h30.4c8.4 0 15.2 6.8 15.2 15.2s-6.8 15.2-15.2 15.2z" fill="#1e6aff"/><path d="M189.1 82.6H21.7c-8.4 0-15.2 6.8-15.2 15.2v243.5c0 8.4 6.8 15.2 15.2 15.2h76.1 91.3 30.4c16.8 0 30.4 13.6 30.4 30.4V143.5c.1-33.7-27.1-60.9-60.8-60.9z" fill="#78a5ff"/><path d="M219.6 417.4H113c-8.4 0-15.2-6.8-15.2-15.2v-45.7h121.8c16.8 0 30.4 13.6 30.4 30.4h0c0 16.9-13.6 30.5-30.4 30.5z" fill="#1b5fe5"/></svg>