<svg xmlns="http://www.w3.org/2000/svg" viewBox="0 0 500 500" fill="#1e6aff"><path d="M168.7 97.8h162.7l35.1-28.1c12-9.5 16.4-25 11.4-39.5S359.7 6.5 344.4 6.5H155.7c-15.3 0-28.4 9.3-33.4 23.8-5.1 14.4-.6 29.9 11.3 39.4l35.1 28.1zm262.8 236.1c-2.2-22.9-7.4-45.5-14.1-66.1-16.5-50.7-45-102.1-83.3-139.5h-168c-1.5 0-5.9 6-6.9 7.1-2.7 2.9-5.3 6-8 8.9a228.53 228.53 0 0 0-12.3 15.3c-8.4 11.2-16.1 22.9-23.1 35-14.1 24.2-25.5 49.9-33.8 76.6-1.8 5.6-3.4 11.3-4.9 16.9-7.4 28.4-11.5 57.8-9 87 2.3 27.4 10.6 55.1 26.3 77.9 13.1 18.9 35.3 32.2 57.4 37.4 8.9 2.1 18.1 3 27.2 3h142c43.3 0 79.9-23.6 97.6-63.1 13.3-29.4 16.1-63.2 12.9-96.4zM317.7 277c0 9.3-7.6 16.9-16.9 16.9s-16.9-7.6-16.9-16.9v-11.4c0-12.4-10.1-22.4-22.4-22.4h-22.9c-12.4 0-22.4 10.1-22.4 22.4 0 9.7 6.2 18.2 15.3 21.3l47.7 15.9c23 7.7 38.5 29.1 38.5 53.4 0 29.2-22.3 53.2-50.8 56v17.2c0 9.3-7.6 16.9-16.9 16.9s-16.9-7.6-16.9-16.9v-17.2c-28.5-2.8-50.8-26.8-50.8-56v-11.4c0-9.3 7.6-16.9 16.9-16.9s16.9 7.6 16.9 16.9v11.4c0 12.4 10.1 22.4 22.4 22.4h22.9c12.4 0 22.4-10.1 22.4-22.4 0-9.7-6.2-18.2-15.3-21.3L220.8 319c-23-7.7-38.5-29.1-38.5-53.4 0-29.2 22.3-53.2 50.8-56v-17.2c0-9.3 7.6-16.9 16.9-16.9s16.9 7.6 16.9 16.9v17.2c28.5 2.8 50.8 26.8 50.8 56V277z"/></svg>