<svg id="Layer_1" enable-background="new 0 0 512 512" height="512" viewBox="0 0 512 512" width="512" xmlns="http://www.w3.org/2000/svg"><g><path d="m271 53.139-160.663 92.763 65.33 37.719 160.666-92.761z"/><path d="m241 35.819-57.833-33.39c-4.641-2.68-10.359-2.68-15 0l-153.167 88.431 65.337 37.722z"/><path d="m351.334 228.629v-111.788l-160.667 92.761v185.521l34.508-19.923c3.935-72.529 56.845-132.246 126.159-146.571z"/><path d="m95.333 171.881v20.4c-.738 19.881-29.269 19.866-30 0v-37.72l-65.333-37.721v176.861c0 5.359 2.859 10.311 7.5 12.99l153.167 88.431v-185.521z"/><path d="m383.467 255.353c-70.874 0-128.534 57.66-128.534 128.534 6.462 170.282 250.631 170.236 257.067-.002 0-70.872-57.66-128.532-128.533-128.532zm15 197.305v3.528c-.738 19.881-29.269 19.866-30 0v-3.019c-9.02-2.407-15.883-6.649-19.707-10.474-5.953-5.762-6.107-15.258-.346-21.21 5.762-5.953 15.258-6.107 21.21-.346 9.535 7.229 30.139 5.536 30.976-13.15 0-1.439 0-2.096-2.6-3.612-4.179-2.438-11.292-4.216-18.172-5.936-8.918-2.229-18.14-4.535-26.012-9.126-33.34-20.233-14.46-65.311 14.65-74.198v-3.528c.738-19.881 29.269-19.866 30 0v3.019c9.02 2.407 15.883 6.649 19.707 10.474 5.953 5.762 6.107 15.258.346 21.21-5.762 5.953-15.258 6.107-21.21.346-9.535-7.229-30.139-5.536-30.976 13.15 0 1.439 0 2.096 2.6 3.612 4.179 2.438 11.292 4.216 18.172 5.936 8.918 2.229 18.14 4.535 26.012 9.126 33.34 20.234 14.46 65.312-14.65 74.198z"/></g></svg>