<svg xmlns="http://www.w3.org/2000/svg" viewBox="0 0 500 500" fill="#1e6aff"><path d="M81.4 154.3v-48.5c0-10.3 8.4-18.7 18.7-18.7h299.7c10.3 0 18.7 8.4 18.7 18.7v48.5c0 15.4 12.5 27.8 27.8 27.8h19.3c15.4 0 27.8-12.5 27.8-27.8V25.2c0-10.3-8.4-18.7-18.7-18.7H25.2c-10.3 0-18.7 8.4-18.7 18.7v129.1c0 15.4 12.5 27.8 27.8 27.8h19.3c15.4.1 27.8-12.4 27.8-27.8zm43.3 2.3v309c0 15.4 12.5 27.8 27.8 27.8h195c15.4 0 27.8-12.5 27.8-27.8v-309c0-15.4-12.5-27.8-27.8-27.8h-195c-15.4 0-27.8 12.5-27.8 27.8zm189.8 122.3c0 8.9-7.2 16.1-16.1 16.1s-16.1-7.2-16.1-16.1V268c0-11.8-9.6-21.4-21.4-21.4h-21.8c-11.8 0-21.4 9.6-21.4 21.4 0 9.2 5.9 17.4 14.6 20.3l45.5 15.2c21.9 7.3 36.7 27.7 36.7 50.9 0 27.8-21.3 50.7-48.4 53.4V424c0 8.9-7.2 16.1-16.1 16.1s-16.1-7.2-16.1-16.1v-16.4c-27.1-2.6-48.4-25.6-48.4-53.4v-10.9c0-8.9 7.2-16.1 16.1-16.1s16.1 7.2 16.1 16.1v10.9c0 11.8 9.6 21.4 21.4 21.4h21.8c11.8 0 21.4-9.6 21.4-21.4 0-9.2-5.9-17.4-14.6-20.3l-45.5-15.2c-21.9-7.3-36.7-27.7-36.7-50.9 0-27.8 21.3-50.7 48.4-53.4V198c0-8.9 7.2-16.1 16.1-16.1s16.1 7.2 16.1 16.1v16.4c27.1 2.6 48.4 25.6 48.4 53.4v11.1z"/></svg>