<svg xmlns="http://www.w3.org/2000/svg" viewBox="0 0 500 500" fill-rule="evenodd"><path d="M148.6 9.9v327.8H6.9l-.4-5.8.1-177.6c0-2.6 1.2-5.7 3-7.6L129.3 27.5c6.1-6.1 11.6-12.6 17.5-18.8.6.3 1.2.7 1.8 1.2z" fill="#026fbd"/><path d="M491 149.5H162.1V7.7l6.1-.2 177 .1c2.7 0 6.1 1.2 7.9 3.2L488 146.2c.8.5 1.4 1.4 3 3.3zM9.4 350.4h328v142.2h-6.7c-58.6 0-117.2 0-175.9-.1-3.2 0-7.3-1.7-9.5-4L39 382.1C28.8 372 18.3 362.3 8 352.5c.5-.7 1-1.4 1.4-2.1zm341.8-188.3h142.3v6.8l-.1 175.8c0 3.1-1.5 6.9-3.7 9l-134 133.7c-1.1 1.1-2.4 2-4.5 3.6V162.1z" fill="#016fbd"/></svg>