<svg width="32" height="32" xmlns="http://www.w3.org/2000/svg">
  <path
                d="M14.58 0A14.41 14.41 0 000 14.22a14.41 14.41 0 0014.58 14.22 14.41 14.41 0 0014.58-14.22A14.41 14.41 0 0014.58 0zm1.31 23.58a.1.1 0 01-.1-.1v-4a.09.09 0 01.08-.09 5.41 5.41 0 004-3.95.11.11 0 01.1-.08H24a.12.12 0 01.08 0 .08.08 0 010 .08 9.53 9.53 0 01-8.19 8.14zm8.16-10.45H20a.11.11 0 01-.1-.08 5.46 5.46 0 00-10.75 1.22 5.32 5.32 0 004.2 5.16.1.1 0 01.08.1v3.95a.1.1 0 01-.1.1A9.51 9.51 0 015 14.27a9.53 9.53 0 019.64-9.4 9.59 9.59 0 019.5 8.13.11.11 0 01-.09.13z"
                fill="#222654"
        />
</svg>