<svg xmlns="http://www.w3.org/2000/svg" viewBox="0 0 500 500" fill="#1e6aff" xmlns:v="https://vecta.io/nano"><path d="M278.9 257.2h-54.1v67.9h54.1c18.7 0 34-15.2 34-34 0-9-3.5-17.5-10-24-6.5-6.3-15-9.9-24-9.9zm19.3-55.4c0-7.1-2.8-13.9-7.9-19s-11.9-7.9-19-7.9h-46.5v53.8h46.9c14.6-.2 26.5-12.2 26.5-26.9zM250 86.4c-90.2 0-163.6 73.4-163.6 163.6S159.8 413.6 250 413.6 413.6 340.2 413.6 250 340.2 86.4 250 86.4zm84.8 233.5c-9.9 21.3-32.5 33.8-56 33.8h-11.2v13.7a13.87 13.87 0 0 1-13.9 13.9h-.7a13.87 13.87 0 0 1-13.9-13.9v-13.7h-14.4v13.7a13.87 13.87 0 0 1-13.9 13.9h-.7a13.87 13.87 0 0 1-13.9-13.9v-13.7h-9.4a13.87 13.87 0 0 1-13.9-13.9v-.7a13.87 13.87 0 0 1 13.9-13.9h9.4V174.8h-9.4a13.87 13.87 0 0 1-13.9-13.9v-.7a13.87 13.87 0 0 1 13.9-13.9h9.4 0v-13.7a13.87 13.87 0 0 1 13.9-13.9h.7a13.87 13.87 0 0 1 13.9 13.9v13.7h0 14.4 0v-13.7a13.87 13.87 0 0 1 13.9-13.9h.7a13.87 13.87 0 0 1 13.9 13.9v13.7h0 1.4c12.9 0 25.8 3.6 36 11.5 13.9 10.8 21.6 26.8 21.6 43.9 0 14.1-5.3 27.1-14.1 36.9 3.7 2.4 7.2 5.2 10.4 8.4 18.7 18.6 24.1 46.6 11.9 72.9zM250 6.5c-65 0-126.2 25.3-172.2 71.3S6.5 185 6.5 250s25.3 126.2 71.3 172.2 107.1 71.3 172.2 71.3 126.2-25.3 172.2-71.3 71.3-107.1 71.3-172.2-25.3-126.2-71.3-172.2S315 6.5 250 6.5zm0 435.6c-105.9 0-192.1-86.2-192.1-192.1S144.1 57.9 250 57.9 442.1 144.1 442.1 250 355.9 442.1 250 442.1z"/></svg>