<svg xmlns="http://www.w3.org/2000/svg" xmlns:xlink="http://www.w3.org/1999/xlink" viewBox="0 0 500 500"><image width="3840" height="2161" xlink:href="ECD8538D.jpeg" transform="matrix(.9995 0 0 .9995 -8018.6113 -8049.4175)" overflow="visible"/><path d="M450.4 117.8L264.3 10.3c-8.8-5.1-19.8-5.1-28.6 0L49.6 117.8c-8.8 5.1-14.3 14.5-14.3 24.7v215c0 10.2 5.4 19.6 14.3 24.7l186.1 107.5c8.8 5.1 19.8 5.1 28.6 0l186.2-107.5c8.8-5.1 14.3-14.5 14.3-24.7v-215c0-10.2-5.6-19.6-14.4-24.7zM128 196.3v124.2l-64.1 37v-215L250 35v74.2l-107.8 62.2c-8.8 5.2-14.2 14.6-14.2 24.9zm107.7 29c-8.8 5.1-14.3 14.5-14.3 24.7v123.7l-64.9 37.5V196.3L342.6 88.8v74.7l-106.9 61.8zm200.4 132.2L250 465V250l186.1-107.5c.1 0 0 215 0 215z" fill="#2d2d48"/></svg>