<svg xmlns="http://www.w3.org/2000/svg" viewBox="0 0 500 500" xmlns:v="https://vecta.io/nano"><path d="M472.3 364c-7-3.7-13.7-7.9-20.5-12l-55.3-33.3c-6.6-4.1-8.9-.2-11.5 4.6-11.9 21.9-29.1 38.4-50.6 50.9-25.8 15-55.5 21.6-85.1 22.6-29.5 1-59.2-3.5-87-13.3-9.2-3.2-18.2-7-26.9-11.4-23.5-11.7-45-27.5-63.3-46.3-18.6-19-33.4-40.8-45-64.7-.5-1.1-.9-2.2-2.1-2.8-.1 14.7.3 29.5 1.8 44.2v.1c.1 1.6.3 3.2.4 4.8.1-.1.1-.1.1-.2a200.09 200.09 0 0 0 1.5 10.8c.1 1.2.3 2.5.4 3.7 0-.1.1-.2.1-.2l1.9 9.3c11 49.3 42.9 92.9 84.7 121.2s92.8 41.8 143.3 41.4c29-.2 58-4.9 85.5-14.2 28.1-9.4 54.9-23.5 77.9-42.4 21.5-17.6 39.9-39.6 51.4-65.1 1.2-2.9 2.7-5.4-1.7-7.7z" fill="#27b05b"/><path d="M458.9 181.1a134.56 134.56 0 0 0-2.2-37.4c-6-30.3-21.8-58-43.6-79.8-7.7-7.7-16-14.7-24.6-21.2-26.6-20.2-59.5-30.5-92.4-34.4-53.8-6.4-110.1 4.5-155.9 33.3-29.2 18.3-53.8 44.1-70.6 74.3-7 12.5-12.6 25.8-16.6 39.6-4.6 15.8-8.7 31.5-11.6 47.7-1.5 8.7 5.3 17.4 10.4 23.7 5.7 7.2 11.9 13.9 18.6 20.3 13.3 12.7 28.3 23.5 44.4 32.5a203.08 203.08 0 0 0 14.7 7.5c33.5 15.7 70.4 23.6 107.3 25.4 42.6 2 84.1-4.6 124.6-17.3 27.9-8.8 53.2-23.8 71.5-47 15.4-19.6 24.1-43 26-67.2zM227 310.7h.3c-.1.2-.3.5-.4.7l.1-.7zm76.4-91.7c-5.6 1.5-11.4 2.6-17.2 3.4-39.3 6-80.3 3.4-117.9-10-9.5-3.4-17.4-7.4-25.6-13.4-3.2-2.4-2-5.1-1.1-8 5.5-17.3 14.4-34.1 27.7-46.6 12.5-11.8 27.4-21.1 43.4-27.5 22.7-9 47.9-12.2 72-8.2 18 3 35.8 10 48.6 22.9 12.8 13 19.7 32.6 14.5 50-4.8 16.1-19 28-34.6 34.1-3.1 1.3-6.4 2.4-9.8 3.3zm153.7-32.3c0 .1 0 .1 0 0 0 .1 0 .1 0 0 0 .1 0 .1 0 0zm0-.1c0-.4.1-.9.1-1.3-.1-.7 1 1.4-.1 1.3z" fill="#342e3f"/></svg>