<svg id="Capa_1" enable-background="new 0 0 512 512" height="512" viewBox="0 0 512 512" width="512" xmlns="http://www.w3.org/2000/svg"><g><path d="m512 256c0 127.78-93.62 233.69-216 252.89v-178.89h59.65l11.35-74h-71v-48.02c0-20.25 9.92-39.98 41.72-39.98h32.28v-63s-29.3-5-57.31-5c-58.47 0-96.69 35.44-96.69 99.6v56.4h-65v74h65v178.89c-122.38-19.2-216-125.11-216-252.89 0-141.38 114.62-256 256-256s256 114.62 256 256z" fill="#1877f2"/><path d="m355.65 330 11.35-74h-71v-48.021c0-20.245 9.918-39.979 41.719-39.979h32.281v-63s-29.296-5-57.305-5c-58.476 0-96.695 35.44-96.695 99.6v56.4h-65v74h65v178.889c13.034 2.045 26.392 3.111 40 3.111s26.966-1.066 40-3.111v-178.889z" fill="#fff"/></g></svg>