<svg id="Layer_1" data-name="Layer 1" xmlns="http://www.w3.org/2000/svg" viewBox="0 0 99.45 136.92"><path d="M22.68,122.23V6.35H89.06V27h33.07V143c-1.11.06-2.27.18-3.43.18-19.54,0-39.09-.06-58.63.08-3.33,0-4.5-.9-4.34-4.3.26-5.41.07-10.84.07-16.74Zm95.84,17.22V30.6H85.46V10h-59V118.53H55c5.18,0,5.18,0,5.19,5.11v15.81Z" transform="translate(-22.68 -6.35)" style="fill:#ecd870"/><path d="M83.33,135.21c-6.45,0-12.45,0-18.45-.06a2.71,2.71,0,0,1-2.07-1.43,2.75,2.75,0,0,1,.61-2.49c3.57-2.74,4.07-6.47,4-10.58-.12-7.59,0-15.18,0-22.32-5.22-.3-10-.55-14.87-.85-2.67-.17-4-1.31-4-4.32q.14-36.63,0-73.25a3.55,3.55,0,0,1,2.43-3.79c7.59-3.48,14.78-1.75,21.47,2.06s9.18,10.48,10.06,17.73c.56,4.68-3.27,10.17-7.79,11.84-2.79,1-7.16-.8-8.58-4.79-1.27-3.58-1.2-7.68-1.43-11.57-.09-1.48,1.11-3.07.92-4.5-.35-2.57-.7-5.52-2.18-7.46-1.75-2.31-4.89-2.2-7.59-.94S52.23,22.26,52.21,25c-.08,7.37,0,14.75,0,22.12,0,11.85,0,23.7,0,35.54A53.42,53.42,0,0,0,53,89.8a3.83,3.83,0,0,0,1,1.83c2.56,2.82,6,1.55,8.85,1.24,1.42-.16,3.61-2.68,3.68-4.2.35-7.88.31-15.79,0-23.66-.07-1.54-2.18-3-3.26-4.5-.49-.7-1.18-1.69-1-2.3a2.71,2.71,0,0,1,2.11-1.29c5.07-.11,10.14-.15,15.2,0,2,.06,3.81.71,3.81,3.35C83.32,85,83.33,109.82,83.33,135.21Z" transform="translate(-22.68 -6.35)" style="fill:#ecd870"/><path d="M105.77,83.65a17.79,17.79,0,0,1,9.59,12.71c2.37,11.06,3.14,22-3,32.17-2.75,4.54-7,6.72-12.34,6.69-4.68,0-9.35,0-14.25,0v-84c6.94,0,13.9-1.26,20.53,2.6,5,2.94,7.6,11.16,6.63,17.55C111.83,78.38,110.85,79.71,105.77,83.65ZM89.13,108c0,5.91-.06,11.82,0,17.73,0,3.72,1.62,5.13,5.32,5.15s5.58-1.59,6.21-5.87c.44-3,.55-5.94.94-8.9a69.45,69.45,0,0,0-1.69-26.28,5.89,5.89,0,0,0-6.7-4.63c-3.58.54-4,3.3-4.08,6.16C89.07,96.9,89.13,102.45,89.13,108Zm0-40a90.32,90.32,0,0,0,.1,9.74c.17,1.56,1.17,4,2.29,4.3,2.82.83,6.48.53,6.73-3.21a144,144,0,0,0-.1-21c-.22-2.93-3-4.46-6.27-3.88-3,.53-2.78,2.8-2.76,5C89.14,62,89.13,65,89.13,68Z" transform="translate(-22.68 -6.35)" style="fill:#ecd870"/><path d="M47.23,18.39V94.94c-1.73-.66-3.29-.87-4.35-1.72-7.6-6.06-11.6-14.23-12.8-23.7a106.41,106.41,0,0,1-.74-16.16c.36-12.62,3.75-24.08,13.89-32.56A33.16,33.16,0,0,1,47.23,18.39Z" transform="translate(-22.68 -6.35)" style="fill:#ecd870"/></svg>