<svg xmlns="http://www.w3.org/2000/svg" viewBox="0 0 500 500" xmlns:v="https://vecta.io/nano"><path d="M199.1 225.2c-27.8-38.2-66.3-71.8-110-95-6.6-3.6-14.1-5.5-21.7-5.5-17 0-32.5 9.1-40.6 24.4-12.1 22.3-3.4 50.3 18.9 62.1 67.3 36.1 110.8 104.8 116 184.3v-.5c-.8-8.9.8-17.6 4.7-25.6.5-1.1 1.3-2.4 2.1-3.6 20.9-34.6 32.2-74.3 32.2-115.2 0-8.7-.8-17.1-1.6-25.4" fill="#1476c6"/><path d="M465.7 138.8c-8.1-35.6-20.1-70.2-35.8-103.2C421.4 18 403.4 6.5 384 6.5c-7.6 0-14.9 1.6-21.7 5-25.4 12.1-36.1 42.4-24.1 67.6 25.6 54.4 38.4 111.7 38.4 171.4s-12.8 117-37.9 170.5c-.3.8-4.7 10.2-4.7 21.2 0 3.1.3 7.6 1.3 11.8 3.4 14.4 12.6 27.5 27.8 34.6 6.8 3.1 14.1 5 21.7 5 18.6 0 35.6-10.2 44.5-26.4 10.2-19.1 20.4-44 29.4-76.2 2.8-9.7 5.2-18.9 7.4-28.6 8.1-36.4 12.6-73.5 12.6-111.8-.4-37.8-4.9-75.7-13-111.8" fill="#47ae33"/><path d="M251.3 85.5c-.8-1.6-1.9-2.8-2.8-4.2-3.4-4.4-7.4-8.1-12.1-11-7.6-5-16.8-7.9-26.2-7.9-7.9 0-11.8 1.1-17.3 3.1-5.8 2.4-11.8 5.5-17.3 11.3s-8.6 11.5-11 17.8c-4.7 12.3-3.9 28.3 3.9 41.3 16.8 27 26.7 57.8 30.3 89.5 1.1 8.3 1.6 17 1.6 25.4 0 40.8-11 80.6-32.2 115.2-.8 1.3-1.3 2.4-2.1 3.6-4.2 8.1-5.5 17.3-4.7 25.9 1.3 14.6 9.4 28.6 23.1 36.9 3.4 2.1 7.4 3.6 11 5 4.4 1.3 9.1 2.1 13.8 2.1 17 0 32.5-8.6 41.3-23.3 26.7-43.7 42.1-93.5 45.6-144.5.5-6.8.8-13.8.8-20.7.3-58.8-15.6-116-45.7-165.5" fill="#ed114c"/><path d="M338.5 420.9c25.4-53.4 38.2-110.8 38.2-170.5 0-20.4-1.3-35.3-2.4-45.1-33.2-53.1-81.4-100.7-138-135.3 0 0 1.3.8 1.3 1.1 3.9 2.8 7.1 5.8 10.7 10.2.8 1.1 2.1 2.7 2.8 4.2 30.1 49.8 45.9 106.5 45.9 165 0 7.1-.3 13.8-.8 20.7 24.1 45.9 37.2 97.9 37.2 152.7v16.5c.3-5.8 1.6-11.8 3.6-17 1-.9 1.2-1.7 1.5-2.5" fill="#fbbf16"/></svg>