<svg viewBox="0 0 600 600"
    xmlns="http://www.w3.org/2000/svg">


    <path fill="#FFFFFF" d="M300 2C135.684 2 2 135.68 2 300c0 164.316 133.684 298 298 298 164.32 0 298-133.684 298-298C598 135.68 464.32 2 300 2"/>
    <path d="M300 17.217C144.073 17.217 17.22 144.07 17.22 300c0 155.922 126.853 282.78 282.78 282.78S582.784 455.923 582.784 300C582.784 144.07 455.927 17.217 300 17.217" fill="#4fc143"/>
    <path fill="#FFFFFF" d="M140.622 208.467c0-3.55 0-13.181 10.39-13.181 10.259 0 10.259 8.834 10.259 13.537v48.885c0 5.584-1.251 12.473-10.563 12.473-10.086 0-10.086-8.76-10.086-12.308v-49.406zm20.952-21.722c-5.42-4.84-11.917-10.932-23.111-10.932-23.325 0-23.325 23.77-23.325 27.875v58.57c0 12.696 2.778 27.61 23.917 27.61 13.003 0 18.832-6.751 22.519-10.83v17.117c0 6.702-1.363 13.132-10.385 13.132-5.005 0-7.57-2.164-8.924-4.724-1.06-2.654-1.06-5.41-1.06-6.925H115.77c.187 10.22.352 30.223 34.181 30.223 37.272 0 37.272-24.185 37.272-35.393V177.977h-25.65v8.768zM201.061 177.976h25.69l-.219 13.973c4.338-7.743 10.127-16.4 25.325-15.941v25.417c-2.035-.543-4.6-1.692-8.733-1.692-16.592 0-16.592 15.163-16.592 23.793v65h-25.47v-110.55M283.14 207.078c0-6.822 2.77-11.022 9.49-11.022 8.785 0 8.785 8.065 8.785 11.022v13.644H283.14v-13.644zm-.276 31.776h44.071V207.34c0-6.456-1.327-15.54-7.556-22.033-6.649-6.408-16.641-9.757-26.75-9.757-7.832 0-16.868 1.982-23.347 6.506-7.13 4.956-11.84 12.714-11.84 26.549v46.69c0 22.314 10.13 35.446 35.365 35.446 16.009 0 33.723-5.816 33.723-29.8v-8.857h-25.115c0 11.4-.151 12.75-2.15 15.292-1.479 1.982-3.893 3.206-6.872 3.206-9.53 0-9.53-8.808-9.53-13.622v-18.106zM363.237 207.078c0-6.822 2.805-11.022 9.449-11.022 8.87 0 8.87 8.065 8.87 11.022v13.644h-18.32v-13.644zm-.24 31.776h44.07V207.34c0-6.456-1.353-15.54-7.605-22.033-6.644-6.408-16.565-9.757-26.776-9.757-7.708 0-16.779 1.982-23.25 6.506-7.124 4.956-11.889 12.714-11.889 26.549v46.69c0 22.314 10.162 35.446 35.406 35.446 15.933 0 33.687-5.816 33.687-29.8v-8.857h-25.084c0 11.4-.213 12.75-2.173 15.292-1.465 1.982-3.83 3.206-6.937 3.206-9.45 0-9.45-8.808-9.45-13.622v-18.106zM418.933 177.976h26.117l-.392 8.176c5.143-4.992 10.83-10.336 22.23-10.336 7.921 0 14.049 3.082 17.74 7.316 5.13 5.86 5.13 12.37 5.13 19.042v86.352H464.46v-81.183c0-6.056-.378-13.483-8.972-13.483-10.83 0-10.83 10.032-10.83 14.962v79.704h-25.725v-110.55M301.93 371.5c0-5.352 0-14.035 9.97-14.035 10.777 0 10.777 9.311 10.777 12.762v47.496c0 3.54 0 13.395-10.776 13.395-9.97 0-9.97-7.076-9.97-12.562V371.5zm20.947-22.625c-5.419-4.827-12.326-11.27-22.385-11.27-6.118 0-16.262 3.246-20.991 12.989-2.182 4.32-3.046 8.67-3.046 16.369v50.56c0 10.838.418 18.155 3.286 23.511 3.224 6.168 11.182 11.703 21.584 11.703 12.303 0 17.228-7.111 21.352-13.003l-.232 10.843h25.917v-152.69h-25.485v50.988zM386.637 367.42c0-5.228 0-13.631 9.21-13.631 7.783 0 8.67 7.138 8.67 13.394v56.215c0 4.12 0 11.65-9.085 11.65-8.795 0-8.795-8.604-8.795-11.463V367.42zM360.9 419.301c0 8.215 0 33.437 33.674 33.437 22.844 0 35.379-11.057 35.379-30.935v-53.093c0-8.87-1.43-18.409-10.763-24.901-6.435-4.257-15.559-6.052-23.343-6.052-30.423 0-34.947 18.65-34.947 32.013v49.53zM448.148 300.024h25.698v39.904h15.911v17.095h-16.098v63.09c0 7.188 1.225 12.117 11.614 12.117 1.719 0 2.779-.24 4.484-.24v18.346c-1.705.378-4.88 1.376-13.56 1.376-24.21 0-27.857-9.098-27.857-23.147v-71.542h-14.027v-17.095h13.835v-39.904M494.305 299.302c2.075 0 4.132.534 6.092 1.58a11.161 11.161 0 0 1 4.622 4.565c1.14 2.022 1.67 4.079 1.67 6.19 0 2.235-.53 4.194-1.67 6.19-1.006 1.972-2.654 3.553-4.587 4.648-1.968 1.127-4.003 1.608-6.127 1.608-2.187 0-4.235-.481-6.257-1.608-1.994-1.095-3.433-2.676-4.546-4.649-1.073-1.995-1.643-3.954-1.643-6.19 0-2.11.57-4.167 1.683-6.19 1.073-1.972 2.587-3.54 4.636-4.563 2.03-1.047 4.003-1.581 6.127-1.581zm0 2c-1.795 0-3.424.453-5.143 1.402a9.588 9.588 0 0 0-3.928 3.78 10.637 10.637 0 0 0-1.354 5.153c0 1.82.441 3.602 1.354 5.219.895 1.67 2.262 2.92 3.865 3.842 1.657.896 3.376 1.376 5.206 1.376 1.795 0 3.464-.48 5.179-1.376 1.567-.921 2.845-2.173 3.83-3.842.886-1.617 1.366-3.398 1.366-5.22 0-1.705-.48-3.526-1.367-5.152-.984-1.634-2.284-2.907-3.878-3.78-1.746-.949-3.335-1.403-5.13-1.403zm-5.446 17.272v-13.368h4.56c1.63 0 2.77.165 3.438.406.734.187 1.237.654 1.67 1.273.414.584.632 1.225.632 1.946 0 .984-.379 1.817-1.065 2.565-.614.77-1.616 1.136-2.765 1.225.481.24.86.458 1.1.694.53.557 1.26 1.394 2.035 2.619l1.59 2.64h-2.574l-1.202-2.11c-.949-1.68-1.746-2.743-2.276-3.095-.427-.29-.948-.454-1.732-.454h-1.225v5.66h-2.186zm2.186-7.556h2.579c1.278 0 2.11-.152 2.614-.544.454-.356.659-.846.659-1.478 0-.365-.09-.748-.317-.984-.2-.356-.48-.633-.921-.748-.37-.174-1.127-.299-2.178-.299h-2.436v4.053z"/>

</svg>