<svg xmlns="http://www.w3.org/2000/svg" viewBox="0 0 500 500"><path d="M299.8 198l-94.6 153.7c1 .6 1.5 1.1 2.1 1.3l68.6 28.3c1.7.7 4.2.2 6-.5l47-20.2c2.9-1.3 5.7-3.3 7.7-5.7l66.6-77.7 3-3.9L299.8 198z" fill="#ee7c41"/><path d="M327.6 331.7c-1.9 2.9-4.4 5.2-7.3 7s-6.1 2.9-9.5 3.4c-3.5.5-7.2.4-11.2-.4s-8-2.4-12.1-4.8L275 355.8l-8.5-5.6 12.3-18.5c-3.7-2.5-7.6-5.7-11.5-9.7s-6.8-7.4-8.6-10.6l10-15 1.7 1.1c.9 2.2 3.1 5.4 6.5 9.7s7.2 7.9 11.3 10.9l9.5-14.4-3.9-4.2c-2.2-2.4-4.2-4.9-6-7.4s-3.1-5.3-4-8.2c-.8-2.8-1.1-5.8-.6-8.7.4-3 1.8-6.3 4.2-9.8 3.4-5.2 8.5-8.2 15.3-8.9 6.8-.8 14.3 1 22.5 5.4l8-12.1 8.5 5.6-7.9 12c3 2.2 6.3 5 9.8 8.5s6 6.4 7.5 8.8l-9.9 14.9-1.7-1.1c-1.5-3.2-3.4-6.3-5.8-9.1-2.4-2.9-5.4-5.7-9.2-8.5l-8.7 13.2 3.9 4c6.2 6.3 10 12.1 11.4 17.4 1.4 5.1.2 10.6-3.5 16.2zm-19.7-10.1c1.1-1.7 1.5-3.6 1-5.5s-1.9-4-4.3-6.3l-8.8 13.3c2.3 1.2 4.6 1.8 6.7 1.8 2.2-.1 4-1.2 5.4-3.3zm.8-33.7l8-12.1c-2-1.1-4.1-1.7-6.2-1.6-2.1 0-3.7 1-4.9 2.8-1 1.5-1.4 3-1.2 4.5.3 1.5 1.7 3.6 4.3 6.4z" fill="#fdfbf7"/><path d="M287.4 59.1l-119.1.1c-6.5 0-6.5 0-6.4 6.6l2.2 144.7v24.6h4.6l95.7-6.9c1.7-.1 3.7-1.9 4.7-3.4l18.8-30.6c1-1.6 1.7-3.6 1.8-5.4l5.9-121.4c.4-7.8-.2-8.3-8.2-8.3z" fill="#ed793d"/><path d="M245.1 146.8l-2.3 13.3-25 .1c4.3 10.6 11.6 15.8 21.9 15.8 6.5 0 13.6-3.5 21.2-10.5h2.4l.1 23.5c-9 4.4-18.1 6.6-27.5 6.6-11.4 0-20.9-3.1-28.5-9.5-7.2-6.1-12.2-14.7-14.9-25.8h-8.6l2.3-13.3h4.4c-.1-1.9-.2-3.8-.2-5.7 0-1.4 0-2.7.1-4h-6.6l2.3-13.3h6c2.5-11.6 7.4-20.6 14.8-27.2 7.7-6.8 17.2-10.3 28.7-10.3 9.2 0 18.4 2.2 27.4 6.5l.1 23.4h-2.4c-7.7-6.9-14.8-10.3-21.4-10.3-10.9 0-18.4 6-22.4 17.8l32-.1-2.3 13.3-32.3.1c-.1 1.4-.1 2.7-.1 4.1 0 1.9.1 3.8.3 5.6l30.5-.1z" fill="#fdfbf7"/><g fill-rule="evenodd"><path d="M150.4 57.4l.1 39.7c0 3.1-1.8 3.8-3.9 4.7l-57 24.3c-3.1 1.4-6.2 4.5-7.6 7.5-1.1 2.5-.2 6.5 1 9.3l51.6 123.9L199 421.1c4 9.5 9.7 11.7 19.2 7.5l184.3-82.9c8.6-3.9 9.2-5.7 5.4-14.3l-8.7-19.3c-3.5-7.7-3.5-7.8 2.7-14.4.7 1.1 1.4 2.1 1.9 3.2l37.1 81.5c3.9 8.6 1 16.5-7.5 20.4l-198.3 89c-8.6 3.8-13.3 1.9-17.1-6.9L66.3 128.6 58.4 110c-2.5-6.2-.2-12 5.8-14.7l82.2-36.8c.9-.4 1.8-.5 4-1.1zm197.7 355.5c0-11.9-9.4-21.2-21.3-21.2-11.7.1-21.3 9.8-21.1 21.5.2 11.5 9.7 20.9 21.2 20.9a21.08 21.08 0 0 0 21.2-21.2zM288.4 47H173.1l4.5-2.4 81.3-36.3c7.7-3.4 10.9-2.2 14.4 5.4L288.4 47z" fill="#73b636"/><path d="M307.7 89.4l66 145.2c-7.6-2.9-12.9-7.7-15.8-14.3L310 114.5c-3.9-8.4-4-16.4-2.3-25.1z" fill="#75b73a"/><path d="M348.1 412.9c0 11.8-9.4 21.3-21.2 21.2-11.4 0-21-9.5-21.2-20.9-.2-11.6 9.4-21.4 21.1-21.5 11.9-.1 21.3 9.3 21.3 21.2z" fill="#fcfcfb"/></g></svg>