<svg xmlns="http://www.w3.org/2000/svg" viewBox="0 0 32 32">
 <g fill="none" fill-rule="evenodd">
    <circle cx="16" cy="16" r="16" fill="#F4F4F4" />
    <path fill="#000" d="M17.455 23.726v.001H7V8h10.455v.001c4.28.06 7.727 2.947 7.727 7.863 0 4.915-3.447 7.802-7.727 7.862Zm-.091-.817H7.818V8.82h9.546c4.105.02 7 2.771 7 7.045 0 4.273-2.895 7.025-7 7.045Z"/>
    <path fill="#000" d="M8.91 16.91h2.726v4.908H8.91V16.91Zm1.363-.728a1.727 1.727 0 1 0 0-3.455 1.727 1.727 0 0 0 0 3.455Z"/>
    <path fill="#E54279" d="M23.245 15.182c-.432-5.273-5.881-5.273-5.881-5.273H13.09v11.91h4.273s5.818 0 5.908-5.819h-2v-3.182h.819v2.364h1.154Zm-7.79-2.364h1.909v.818h-1.091V14h1v.727h-1v.455h1.182V16h-2v-3.182Zm-1.216 1.591c0-.773-.512-.773-.512-.773h-.636v-.818h.545S15 12.818 15 14.41 13.636 16 13.636 16h-.545v-.818h.636s.512 0 .512-.773Zm4.554-1.59h1.116L20.87 16h-.828l-.172-.605h-1.05l-.176.605h-.827l.977-3.182Zm.559.84.285.938h-.577l.292-.938Z"/>
  </g>
</svg>





