<svg xmlns="http://www.w3.org/2000/svg" viewBox="0 0 500 500" fill-rule="evenodd" xmlns:v="https://vecta.io/nano"><path d="M493.5 250.3c-.5 134.6-109.9 243.8-244 243.2C115 493 6 383.5 6.5 249.4 7 114.7 116.9 5.9 251.8 6.5c133 .6 242.2 110.7 241.7 243.8zm-243.6 72.1h218c1.3 0 2.4.1 2.9-1.7 5.4-17.1 8.9-34.4 10.3-52.3 1-13.1 1-26.3-.3-39.4-1.5-16.8-4.8-33.1-9.9-49.2-.5-1.4-1.1-1.9-2.6-1.9H31.5c-1.5 0-2.1.5-2.5 1.9-9.3 29.6-12.7 59.7-9.9 90.7 1.5 16.9 4.8 33.3 9.8 49.4.6 1.9 1.3 2.5 3.4 2.5h217.6zm114.9-156.3v-.8c-.1-.4-.1-.8-.2-1.2-5.3-23.5-14.6-45.2-27.5-65.5-.8-1.2-1.6-1.6-3-1.6l-76.4.1c-.7 0-1.4.1-2.1.1v69.1l109.2-.2zm.2 167.4H255.5v69c.4.1.7.1 1 .1l78.1-.1c.8 0 1.8-.7 2.2-1.3 11.5-17.9 20.2-37.2 25.8-57.9.9-3.1 1.6-6.4 2.4-9.8zM244.5 97.1c-.5-.1-.9-.1-1.3-.1l-77.7.1c-.8 0-1.8.6-2.2 1.3-11.6 18-20.3 37.3-25.8 57.9-.9 3.2-1.5 6.5-2.4 9.9h109.5l-.1-69.1zm0 305.5v-69.1H135.2c.1.7.2 1.2.3 1.8 5.3 23.4 14.5 45.2 27.3 65.4.9 1.3 1.7 2 3.4 2l76.1-.1h2.2zM349.9 97c.4.8.6 1.3.9 1.8 12.1 20.4 20.7 42.2 25.7 65.4.4 1.7 1.1 2.1 2.7 2.1l84.7-.1c.7 0 1.3-.1 2.1-.1-.3-.7-.4-1.2-.6-1.8-9.6-24.3-23.1-46.2-40.2-66-.9-1-1.8-1.4-3.1-1.4l-61.8.1h-10.4zm.4 305.5c.2 0 .4.1.7.1l71.8-.1c.8 0 1.8-.6 2.4-1.2 16.5-18.9 29.5-40.1 39.2-63.2l1.9-4.7h-2.8c-27.9 0-55.8.1-83.7-.1-2.2 0-2.9.6-3.4 2.7-3.1 14.9-7.8 29.3-14.3 43.1-3.8 7.9-7.8 15.5-11.8 23.4zM150 97.1c-.5-.1-.7-.1-1-.1l-71.5.1c-.9 0-2.1.7-2.7 1.4a224.61 224.61 0 0 0-34.2 52.3c-2.4 5-4.5 10.1-6.9 15.5h2.9l83.9.1c2 0 2.8-.5 3.2-2.5 3.8-18.1 10-35.4 18.3-51.9 2.5-5 5.3-9.9 8-14.9zM34 333.3l.4 1.2c9.7 24.6 23.2 46.9 40.7 66.9.6.7 1.9 1.1 2.8 1.1l70.3.1h1.7c.1-.3.1-.4.1-.5-.3-.5-.5-1-.8-1.4-12-20.4-20.7-42.1-25.6-65.3-.4-1.7-1-2.1-2.7-2.1l-84.7.1c-.7-.1-1.3-.1-2.2-.1zm190-314c-25.8 2.9-50.4 10.2-73.8 21.5s-44.4 26-63.2 44.6l69.3-.1c.8 0 1.8-.6 2.3-1.2 1.5-1.8 2.7-3.8 4.1-5.7 17.1-23 37.5-42.7 61.3-59.1zm52.9.7c1.4.9 2.9 1.8 4.2 2.8 23.1 17.2 43.5 37.2 60 60.9.8 1.2 1.7 1.7 3.1 1.7l66.6-.1c.6 0 1.1-.1 2.1-.2-17.1-16.9-35.9-30.6-56.8-41.4C331.2 31 304.8 23 276.9 20zm-.8 460.1c52.8-6.6 98.3-28.5 136.6-65.4-.1-.2-.1-.4-.2-.5h-2.2c-21.8 0-43.6.1-65.4-.1-1.9 0-3 .6-4.2 2.2-14.9 21.3-32.7 39.7-53.3 55.5-3.6 2.9-7.5 5.6-11.3 8.3zM86.9 414.2c18.8 18.5 39.5 33.2 62.7 44.4 21.4 10.3 63 22.2 73.6 21-.8-.5-1.5-1-2.2-1.4-.7-.5-1.4-.9-2.1-1.4-23.1-17.3-43.5-37.2-60-61-.9-1.2-1.8-1.8-3.3-1.8l-66.4.1c-.5.1-1.1.1-2.3.1zM328 85.3c-20.2-26.8-44-48.8-72.4-66.2v66.2H328zm-.1 329.1h-72.3v66.1c28.3-17.5 52.2-39.4 72.3-66.1zM244.5 85.3V19.1c-28.5 17.5-52.3 39.4-72.4 66.2h72.4zm-72.4 329c20.1 26.8 44 48.8 72.4 66.2v-66.2h-72.4z" fill="#8c7c6c"/><path d="M124.4 199.4h28.8l-.9 1.8c-2.1 2.5-3.1 5.6-3 8.8.3 6.8.8 13.5 1.4 20.3l2.7 27.2.9 8.8c.5-.8.9-1.2 1.1-1.8l34-62.4c.8-1.5 1.7-2.1 3.4-2 1.9.2 3.8.1 5.9.1l6.3 66.3c.6-.9.9-1.4 1.2-1.9l24.4-47.5c1.6-3.1 2.9-6.5 3.9-9.9.5-1.9-.1-4.1-.4-6.1-.1-.9-.7-1.9.8-1.9h18.3c-.4.9-.6 1.3-.8 1.7-2.4 3.2-5.3 6.1-7.2 9.6l-34.2 66-11.1 22c-.7 1.3-1.4 1.8-2.8 1.7-3-.1-6-.1-9.2-.1l-6.1-63.3c-.2-.1-.4-.1-.5-.1-.3.6-.7 1.1-1 1.6l-32.5 60c-.8 1.4-1.6 1.9-3.2 1.9-2.3-.2-4.6-.1-7.1-.1l-1.8-16.7-3.6-34.3-3-29.2c-.5-4.2-.9-8.5-1.7-12.6-.6-2.6-2-5.1-3-7.9z" fill="#8c7b6c"/><path d="M113.1 202l-4.4 16.6c-.1.4-.6.6-.9.9-.3-.4-.8-.7-1-1.1-.5-1.3-.8-2.7-1.3-4.1-2.2-6.1-6.6-9.7-13.1-10.3-3.2-.3-6.6-.2-9.8.3-6.2 1.1-10.3 4.9-12.2 10.9-1.9 5.9-1 11.5 3.5 16 2.9 2.8 6.2 5.1 9.5 7.5 4.8 3.6 10 6.8 14.6 10.6 15.7 13.2 10.2 35.5-2.4 44.7-6.2 4.5-13.2 6.9-20.7 7.7-10.2 1.1-20.1-.3-29.6-4.2-2-.8-3.8-2-5.6-2.9-1.3-.7-1.4-1.6-1.1-2.9l4.3-15.8c.2-.5.6-.9 1-1.3.3.5.7.9.8 1.4.5 1.9.8 3.9 1.5 5.8 2.7 8.1 8.7 12.4 17 13.1 3.9.3 8 .3 11.8-.6 12-2.9 16.8-16.8 9.6-27.1-2.7-3.9-6.5-6.8-10.3-9.6-4.9-3.6-9.9-7.1-14.4-11.2-13.5-12.4-9.3-32.5 3.4-41.5 6.1-4.3 12.9-6.5 20.3-7.2 10.1-1 19.8.7 29.5 4.3z" fill="#8c7c6c"/><path d="M331.6 252.9l-10.2 38.3c-.7 2.5-.7 5.1.9 7.4.2.4.2.9.2 1.5h-29.9c.6-.7.8-1.3 1.3-1.5 2.4-1.3 4-3.2 4.7-5.7l7.6-24.7 16-55.9c.7-2.5 1-5.3 1-7.9 0-1.6-.9-3.2-1.4-4.9h61.9l-4.6 14.3c-.4 1.1-1.1 2.2-1.7 3.2l-1.9-2.8c-2.9-5.2-7.6-7.4-13.2-7.7-3.8-.3-7.7-.2-11.5-.1-4.5.1-6.1 1.3-7.4 5.6l-5.8 21.2-3.4 12.3 19.3-.1c1.8-.1 3.7-.3 5.5-.8 1.7-.6 3.2-1.6 4.8-2.5.5-.3.9-.6 1.8-.6l-3.9 13.7c-.3 1.2-.6 2.4-1 3.6-.2.4-.5.7-.8 1-.3-.3-.8-.5-1-.8-1.8-4.2-5.5-5.8-9.5-6-5.7-.3-11.4-.1-17.8-.1z" fill="#8c7b6b"/><path d="M411.6 300.1h-29.1c.4-.7.5-1.3.9-1.6 2.8-1.7 4.3-4.4 5.3-7.3l7.1-23.6 17.1-59.1c.2-.6.3-1.3.5-2-3.8 0-7.5-.2-11.1.1s-7.1 1.3-9.9 3.5c-2.8 2.1-5.3 4.6-8.2 6.8.1-.4.2-.9.4-1.3l5-14.8c.4-1 .8-1.5 2-1.5l71.8.1c.5 0 .9.1 1.6.2-.7 2.3-1.4 4.4-2.1 6.5l-3.1 9.5c-.2.5-.6.9-1 1.4-.4-.4-1-.7-1.2-1.2-2.9-6.2-8-8.9-14.5-9.4-2.2-.2-4.4.1-6.6-.1-1.5-.1-2.1.5-2.5 1.9l-14.5 50.5-8.3 30.1c-.9 3.5-1.6 7 .5 10.3.1.2-.1.5-.1 1z" fill="#8c7b6c"/><path d="M267.2 199.4h29.6c-.2.5-.2.9-.4 1-3.3 1.5-4.8 4.5-5.8 7.6l-7.1 23.3-15.2 53.3c-.9 3.2-1.3 6.7-1.5 10.1-.1 1.6.7 3.4 1.2 5.2h-29.7c.3-.6.5-1.2.8-1.4 3-1.8 4.5-4.7 5.5-7.9l11.3-37.9 11.4-40.1c.7-2.5 1-5.3 1.1-7.9.1-1.6-.7-3.3-1.2-5.3z" fill="#8c7b6b"/></svg>