<svg xmlns="http://www.w3.org/2000/svg" viewBox="0 0 500 500" xmlns:v="https://vecta.io/nano"><path d="M54 14.8h391.9c21.6 0 39.2 17.6 39.2 39.2v391.9c0 21.6-17.6 39.2-39.2 39.2H54c-21.6 0-39.2-17.6-39.2-39.2v-392c0-21.6 17.6-39.1 39.2-39.1z" fill="#f0b51d"/><path d="M445.9 14.8c21.6 0 39.2 17.6 39.2 39.2v391.9c0 21.6-17.4 39.2-39.2 39.2h0H54.1c-21.6 0-39.2-17.6-39.2-39.2v-.1V53.9c0-21.6 17.6-39.2 39.2-39.2h0 391.8m0-8.2H54.1C27.9 6.5 6.7 27.8 6.6 54v392c0 26.2 21.3 47.4 47.5 47.5h391.8c26.2 0 47.5-21.3 47.5-47.5V54c0-26.3-21.3-47.5-47.5-47.5z" fill="#fff"/><path d="M277.5 255.1v-84.2l21.9-5.2v11.1s5.7-14.5 18.9-17.9c2-.6 4.1-.7 6.2-.4V180c-4 0-7.8.8-11.5 2.3-8.1 3.2-12.2 10.2-12.2 20.9v46.5l-23.2 5.4h-.1zm-115.9 27.3s-3.6-5.3-3.6-24.3v-41.9l-11.3 2.7v-17.2l11.4-2.7v-18.8l23.4-5.5v18.8l16.5-3.9v17.2l-16.5 3.9v42.7c0 19.4 5.1 23.1 5.1 23.1l-25 5.9h0zm38.8-50.1c0-14.9 2.1-25.9 6.7-34.4 5.4-9.9 14.4-16.4 27.5-19.4 25.7-5.9 34.9 9.3 34.6 29.8v10.9l-45.3 10.7v.8c0 14.2 2.9 21 12 19 7.8-1.7 9.9-6.5 10.6-12.5 0-.9.2-3.4.2-3.4l21.2-5v3.7c-.4 8-2.6 28.1-32 35-28.1 6.4-35.5-10.7-35.5-35.2zm35-37.9c-7.5 1.7-11.5 9.1-11.6 21.2l22.7-5.4v-3.7c.1-9.2-2.8-14-11.1-12.1zm168.1-11.3c-.8-25.7 5.7-46 34.4-52.5 18.3-4.2 25.2.6 28.6 5.2s4.6 10.2 4.6 18.6v1.5l-22.4 5.3v-3.1c0-9.8-2.7-13.6-9.8-11.7-8.5 2.1-11.9 10.1-11.9 26.1v7.4c0 16.2 2.3 23.6 12 21.6 8.5-1.8 9.6-9.2 9.7-15.7v-4.3l22.4-5.3v3.4c0 21.3-11.3 34.7-32.3 39.6-28.7 6.8-34.4-9.8-35.3-36.1zM326.2 219c0-19.5 11.5-25.7 28.6-32.8 15.5-6.4 15.8-9.6 15.9-15.2 0-4.6-2.1-8.7-9.8-6.7-5.3 1-9.2 5.6-9.3 11-.1 1.5-.2 2.9-.1 4.3l-21.7 5.1c-.1-4.3.3-8.7 1.5-12.9 3.4-11.7 13.8-19.5 31.6-23.6 23.1-5.3 30.7 4.8 30.8 20.6v37.3c0 18.1 3.3 20.6 3.3 20.6l-21.3 5c-1.1-2.5-2.1-5-2.8-7.6 0 0-4.6 11.7-20.8 15.6-17.1 4.1-25.9-6.4-25.9-20.7zm44.3-26.6c-3.6 2.5-7.4 4.7-11.4 6.7-7.1 3.4-10.3 7.7-10.3 14.3 0 5.7 3.6 9.5 9.9 7.8 6.9-1.8 11.7-8.1 11.7-17.1l.1-11.7h0zM39.4 341.5c-7.4 0-13.5-6.1-13.5-13.6 0-2.6.7-5.1 2.2-7.3l.2-.2h.2l31.8-7.5V337l-.5.1c-7.2 1.8-15.8 3.8-17.7 4.1-.9.2-1.8.3-2.7.3zm0 30.8c-7.4 0-13.5-6.1-13.5-13.5 0-2.6.7-5.1 2.2-7.3l.2-.2h.2l31.8-7.5v24.1l-.5.1-17.7 4.1c-.9.2-1.8.2-2.7.2zm0 30.9c-7.4 0-13.5-6.1-13.5-13.5 0-2.6.7-5.1 2.2-7.3l.2-.2 32.1-7.5v24l-.5.1c-7.6 1.9-16 3.8-17.7 4.1-1 .2-1.9.3-2.8.3zm-3.8-91.4V176.7l24.7-5.6v135.1L35.6 312v-.2zm61.3-11.5c0-8.4-6.8-15.2-15.2-15.2s-15.2 6.8-15.2 15.2v126.2c0 22.8 18.5 41.3 41.3 41.3h43v-52.7-58.7c0-6.7-3.3-12.9-8.9-16.5l-38.3-26.1v59.1c.1 1.8-1.1 3.3-3 3.6-1.8.1-3.3-1.1-3.6-3v-.5l-.1-72.7zm20.6-94.1c-9.4 2.2-17.4 8.4-21.9 16.9v-9.5l-22.2 5.2v60.6c7.9-3.1 16.9-1.6 23.3 4.1v-39.2c0-9.4 4.6-16.8 11.4-18.3 5-1.1 9.2.7 9.2 9.6v57.2l23.4-5.4V227c0-14.8-5.6-24.9-23.2-20.8zm339.4-86.5c-7.9 0-14.4-6.5-14.4-14.4s6.5-14.4 14.4-14.4 14.4 6.5 14.4 14.4-6.5 14.4-14.4 14.4zm0-27.1c-7 0-12.6 5.6-12.6 12.6s5.6 12.6 12.6 12.6 12.6-5.6 12.6-12.6h0c-.1-6.9-5.7-12.5-12.6-12.6zm-5.4 4.1h6.3c2.2-.3 4.3 1.3 4.6 3.6v1c0 2.3-1 4.1-2.9 4.4h0c1.8.2 2.6 1.1 2.7 3.7v3.6c0 .6.3 1.1.8 1.6h-3.1c-.3-.4-.5-1-.5-1.6l-.1-3.3c0-1.9-.6-2.8-2.6-2.8h-2.3v7.6h-2.8l-.1-17.8h0zm5.2 7.9c1.5.1 2.7-.9 2.8-2.3v-.5c0-1.9-.8-2.8-2.6-2.8h-2.3v5.7h2.1v-.1z" fill="#201b0f"/></svg>