<svg xmlns="http://www.w3.org/2000/svg" width="512" height="512" viewBox="0 0 135.467 135.467" xmlns:v="https://vecta.io/nano"><path d="M71.474 103.278L54.358 90.193l.194-.155 9.54-7.294c1.6-1.223 1.6-3.635 0-4.855l-9.54-7.295a7.76 7.76 0 0 1-3.049-6.174V38.36c0-6.435 7.374-10.082 12.486-6.174L81.105 45.27c1.802-1.473 2.855-3.679 2.855-6.019V13.185c0-6.435-7.374-10.082-12.486-6.174L46.24 26.309 16.587 48.973c-4.067 3.109-4.067 9.235 0 12.344l29.649 22.667 25.238 19.294c3.204 2.447 7.294 1.932 9.9-.376-2.606 2.308-6.696 2.823-9.9.376z" fill="#181235"/><path d="M118.88 74.147L89.23 51.479 63.993 32.186c-5.113-3.909-12.486-.261-12.486 6.174v26.065c0 2.42 1.129 4.701 3.049 6.174l9.54 7.295c1.6 1.224 1.6 3.635 0 4.855l-9.54 7.294-.194.155c-1.802 1.473-2.855 3.679-2.855 6.019v26.065c0 6.436 7.374 10.083 12.486 6.174l25.237-19.298 29.65-22.667c4.067-3.109 4.067-9.235 0-12.343z" fill="#69c5a9"/></svg>