<svg xmlns="http://www.w3.org/2000/svg" viewBox="-0.5 -0.5 14 14" ><path d="M9.228 12.7H3.471c-2.06 0-3.472-1.412-3.472-3.471V3.471c0-2.059 1.413-3.47 3.472-3.47h5.757c2.06 0 3.471 1.41 3.471 3.47v5.758c0 2.06-1.41 3.471-3.47 3.471z" fill="#e31a3c"/><path d="M3.351 9.194h6.014v-.677H3.35zm2.99-6.928l.798.757-.798.74-.782-.74zm4.213 3.254c-1.133-.931-2.544-1.459-4.01-1.498v4.205h1.462c.255 0 .34-.226.34-.226l1.07-2.448.288.193-1.087 2.481h.765l1.172-2.707zM7.632 7.614c-.085.016-.374 0-.374 0V4.763c.544.08 1.053.242 1.547.467L7.802 7.518c-.068.113-.17.097-.17.097zM2.145 5.52c1.134-.929 2.545-1.456 4.01-1.498v4.205s-1.156-.016-1.462 0c-.255 0-.34-.226-.34-.226l-1.07-2.448-.289.193 1.104 2.481h-.78L2.145 5.52zm2.922 2.094c.085.016.374 0 .374 0V4.763c-.53.079-1.045.237-1.529.467l.985 2.288c.069.113.17.097.17.097z" fill="#fecc00"/></svg>