<svg xmlns="http://www.w3.org/2000/svg" viewBox="0 0 221.73 206.54"><g id="Layer_2" data-name="Layer 2"><g id="Layer_1-2" data-name="Layer 1"><path class="cls-1" d="M16.54,180.14l-.73,5.56a4.62,4.62,0,0,0,4.63,5.15H201.28a4.64,4.64,0,0,0,4.65-5.15l-.75-5.56a8,8,0,0,1,7-8.74,7.85,7.85,0,0,1,8.64,7l.7,5.41c1.41,12.09-5.45,22.71-17.67,22.71h-186c-12.22,0-19.08-10.61-17.67-22.71l.7-5.41a7.84,7.84,0,0,1,8.62-7,8,8,0,0,1,7,8.74"/><path d="M183.71,138.22c8.8,0,15.81-6.39,15.63-14.83-.18-8.64-8-14.22-16.81-14.23h-17.7a7.35,7.35,0,0,1,0-14.7h11.83c8-.32,14.12-5.15,14.5-12.69.4-8.07-6.54-14.13-15-14.13h-28.7l-.12,70.59h36.4Zm21.76-56.5c0,7.36-2.61,11.53-6.93,16.66l-.43.52.6.37c8.55,5.21,14.52,13.09,15,24.15.66,16.48-13.3,30.11-29.88,30.08h-43.7a7.79,7.79,0,0,1-7.69-7.89V60.85A7.78,7.78,0,0,1,140.07,53l36.08.1c15.73,0,29.32,11.57,29.32,28.66"/><path d="M64.62,124.44l.2.6.22-.6c2-5.58,4.47-11.76,7.06-18.5q4-10.64,8-20.33T87.75,68.1a59.27,59.27,0,0,1,6-10.75,11.75,11.75,0,0,1,9.48-4.3H105a8.48,8.48,0,0,1,5.7,1.83A6.4,6.4,0,0,1,113,58.8l11.29,87.58a7.19,7.19,0,0,1-1.93,5.3,7.7,7.7,0,0,1-5.5,1.81,8.87,8.87,0,0,1-5.68-1.68,6.12,6.12,0,0,1-2.64-4.38c-.38-2.91-.73-6.15-1.08-9.7s-2.26-18.82-2.76-22.67-3.64-28.71-4.72-37.7l-.1-.76-3.62,7.59c-1.23,2.61-2.56,5.75-4,9.4s-2.92,7.51-4.37,11.58S79.3,129.1,79.3,129.1c-.65,1.81-1.88,5.46-3,8.82s-2.16,6.36-2.44,6.94a10.16,10.16,0,0,1-18.07,0c-.3-.58-1.33-3.61-2.46-6.94s-2.33-7-3-8.82c0,0-7-20-8.55-23.93s-2.92-7.92-4.38-11.58-2.79-6.79-4-9.4L29.77,76.6l-.08.76c-1.1,9-4.25,33.73-4.73,37.7s-2.26,19.13-2.74,22.67-.73,6.79-1.11,9.7a6.16,6.16,0,0,1-2.62,4.38,9,9,0,0,1-5.7,1.68,7.64,7.64,0,0,1-5.48-1.81,7.27,7.27,0,0,1-1.94-5.3L16.66,58.8A6.56,6.56,0,0,1,19,54.88a8.48,8.48,0,0,1,5.68-1.83h1.83a11.73,11.73,0,0,1,9.47,4.3c1.56,2,3.55,5.53,6,10.75s5,11,7.66,17.51,5.33,13.24,8,20.33c2.57,6.74,5,12.92,7,18.5"/><path class="cls-1" d="M42.46,0H179.82c12.94,0,19.38,9.72,20.89,22.53l.58,4.1a8,8,0,0,1-7.09,8.8,7.91,7.91,0,0,1-8.67-7.12L185,24.39c-.58-4.87-2.64-8.62-7.59-8.62H44.89c-5,0-7,3.75-7.59,8.62l-.53,3.92a7.91,7.91,0,0,1-8.69,7.12A8,8,0,0,1,21,26.63l.58-4.1C23.1,9.71,29.53,0,42.46,0"/></g></g></svg>