<svg xmlns="http://www.w3.org/2000/svg" viewBox="0 0 32 32" xmlns:v="https://vecta.io/nano">

 <g id="prefix__layer1" transform="translate(-14.48 -12.468)">
                <g id="prefix__g1222" transform="matrix(2.447 0 0 -2.447 79.174 33.624)">
                    <path id="prefix__path1224" fill="#28316b" d="M-13.6 2.3c0 2.3-2.8 4.1-6.3 4.1s-6.3-1.9-6.3-4.1v-.2c0-2.4 2.5-4.4 6.3-4.4 3.9 0 6.3 2 6.3 4.4v.2z" />
                </g>
                <g id="prefix__g1226" transform="matrix(2.447 0 0 -2.447 77.933 33.615)">
                    <path id="prefix__path1228" d="M-13.3 2.3c0-2.1-2.7-3.9-6.1-3.9-3.4 0-6.1 1.7-6.1 3.9 0 2.1 2.7 3.9 6.1 3.9 3.4 0 6.1-1.7 6.1-3.9" fill="#50b4e9" />
                </g>
                <g id="prefix__g1230" transform="matrix(2.447 0 0 -2.447 36.507 27.337)">
                    <path id="prefix__path1232" fill="#fff" d="M-4.5 1s-.1-.1 0-.1c.1-.1.4-.2.7-.1.2 0 .4.2.6.4.2.2.5.4.7.5.3.1.4 0 .5 0 .1 0 .3-.1.5-.3.4-.3 2.1-1.8 2.4-2 .2.1 1.3.6 2.7.9-.1.6-.6 1.3-1.3 1.9-1-.4-2.1-.6-3.3-.1 0 0-.6.3-1.2.3-.9 0-1.3-.4-1.7-.8l-.6-.6z" />
                </g>
                <g id="prefix__g1234" transform="matrix(2.447 0 0 -2.447 63.741 36.74)">
                    <path id="prefix__path1236" fill="#fff" d="M-10.3 3s-2 1.7-2.4 2.1c-.3.2-.4.2-.5.3h-.3c-.2-.1-.5-.2-.7-.4-.2-.2-.5-.4-.7-.4-.3-.1-.6 0-.8.1-.1 0-.1.1-.1.1-.1.1 0 .2.1.3l.5.6.2.2c-.2 0-.3-.1-.5-.1-.2-.1-.4-.1-.6-.1-.1 0-.5.1-.6.1-.5.1-.9.3-1.5.6-.8-.6-1.3-1.3-1.4-2.1.1 0 .3-.1.4-.1 1.7-.4 2.3-.8 2.4-.9.1.1.3.2.4.2.2 0 .4-.1.5-.2.1.1.2.1.4.1h.2c.2-.3.3-.4.3-.5.1 0 .1.1.2.1s.2 0 .3-.1c.3-.1.4-.5.3-.7h.1c.4 0 .7-.3.7-.7 0-.1 0-.2-.1-.3.1-.1.4-.2.6-.2.2 0 .3.1.3.1v.1l-.5.5-.1.1h.1c.2-.2.6-.5.6-.5l.1-.1c.1 0 .3 0 .4.1l.1.1c.1.2 0 .3 0 .3l-.6.6-.1.1h.1c.2-.2.4-.4.7-.6 0 0 .3-.2.5 0 .2.1.2.3.2.4 0 .1-.1.2-.1.2l-.8.8-.1.1h.1c.2-.2.9-.8.9-.8s.2-.2.5 0c.1.1.2.2.2.3.3.1.1.2.1.2" />
                </g>
                <g id="prefix__g1238" transform="matrix(2.447 0 0 -2.447 44.44 41.811)">
                    <path id="prefix__path1240" fill="#fff" d="M-6.2 4.1c-.1 0-.2-.1-.2-.1v.1s.2.5-.2.7c-.3.1-.5 0-.5-.1 0 .1 0 .3-.3.4-.5.1-.7-.1-.8-.2 0 .2-.2.4-.4.4-.2-.1-.4-.2-.4-.5 0-.2.2-.4.4-.4.1 0 .2 0 .3.1 0-.1-.1-.5.3-.6.2-.1.3 0 .4.1 0-.1 0-.3.3-.4.2-.1.4 0 .4.1h.1c.1-.4.3-.7.6-.7s.5.2.5.5c.1.4-.2.6-.5.6" />
                </g>
                <g id="prefix__g1242" transform="matrix(2.447 0 0 -2.447 44.44 47.076)">
                    <path id="prefix__path1244" fill="#28316b" d="M-6.2 5.2c-.3 0-.5.2-.5.5 0 0 0 .1-.1.1h-.1c.1-.1 0-.2-.1-.2h-.2c-.3.2-.3.4-.3.5v.1c-.1-.2-.2-.2-.3-.2h-.1c-.4.1-.3.5-.3.6-.1-.1-.2-.1-.3-.1-.3.1-.5.3-.5.5s.2.4.4.4.4-.1.4-.3V7h.1s.2.2.4.2h.2c.2-.1.3-.3.3-.4v-.1c.1.2.2.3.3.3h.2c.4-.2.2-.6.2-.6v-.1H-6.2c.3 0 .5-.2.5-.5 0-.4-.2-.6-.5-.6m3.9 2.2c-.6.5-2 1.7-2.4 2-.2.2-.3.3-.5.3h-.2c-.1 0-.2 0-.3-.1-.3 0-.5-.1-.7-.3-.2-.2-.4-.4-.6-.4h-.2c-.2 0-.4.1-.4.1v.1l.5.6c.4.4.8.8 1.7.8.6 0 1.1-.3 1.2-.3.5-.3 1.1-.4 1.6-.4.6 0 1.2.1 1.8.4l-.2.2c-.6-.3-1.1-.4-1.6-.4s-1 .1-1.5.4c0 0-.6.3-1.3.3h-.1c-.8 0-1.2-.3-1.5-.5-.3 0-.5-.1-.7-.1-.2-.1-.3-.2-.5-.2h-.2c-.2 0-1.1.2-1.9.5l-.2-.2c.8-.3 1.7-.6 2-.6h.3c.2 0 .4.1.6.1.1 0 .2.1.4.1l-.1-.1-.5-.6s-.1-.2-.1-.3c0-.1.1-.1.1-.2.1-.1.4-.1.6-.1h.2c.2 0 .5.2.7.4.2.2.5.4.7.4h.2c.1 0 .3-.1.5-.3.4-.3 2.4-2 2.4-2s.1-.1.1-.3c0-.1-.1-.2-.2-.2-.1-.1-.2-.1-.3-.1-.1 0-.2.1-.2.1s-.7.6-.9.8l-.1.1h-.1s0-.1.1-.2l.8-.8s.1-.1.1-.2-.1-.2-.2-.3c0 .1-.1.1-.1.1h-.3l-.1.1c-.2.2-.4.4-.6.5l-.1.1v-.1l.6-.7s.1-.1 0-.3l-.1-.1c-.1-.1-.2-.1-.3-.1h-.2s-.3.3-.6.5l-.1.1h-.1c0-.1 0-.1.1-.2l.5-.5s-.1-.1-.3-.1h-.1c-.2 0-.4.1-.5.1 0 .1.1.2.1.3 0 .4-.3.7-.7.7 0 .2 0 .5-.4.7-.1 0-.2.1-.3.1h-.2c-.1.1-.2.2-.4.3h-.3c-.1 0-.3 0-.4-.1-.1.1-.3.2-.5.2s-.3-.1-.4-.2c-.2.1-.7.5-2.4.9-.1 0-.3.1-.4.1V8s.3-.1.4-.1c1.6-.4 2.2-.7 2.3-.8v-.2c0-.3.3-.6.6-.6h.1c.2-.2.3-.4.6-.5H-7.7c0-.1.1-.3.4-.4h.4c.2-.2.4-.4.7-.4.2 0 .4.1.5.2.2-.1.4-.2.7-.2h.1c.2 0 .4.1.4.2h.2c.1 0 .3 0 .4.1.1.1.2.2.2.3h.1c.1 0 .3 0 .4.1.3.3.4.5.3.7h.1c.1 0 .3 0 .4.1.2.1.3.3.3.4 0 .1 0 .2-.1.3.5.2 1.4.6 2.6.8v.3C-1 8-2.1 7.6-2.3 7.4" />
                </g>
            </g>


</svg>