<svg xmlns="http://www.w3.org/2000/svg" viewBox="0 0 500 500"><path d="M433.5 493.5h-367c-33.1 0-60-26.9-60-60v-367c0-33.1 26.9-60 60-60h367c33.1 0 60 26.9 60 60v367c0 33.1-26.9 60-60 60z" fill="#5b70b6"/><path d="M317.4 360.4l-84.6 34.3c-13.8 5.6-29.6-1.1-35.2-14.9l-83.1-204.9c-5.6-13.8 1.1-29.6 14.9-35.2l84.6-34.3c13.8-5.6 29.6 1.1 35.2 14.9l83.1 204.9c5.6 13.7-1.1 29.6-14.9 35.2zM134.5 152.2c-6.9 2.8-10.3 10.7-7.5 17.6l83.1 204.9c2.8 6.9 10.7 10.3 17.6 7.5l84.6-34.3c6.9-2.8 10.3-10.7 7.5-17.6l-83.1-204.9c-2.8-6.9-10.7-10.3-17.6-7.5l-84.6 34.3z" fill="#fff"/><linearGradient id="A" gradientUnits="userSpaceOnUse" x1="378.575" y1="252.108" x2="378.421" y2="252.306"><stop offset="0" stop-color="#fff"/><stop offset=".496" stop-color="#d9d6e2"/></linearGradient><path d="M378.6 252.2v-.1l-.2.2.2-.1z" fill="url(#A)"/><linearGradient id="B" gradientUnits="userSpaceOnUse" x1="378.171" y1="252.111" x2="377.692" y2="252.725"><stop offset="0" stop-color="#fff"/><stop offset=".496" stop-color="#d9d6e2"/></linearGradient><path d="M378 252.7c.1-.2.2-.3.4-.5l-.9.3c.2.1.4.2.5.2z" fill="url(#B)"/><linearGradient id="C" gradientUnits="userSpaceOnUse" x1="348.286" y1="161.329" x2="240.184" y2="300.034"><stop offset="0" stop-color="#fff"/><stop offset=".496" stop-color="#d9d6e2"/></linearGradient><path d="M273.8 163.6c-29.7 9.9-53 28.1-65.3 48.5l28.3 81.3 1.9 5.6s2.7-2.6 3.5-3.6c13.1-16.8 33.9-31.4 59.4-39.9 27.1-9.1 54.3-9.4 75.9-2.8l.9-.3.2-.2-32-92.1c-21.1-5.9-47-5.1-72.8 3.5z" fill="url(#C)"/><g fill="#fff"><path d="M385.8 301v-.1c-.1 0-.1.1-.2.1h.2z"/><path d="M385.1 301.3c.2-.1.3-.2.5-.3h-.9a1.38 1.38 0 0 0 .4.3z"/><path d="M318 194.5c-31.3-.6-59.4 7.7-78 21.1l-1.5 77.1-.1 5.3s3.4-1.3 4.6-2c18.2-10.2 42.6-16.3 69.5-15.7 28.6.6 54.2 8.5 72.2 20.7h.9c.1 0 .1-.1.2-.1l1.8-87.4c-17.9-11.2-42.4-18.4-69.6-19z"/></g></svg>