<svg xmlns="http://www.w3.org/2000/svg" viewBox="0 0 500 500" fill="#1e6aff"><path d="M317.2 231h-21.1v94.5c0 5.5-4.5 10-10 10h-72.2c-5.5 0-10-4.5-10-10V231h-21.1c-8.5 0-13.1-10-7.6-16.5l67.2-79.1c4-4.7 11.2-4.7 15.2 0l67.2 79.1c5.6 6.5.9 16.5-7.6 16.5zM399.8 6.5H100.2c-10.3 0-18.7 8.4-18.7 18.7v449.5c0 10.3 8.4 18.7 18.7 18.7h299.7c10.3 0 18.7-8.4 18.7-18.7V25.2c0-10.3-8.4-18.7-18.8-18.7zM270.6 462.3h-41.1c-5.5 0-10-4.5-10-10s4.5-10 10-10h41.1c5.5 0 10 4.5 10 10-.1 5.5-4.5 10-10 10zM390 398.8c0 7.6-7 13.8-15.6 13.8H125.5c-8.6 0-15.6-6.2-15.6-13.8V68.7c0-7.6 7-13.8 15.6-13.8h248.9c8.6 0 15.6 6.2 15.6 13.8v330.1z"/></svg>