<svg xmlns="http://www.w3.org/2000/svg" viewBox="0 0 500 500" xmlns:v="https://vecta.io/nano"><circle cx="250" cy="250" r="243.5" fill="#9da1b4"/><path d="M193.5 160.8c-16.5 13.5-27.1 33.7-27.1 56.2 0 23.9 11.7 45 29.9 58.5h19c-18.2-13.5-30-34.7-30-58.6 0-22.4 10.6-42.6 27.1-56.1h-18.9 0zm114.5 0h-18.8c-16.5 13.5-27.1 33.7-27.1 56.2 0 23.9 11.7 45 29.8 58.5h19C292.7 262 281 240.8 281 216.9c-.1-22.4 10.3-42.7 27-56.1zm62.3 0h-.3c-32.3.2-58.5 25.7-58.5 57 0 31.2 26.3 56.8 58.5 56.9.1 0 .2.1.3.1 32.5 0 58.8-25.6 58.8-57 .1-31.4-26.3-57-58.8-57zM418 324.3c-2.1 0-4.5-.7-7.4-1.9v5c2.4 1.1 5.1 1.7 8.1 1.7s5.3-.6 6.9-1.9 2.4-3 2.4-5.4c0-1.5-.6-2.8-1.6-4.1-.9-1.2-2.7-2.2-5.1-3.1l-4.2-1.9c-.4-.3-.6-.5-.6-.9 0-1.1.9-1.8 2.6-1.8 2.3 0 4.9.8 7.6 2.5v-5c-2.2-1.2-4.6-1.8-7.3-1.8-2.8 0-5.1.6-6.8 1.9-1.8 1.3-2.6 2.9-2.6 5 0 1.4.5 2.6 1.4 3.7.8 1.2 2.5 2.2 5 3 2.4.9 3.9 1.7 4.3 2 .5.4.7.7.7 1.2.2 1.3-1 1.8-3.4 1.8zm-30.4 4.3h7.2V319c0-.4.6-1.6 1.7-3.5 1.1-2 2.5-2.9 4.2-2.9 1.1 0 2.5.6 4.3 1.7l2.1-6.2c-1.9-1.4-3.5-2.1-4.8-2.1-2.7 0-5.2 2.2-7.2 6.8h-.1v-6.5h-7.2l-.2 22.3h0zm-26.7-2.7c2.3 2 5.3 3 9 3.1h.7c4.1 0 7.4-1 10.2-2.8v-4.4c-2.9 2.1-5.8 3.1-8.4 3.1-1 0-1.7-.1-2.4-.3-1.2-.3-2.2-.7-2.9-1.4-1.3-1.1-2.1-2.6-2.2-4.6h5.1 11.2c.2-3.9-.9-6.9-3.1-9.3-2.2-2.2-4.8-3.2-8.1-3.4h-.6c-3.5 0-6.5 1.1-8.6 3.3-2.2 2.2-3.3 5-3.3 8.3-.2 3.5 1 6.3 3.4 8.4zm-29.9 2.7h7.2v-11h.2l8.8 11h8.8l-9.3-11.2 9-11.1h-8.5l-8.8 11.1h-.2v-21.7H331zm-28.8-2.8c2.4 2.2 5.5 3.2 9.3 3.2 3.5 0 6.5-1 9.1-2.9 2.5-2.1 3.8-4.9 3.8-8.5 0-3.7-1.3-6.5-3.7-8.6-2.5-2-5.6-3-9.2-3-3.7 0-6.7 1.1-9.2 3.1-2.4 2.2-3.7 4.9-3.7 8.4 0 3.4 1.3 6.2 3.6 8.3zm-31 0c2.4 2.2 5.5 3.2 9.3 3.2h.1c3.3 0 6.5-1 8.9-2.9 2.5-2.1 3.8-4.9 3.8-8.5 0-3.7-1.2-6.5-3.7-8.6-2.5-2-5.6-3-9-3h-.1c-3.7 0-6.7 1.1-9.2 3.1-2.4 2.2-3.7 4.9-3.7 8.4 0 3.4 1.2 6.2 3.6 8.3zM233.1 217c0-22.4 10.6-42.6 27-56.1h-18.7c-16.5 13.5-27.1 33.7-27.1 56.2 0 23.9 11.7 45 29.9 58.5h18.9c-18.2-13.7-30-34.9-30-58.6zm5.1 111.6h7.1v-1.8c1.6 1.2 3.1 1.8 4.9 2.1.5.1.9.1 1.5.1 3 0 5.7-1.1 7.6-3.2 2.1-2.2 2.9-5 2.9-8.4 0-3.3-1-6.2-3-8.2-2.1-2.2-4.7-3.2-8.1-3.2-.3 0-.7.1-.9.1-1.8.2-3.3.7-4.9 1.7v-11.9h-7.1v32.7h0zm-27.7 10.6h7.7l15.3-32.9H226l-5.1 11.5-4.9-11.5h-7.7l9 18.7zm-25-13.3c2.2 2 5.3 3 8.9 3.1h.8c4 0 7.4-1 10.3-2.8v-4.4c-2.9 2.1-5.9 3.1-8.5 3.1-.9 0-1.7-.1-2.4-.3-1.1-.3-2.1-.7-2.9-1.4-1.3-1.1-2.1-2.6-2.2-4.6h5.1 11.3c.2-3.9-1-6.9-3.1-9.3-2.2-2.2-4.8-3.2-8.2-3.4h-.5c-3.5 0-6.5 1.1-8.6 3.3-2.3 2.2-3.4 5-3.4 8.3-.2 3.5.9 6.3 3.4 8.4zm-33.1 2.7h7.1v-14.3c1.7-2.4 3.3-3.7 5-3.7 2.3 0 3.5 1.6 3.5 4.4v13.6h7.2v-14.1c0-2.8-.9-4.9-2.4-6.4-1.6-1.6-3.5-2.2-6-2.2-2.8 0-5.3 1.3-7.4 3.6v-3.1h-7.1l.1 22.2h0zm15.1-53.2c-18.2-13.5-29.9-34.7-29.9-58.6 0-22.4 10.5-42.6 27-56.1h-18.7c-16.6 13.5-27.1 33.7-27.1 56.2 0 23.9 11.6 45 29.8 58.5h18.9zm-43.7 50.4c2.4 2.2 5.5 3.2 9.3 3.2h.1c3.4 0 6.5-1 9-2.9 2.5-2.1 3.8-4.9 3.8-8.5 0-3.7-1.2-6.5-3.7-8.6-2.5-2-5.6-3-9.1-3h-.1c-3.7 0-6.7 1.1-9.2 3.1-2.4 2.2-3.7 4.9-3.7 8.4 0 3.4 1.2 6.2 3.6 8.3zm-51.5 2.8h7.1v-14.9c1.9-2 3.6-3 5.6-3 1.3 0 2.3.5 3.1 1.3.9.8 1.2 2 1.2 3.6v13.1h7.2v-14.2c1.7-2.5 3.5-3.8 5.7-3.8 1.3 0 2.3.5 3 1.4.8.8 1.1 2.1 1.1 3.6v13h7.2v-14.3c0-2.4-.9-4.5-2.5-6.1-1.7-1.6-3.8-2.3-6.5-2.3-3.2 0-6.4 1.7-9 4.8-1.6-3.1-4.4-4.8-8.3-4.8-2.8 0-5.5 1.1-8 3.3v-2.9h-7.1l.2 22.2h0zm28.3-53.2h19c-18.2-13.5-29.9-34.7-29.9-58.5 0-22.4 10.5-42.6 27-56.1H98c-16.5 13.5-27.1 33.7-27.1 56.2-.1 23.8 11.6 44.9 29.7 58.4z" fill="#fff"/><path d="M133.1 310h0c3.5 0 5.2 2.4 5.2 7.2 0 5.1-1.7 7.6-5.1 7.6h-.1c-3.4 0-5.2-2.5-5.2-7.4 0-2.3.5-4.2 1.4-5.4s2.2-1.9 3.8-2zm61.3 0c2.9 0 4.6 1.7 5 4.9h-5-4.9c.3-3.2 1.9-4.9 4.9-4.9zm55 .6c.3 0 .5 0 .8.1 1.3.1 2.4.6 3.2 1.8 1.1 1.1 1.6 2.8 1.6 4.9 0 2.2-.5 4-1.5 5.2-.9 1.1-2 1.8-3.3 1.9h-.7c-1.4 0-2.8-.7-4.3-1.9v-10.3c1.6-1.2 2.9-1.7 4.2-1.7zm31.1-.6h0c3.4 0 5.1 2.4 5.1 7.2 0 5.1-1.7 7.6-5 7.6h-.1c-3.4 0-5.2-2.5-5.2-7.4 0-2.3.5-4.2 1.4-5.4s2.2-1.9 3.8-2zm31 0c3.4 0 5.2 2.4 5.2 7.2 0 5.1-1.8 7.6-5.2 7.6s-5.2-2.5-5.2-7.4c0-2.3.5-4.2 1.4-5.4 1-1.2 2.1-1.9 3.8-2zm58.3 0c2.8 0 4.6 1.7 4.9 4.9h-4.9-5c.4-3.2 2.1-4.9 5-4.9zm.2-51.6c-23.2 0-42.1-18.3-42.1-40.7S346.8 177 370 177s42 18.3 42 40.8c0 22.3-18.8 40.6-42 40.6z" fill="#9da1b4"/></svg>