<svg xmlns="http://www.w3.org/2000/svg" viewBox="0 0 500 500"><circle cx="250" cy="250" r="204.3" fill="#fff"/><path d="M493.5 250c0 134.5-109 243.5-243.5 243.5S6.5 384.5 6.5 250c0-37.1 8.3-72.2 23.1-103.4-9.8 24.9-14.5 49.7-14.5 72.8 0 110.2 89.1 126.2 126.8 125.9 57.7-.6 125-28.9 181.8-81.1l-9.5 53.7C312 330.2 320 341 332.3 341h4.9c12.6 0 21.8-10.5 24-23.1L381.8 203c2.5-12.9-5.8-23.1-18.8-23.1H248.3c-12.9 0-24.6 6.8-26.8 19.7 0 .6-.9 4.3-.9 5.2-1.8 12.3 6.8 21.5 19.1 21.5h59.9l-2.8 2.8c-41.4 39-92.7 60.5-135.1 60.5-42 0-89.4-26.8-89.4-86.6C72.2 78.7 188.9 6.5 250 6.5c134.2 0 243.5 109 243.5 243.5z" fill="#df2127"/></svg>