<svg xmlns="http://www.w3.org/2000/svg" viewBox="0 0 500 500"><linearGradient id="A" gradientUnits="userSpaceOnUse" x1="250" y1="6.5" x2="250" y2="493.5"><stop offset="0" stop-color="#eb0000"/><stop offset="1" stop-color="#a80000"/></linearGradient><path d="M470.5 493.5h-441c-12.7 0-23-10.3-23-23v-441c0-12.7 10.3-23 23-23h441c12.7 0 23 10.3 23 23v441c0 12.7-10.3 23-23 23z" fill="url(#A)"/><path d="M64.2 289.9s30.3 11.6 75.4 20.1v-18.1c-41.8 7.8-75.4-2-75.4-2zm286.4-149.6l-27.5-18-13.5-8.8s-27.9 82.7-91.7 139.9c-16.4 14.7-33.8 24.5-50.8 30.8v30.2c46.2 6.1 102.2 7.2 156-8.6 2.5-.7 4.9-1.5 7.3-2.2 7.1-2.3 13.8-4.8 20.2-7.6 74.1-32.1 97.7-92 97.7-92l-97.7-63.7z" fill="#00b802"/><path d="M350.6 140.3V99.7c0-20.8-16.9-37.7-37.7-37.7H177.3c-20.8 0-37.7 16.9-37.7 37.7v192.2V310v93.6c0 20.8 16.9 37.7 37.7 37.7h135.5c20.8 0 37.7-16.9 37.7-37.7V296c-6.4 2.8-13.1 5.3-20.2 7.6-2.4.8-4.9 1.5-7.3 2.2v47.1H167v-38.5-30.2V97.1h156v25.2l27.6 18zm-66.4 245.4a3.33 3.33 0 0 1 3.3-3.3h9.8a3.33 3.33 0 0 1 3.3 3.3v9.8a3.33 3.33 0 0 1-3.3 3.3h-9.8a3.33 3.33 0 0 1-3.3-3.3v-9.8zm-55.5-8.2a3.33 3.33 0 0 1 3.3-3.3h26.3a3.33 3.33 0 0 1 3.3 3.3v26.3a3.33 3.33 0 0 1-3.3 3.3H232a3.33 3.33 0 0 1-3.3-3.3v-26.3zm-39 8.2a3.33 3.33 0 0 1 3.3-3.3h9.8a3.33 3.33 0 0 1 3.3 3.3v9.8a3.33 3.33 0 0 1-3.3 3.3H193a3.33 3.33 0 0 1-3.3-3.3v-9.8z" fill="#fff"/></svg>