<svg xmlns="http://www.w3.org/2000/svg" viewBox="0 0 2500 2499.8" xmlns:v="https://vecta.io/nano">

<path d="M0 2499.8h2500V0H0z" fill="#fac705" />
            <path d="M1250 1736c652 0 1180.4-217.7 1180.4-486 0-268.5-528.5-486.2-1180.4-486.2C598 763.8 69.4 981.5 69.4 1250c0 268.4 528.6 486 1180.6 486" fill="#005c87" />
            <path d="M1545.4 1130.1l30.9-123.2h-403l-30.8 123.2h131.9l-64.7 258.8h138.9l64.8-258.8z" fill="#fac705" />
            <path d="M1138.6 1006.9h-201l-128 283.1v-283.1H614.9l-121.9 486h133.9l79.3-313.7v313.7h103.4l152.3-313.7-73 313.7h127.9zm868.2 0H1879l-66.9 258.6-61-258.6h-140.2L1489.2 1493h128l66.9-264.5 67 264.4h134z" fill="#fff" />
            <path d="M1201 1423.5l-17.5 69.4h139l17.3-69.4z" fill="#211e1e" />

</svg>