<svg xmlns="http://www.w3.org/2000/svg" viewBox="0 0 500 500" fill="#1e6aff" xmlns:v="https://vecta.io/nano"><path d="M35.3 453.3h429.5c7.2 0 13 5.8 13 13v14.1c0 7.2-5.8 13-13 13H35.3c-7.2 0-13-5.8-13-13v-14.1c-.1-7.1 5.8-13 13-13zm206.6-444L103.6 118.9c-9.7 7.7-4.3 23.2 8.1 23.2h276.6c12.3 0 17.7-15.6 8.1-23.2L258.1 9.3c-4.8-3.7-11.4-3.7-16.2 0z"/><path d="M35.3 171.1h429.5c7.2 0 13 5.8 13 13v14.1c0 7.2-5.8 13-13 13H35.3c-7.2 0-13-5.8-13-13v-14.1c-.1-7.2 5.8-13 13-13zm46.3 69.1H125c7.2 0 13 5.8 13 13v158.1c0 7.2-5.8 13-13 13H81.6c-7.2 0-13-5.8-13-13V253.2c0-7.1 5.8-13 13-13zm293.4 0h43.4c7.2 0 13 5.8 13 13v158.1c0 7.2-5.8 13-13 13H375c-7.2 0-13-5.8-13-13V253.2c0-7.1 5.8-13 13-13zm-146.7 0h43.4c7.2 0 13 5.8 13 13v158.1c0 7.2-5.8 13-13 13h-43.4c-7.2 0-13-5.8-13-13V253.2c0-7.1 5.8-13 13-13z"/></svg>