<?xml version="1.0" encoding="utf-8"?>
<!-- Generator: Adobe Illustrator 19.0.0, SVG Export Plug-In . SVG Version: 6.00 Build 0)  -->
<svg version="1.1" id="layer" xmlns="http://www.w3.org/2000/svg" xmlns:xlink="http://www.w3.org/1999/xlink" x="0px" y="0px"
	 viewBox="-153 -46 652 652" style="enable-background:new -153 -46 652 652;" xml:space="preserve">
<style type="text/css">
	.st0{fill:#FF3399;}
</style>
<path class="st0" d="M-131.5,342.2V229.5c0-10.2,8-17.6,18.8-17.6c10.8,0,17.1,4.2,21.9,13.5l28.3,56.3h0.4v-67.7h31.7v111.6
	c0,11.7-8.8,18.7-16.8,18.7c-8.2,0-14.2-3.8-22.6-20.1l-29.5-57.1h-0.4v75H-131.5z M27.2,307l-11.9-19l25.5-17
	c-4.7-3-8.4-3.4-12-3.4C16,267.6,9,280.9,9,292.3c0,11.9,8.4,24.3,21,24.3c11.7,0,23.1-10.5,27.8-21.6l22.3,11.7
	c-8.9,21.8-28.8,37.6-52.3,37.6c-26,0-48.8-22.8-48.8-50.4c0-27.7,22.7-50.4,48.8-50.4c21.8,0,36.1,11.9,46.3,30.7L27.2,307z
	 M110.1,293.9c0-11.1,8-20.4,18.9-20.4c10.9,0,18.9,9.3,18.9,20.4c0,11.1-8,20.4-18.9,20.4C118.1,314.3,110.1,305,110.1,293.9
	L110.1,293.9z M80.1,293.9c0,27.7,22.8,50.4,48.9,50.4c26.1,0,48.9-22.8,48.9-50.4c0-27.7-22.8-50.4-48.9-50.4
	C102.9,243.5,80.1,266.2,80.1,293.9z M184.3,314.7h29.5c3.6,0,5.4-1.8,5.4-4.3c0-9-33.9-5.6-33.9-37c0-17.9,15.3-26.9,29.9-26.9H245
	v25.3h-24c-3.6,0-6.3,1.9-6.3,4.5c0,7.6,35.8,9.5,35.8,35c0,19.3-11.9,29.8-32,29.8h-34.3V314.7z M290.3,301.2
	c0,8.2,4.1,13.3,10.8,13.3c6.7,0,10.8-5.1,10.8-13.3v-54.6h30.3v54.6c0,24.7-14.3,43.2-41.1,43.2c-26.7,0-41.1-18.4-41.1-43.2v-54.6
	h30.3V301.2z M378.2,262.4h0.4c4.6-13.4,13.4-15.8,26.7-15.8V275c-21.2,0.8-23.1,5.4-23.1,21.8v44.4h-30.6v-94.6h26.6V262.4z
	 M411.7,341.2V239.7c0-19.6,15.2-34.1,39.2-34.1h17.6v28.3h-14.8c-8,0-10,4.5-10,12.4h18.6v28.3h-18.6v66.6H411.7z"/>
</svg>
