<svg xmlns="http://www.w3.org/2000/svg" viewBox="0 0 500 500" fill="#8cc442" xmlns:v="https://vecta.io/nano"><path d="M457.4 216.3c-5.9-4-14.7-6-26.3-6h-30.4l-11.3 61.4h-39.8l2.6-13.9h24l2.9-15.6h-24l2.6-13.9h24.7l3.3-17.9h-50.2l-10.7 58.2h-18.4l10.8-58.2H291l-11 58.1h-18l10.8-58.2h-26.2l-11.3 61.4h-40.1l2.5-13.9h24.1l2.9-15.5h-24.1l2.5-13.9h25l3.2-18H75L66.1 259l-17.7-48.6H21.1L6.5 289.7h26l8.8-50 17.2 50h93.2l11.3-61.4h14.6l-11.3 61.4h245.2l7.1-38.8 11.5 38.8h26L444.2 258l2.7-.6c6-1.3 10.7-4.1 14-8.2s4.9-9.6 4.9-16c0-7.5-2.7-13-8.4-16.9zm-328.3 55.4H89.4l2.6-13.9h25l2.8-15.7H95l2.4-13.8h39.8l-8.1 43.4zM436 244.9c-2.6 1.8-6.4 2.7-11.6 2.7h-5.2l3.9-21.3h3.8c4.3 0 7.4.7 9.6 2.1 1.7 1.1 3.7 3.3 3.7 7.4.1 5.1-2.2 7.8-4.2 9.1zm41.6 39.7l-.6-12.5 5.5-.3c.9-.1 1.7 0 2.6.2.6.2 1.1.6 1.5 1.1s.6 1.2.6 1.9c.1.8-.2 1.6-.7 2.3-.7.7-1.6 1.2-2.6 1.3.4.1.7.3 1 .6.6.5 1.1 1 1.5 1.6l2.3 3.3-2.1.1-1.8-2.5-1.3-1.7a2.36 2.36 0 0 0-.9-.8c-.2-.1-.5-.2-.8-.3h-1l-1.9.1.3 5.5-1.6.1zm1.3-7.1l3.6-.2c.6 0 1.2-.1 1.8-.3.4-.2.7-.4.9-.8.2-.3.3-.7.3-1.1a1.75 1.75 0 0 0-.7-1.4c-.6-.4-1.3-.6-2.1-.5l-3.9.2.1 4.1z"/><path d="M481.2 266.4c-6.4.3-11.4 5.8-11 12.2.3 6.4 5.8 11.4 12.2 11.1s11.4-5.8 11.1-12.2h0c-.4-6.5-5.8-11.5-12.3-11.1zm-9 12.1c-.4-5.3 3.6-10 9-10.4 5.3-.4 10 3.6 10.4 9v.4.5c0 5.3-4.4 9.7-9.7 9.6-5.3 0-9.5-4-9.7-9.1h0z"/></svg>