<svg xmlns="http://www.w3.org/2000/svg" viewBox="0 0 500 500"><path d="M295.1 193.9l-45-33.7h0c-32.4-24.9-66.2-47.9-101.2-68.9-44.8-26.6-102.6-11.8-129.2 33-8.6 14.5-13.2 31.1-13.2 48v81.8c47.1-70.6 131.6 0 199.1 51.7l44.4 34.4h0c32.4 24.9 66.2 47.9 101.2 68.9 44.9 26.3 102.6 11.3 129-33.6 8.4-14.4 12.9-30.7 13-47.4v-82.5c-46.9 70.6-131.5.2-198.1-51.7z" fill="#f58020"/><path d="M211.2 345.7c-22.5-17.3-44.6-35-68.5-50.4-33.5-21.9-86.2-56-120.6-16-10.8 13.9-16.4 31.2-15.6 48.9 0 22.9 7.3 45.1 21 63.5 30.9 38.8 85.6 48.8 128.3 23.7 15.8-9.4 46.9-32.3 76.9-53.1l-3.5-2.7-18-13.9zm77.6-191.6c22.5 17.3 44.6 35 68.5 50.4 33.5 21.7 86.2 55.8 120.6 16 10.8-13.9 16.4-31.2 15.6-48.9 0-22.9-7.3-45.1-21-63.5-31-38.6-85.7-48.5-128.3-23.3-15.8 9.4-46.9 32.3-76.9 53.1l3.3 2.7 18.2 13.5z" fill="#f05123"/></svg>