<svg xmlns="http://www.w3.org/2000/svg" xmlns:xlink="http://www.w3.org/1999/xlink" viewBox="0 0 500 500" xmlns:v="https://vecta.io/nano"><defs><path id="A" d="M448.8 383c0 13.1-10.7 23.8-23.8 23.8H150c-13.1 0-23.8-10.7-23.8-23.8V112.7c0-13.1 10.7-23.8 23.8-23.8h275c13.1 0 23.8 10.7 23.8 23.8V383z"/></defs><clipPath id="B"><use xlink:href="#A"/></clipPath><g fill-rule="evenodd"><g fill="#dedede"><path d="M126.2 395.9l10 10.9h-10z" class="d"/><path d="M126.2 381.2l23.4 25.6h-13.4l-10-10.9z" class="d"/></g><path d="M126.2 366.4l36.9 40.4h-13.5l-23.4-25.6z" fill="#dfdfdf" class="d"/><path d="M126.2 351.7l50.4 55.1h-13.5l-36.9-40.4z" fill="#e0e0e0" class="d"/><path d="M126.2 336.9l63.8 69.9h-13.4l-50.4-55.1z" fill="#e1e1e1" class="d"/><path d="M126.2 322.2l77.3 84.6H190l-63.8-69.9z" fill="#e2e2e2" class="d"/><path d="M126.2 307.5l90.8 99.3h-13.5l-77.3-84.6z" fill="#e3e3e3" class="d"/><path d="M126.2 292.7l104.2 114.1H217l-90.8-99.3z" fill="#e4e4e4" class="d"/><path d="M126.2 278l117.7 128.8h-13.5L126.2 292.7z" fill="#e5e5e5" class="d"/><path d="M126.2 263.2l131.2 143.6h-13.5L126.2 278z" fill="#e6e6e6" class="d"/><path d="M126.2 248.5l144.6 158.3h-13.4L126.2 263.2z" fill="#e7e7e7" class="d"/><path d="M126.2 233.7l158.1 173.1h-13.5L126.2 248.5z" fill="#e8e8e8" class="d"/><path d="M126.2 219l171.6 187.8h-13.5L126.2 233.7z" fill="#e9e9e9" class="d"/><path d="M126.2 204.2l185 202.6h-13.4L126.2 219z" fill="#eaeaea" class="d"/><path d="M126.2 189.5l198.5 217.3h-13.5l-185-202.6z" fill="#ebebeb" class="d"/><path d="M126.2 174.8l211.9 232h-13.4L126.2 189.5z" fill="#ededed" class="d"/><path d="M126.2 160l225.4 246.8h-13.5l-211.9-232z" fill="#eee" class="d"/><path d="M126.2 145.3l238.9 261.5h-13.5L126.2 160z" fill="#efefef" class="d"/><path d="M126.2 130.5l252.3 276.3h-13.4L126.2 145.3z" fill="#f0f0f0" class="d"/><path d="M126.2 115.8l265.8 291h-13.5L126.2 130.5z" fill="#f1f1f1" class="d"/><path d="M126.2 101l279.3 305.8H392l-265.8-291z" fill="#f2f2f2" class="d"/><path d="M126.2 93.2l3.5-3.1 289.2 316.7h-13.4L126.2 101z" fill="#f3f3f3" class="d"/><path d="M129.7 90.1l1.3-1.2h11.1l290.3 317.9h-13.5z" fill="#f4f4f4" class="d"/><path d="M155.5 88.9l289.5 317-1 .9h-11.6L142.1 88.9z" fill="#f5f5f5" class="d"/><path d="M169 88.9l279.8 306.4v7.2l-3.8 3.4-289.5-317z" fill="#f6f6f6" class="d"/><path d="M182.4 88.9l266.4 291.6v14.8L169 88.9z" fill="#f7f7f7" class="d"/><path d="M195.9 88.9l252.9 276.9v14.7L182.4 88.9z" fill="#f8f8f8" class="d"/><path d="M209.4 88.9l239.4 262.2v14.7L195.9 88.9z" fill="#f9f9f9" class="d"/><g fill="#fafafa"><path d="M222.8 88.9l226 247.4v14.8L209.4 88.9z" class="d"/><path d="M448.8 336.3l-226-247.4h226z" class="d"/></g><path d="M460.9 82.2c21.7 21.9 32.6 48.2 32.6 79V339c0 30.8-10.9 57.1-32.6 79-21.8 21.7-48.1 32.5-78.9 32.5H198.1c-30.8 0-57.1-10.8-78.9-32.5-21.9-21.9-32.8-48.2-32.8-79V161.2c0-8 1-16.5 2.9-25.6H6.5V99.4c15.8-8 29.9-15.8 42.4-23.5C62.2 67.8 74.3 59 85.3 49.5H382c30.8 0 57.1 10.9 78.9 32.7zm-22.6 79.9c0-16.3-6.4-30.1-19.1-41.6-12.7-11.4-28.2-17.2-46.5-17.2H207.4c-18.2 0-33.6 5.7-46.4 17.2-13 11.5-19.5 25.4-19.5 41.6v176c0 16.3 6.5 30.1 19.5 41.6 12.7 11.4 28.2 17.2 46.4 17.2h165.3c18.2 0 33.7-5.7 46.5-17.2s19.1-25.4 19.1-41.6v-176zm-94.9 77.5c-7.1 0-13.2-2.5-18.2-7.6-5.1-4.9-7.6-11-7.6-18.1v-25.8c0-7.1 2.5-13.2 7.6-18.2 5.1-5.1 11.1-7.7 18.2-7.7 7.3 0 13.3 2.6 18.2 7.7 5.1 5 7.7 11.1 7.7 18.2V214c0 7.1-2.6 13.1-7.7 18.1s-11.2 7.5-18.2 7.5zm-119.5 49.5c2.7-3.1 5.7-4.6 9.1-4.6 3.6 0 6.5 1.5 8.8 4.5l.3.2c1.5 2 3 5.2 4.5 9.5 1.7 4.6 3.2 7.8 4.3 9.4 4.3 7.1 11.5 11.4 21.5 12.8 2 .3 5.2.3 9.8 0 4.5-.3 7.8-.3 10 0 3.5.3 6.4 1.4 8.8 3.2 3 2.3 4.3 5.7 3.8 10.2-.6 4.1-2.3 7.5-5.1 10.4-6.9 7.3-17.2 9.5-30.9 6.8-11.7-2.4-21.6-6.9-29.8-13.7-5.1-4.3-8.9-8.8-11.3-13.4-8.2-16.2-9.5-27.9-3.8-35.3zm55.9-75.1c0 7.1-2.5 13.1-7.5 18.1-5.1 5.1-11.2 7.6-18.3 7.6s-13.2-2.5-18.2-7.6c-5.1-4.9-7.7-11-7.7-18.1v-25.8c0-7.1 2.6-13.2 7.7-18.2 5-5.1 11.1-7.7 18.2-7.7 7.2 0 13.3 2.6 18.3 7.7 5 5 7.5 11.1 7.5 18.2V214z" fill="#0a537f"/></g></svg>