<svg xmlns="http://www.w3.org/2000/svg" viewBox="0 0 500 500" fill-rule="evenodd" xmlns:v="https://vecta.io/nano"><path d="M250 396.1c-79.6.3-145.8-65.3-146.1-144.7-.3-81.6 64.6-147.4 145.6-147.7 80.5-.2 144.8 63.8 146.6 142.7 1.9 83-64.5 149.6-146.1 149.7zm97.3-135.7c.1-35-8.1-56.8-24.7-75.4-17-19-38.4-30-63.7-32.2-27.8-2.4-52.6 5.7-73.6 24.4-19.2 17-30 38.7-32.3 63.9-2.6 28.3 5.9 53.4 25.3 74.4 16.7 18.1 37.3 29.1 61.8 31.3 28.2 2.6 53.6-5.1 74.8-24.5 21.1-19.2 32.2-43 32.4-61.9z" fill="#020202"/><path d="M274.5 56.5V8c101.8 7.4 209.3 93.7 218.4 224.7 9.8 140.7-97.6 248.7-218.3 259.4v-48.6c60.2-8.9 107.4-38.6 140.4-89.9 22.3-34.5 31.6-72.8 29.7-113.8-4.4-93.7-77.2-172-170.2-183.3zm-48.9 386.9v48.9c-54.6-6-102.1-27.3-142.1-64.8S18.7 344 9.8 289.9C-13.4 148.2 88.2 21.4 225.5 7.6v48.8c-52.5 7.3-95.6 31.5-128.6 73-28.8 36.4-42.5 78.2-41.7 124.6 1.8 97.8 76.4 178.1 170.4 189.4z" fill="#010101"/></svg>