<svg xmlns="http://www.w3.org/2000/svg" viewBox="0 0 500 500" fill="#1e6aff" xmlns:v="https://vecta.io/nano"><path d="M399.8 6.5H100.2c-10.3 0-18.7 8.4-18.7 18.7v449.5c0 10.3 8.4 18.7 18.7 18.7h299.7c10.3 0 18.7-8.4 18.7-18.7V25.2c0-10.3-8.4-18.7-18.8-18.7zM270.6 462.3h-41.1c-5.5 0-10-4.5-10-10s4.5-10 10-10h41.1c5.5 0 10 4.5 10 10-.1 5.5-4.5 10-10 10zM390 398.8c0 7.6-7 13.8-15.6 13.8H125.5c-8.6 0-15.6-6.2-15.6-13.8V68.7c0-7.6 7-13.8 15.6-13.8h248.9c8.6 0 15.6 6.2 15.6 13.8v330.1zm-91.6-181.2c8.9 0 16.1-7.2 16.1-16.1v-10.9c0-27.8-21.3-50.7-48.4-53.4v-16.4c0-8.9-7.2-16.1-16.1-16.1s-16.1 7.2-16.1 16.1v16.4c-27.1 2.6-48.4 25.6-48.4 53.4 0 23.1 14.7 43.6 36.7 50.9l45.5 15.2c8.7 2.9 14.6 11.1 14.6 20.3 0 11.8-9.6 21.4-21.4 21.4h-21.8c-11.8 0-21.4-9.6-21.4-21.4v-11c0-8.9-7.2-16.1-16.1-16.1s-16.1 7.2-16.1 16.1v10.9c0 27.8 21.3 50.7 48.4 53.4v16.4c0 8.9 7.2 16.1 16.1 16.1s16.1-7.2 16.1-16.1v-16.4c27.1-2.6 48.4-25.6 48.4-53.4 0-23.1-14.7-43.6-36.7-50.9l-45.5-15.2c-8.7-2.9-14.6-11.1-14.6-20.3 0-11.8 9.6-21.4 21.4-21.4h21.8c11.8 0 21.4 9.6 21.4 21.4v10.9c0 9 7.2 16.2 16.1 16.2h0z"/></svg>