<svg xmlns="http://www.w3.org/2000/svg" viewBox="0 0 500 500" xmlns:v="https://vecta.io/nano"><path d="M249.8 493.5h.3C385 493.3 493.5 383.9 493.5 250 493.5 115.6 384.3 6.5 250 6.5 109 7.9 6.5 120.1 6.5 250c0 134.3 109.1 243.5 243.3 243.5zm-187-146.1h67.8c9.1 40.2 23.4 73.9 41.3 98.7-47-18.8-85.8-54.1-109.1-98.7h0zm388-162.3C457.6 206 461 227.8 461 250s-3.4 44-10.2 64.9h-75.5c3-21 4.6-42.8 4.6-64.9s-1.5-43.9-4.6-64.9h75.5zm-184.6 0h76.2c3.3 20.9 4.9 42.7 4.9 64.9s-1.7 44-4.9 64.9h-76.2m-32.4 142.9c-28.9-11.5-55.4-53.1-69.8-110.4h69.8v110.4zm32.4-.1V347.4h69.7c-14.3 57.1-40.8 98.6-69.7 110.3zm0-305.1V42.3c28.9 11.7 55.4 53.3 69.7 110.3h-69.7zM233.8 42.1v110.5H164c9.8-39.5 32.9-96.1 69.8-110.5zm0 143V315h-76.3c-3.2-20.9-4.9-42.7-4.9-64.9s1.7-44 4.9-64.9h76.3zM124.7 314.9H49.2C42.6 294.5 39 272.6 39 250s3.6-44.5 10.3-64.9h75.4c-3 21-4.5 42.8-4.5 64.9s1.5 43.9 4.5 64.9zM328 445.8c17.8-24.8 32.2-58.4 41.3-98.4h67.9c-23.6 45-62.8 79.8-109.2 98.4h0zm109.2-293.2h-67.9c-9.1-40-23.5-73.6-41.3-98.4 46.4 18.6 85.6 53.4 109.2 98.4zM172 53.9c-17.9 24.9-32.3 58.5-41.4 98.7H62.9C86.2 108 125 72.7 172 53.9h0z" fill="#1e6aff"/></svg>