<svg xmlns="http://www.w3.org/2000/svg" viewBox="0 0 500 500" fill="#1e6aff" xmlns:v="https://vecta.io/nano"><path d="M425.7 292.6h-65.8c-31.1 0-56.4 25.3-56.4 56.4s25.3 56.4 56.4 56.4h65.8c15.6 0 28.2-12.7 28.2-28.2v-56.4c0-15.6-12.7-28.2-28.2-28.2zm-65.8 75.2a18.8 18.8 0 1 1 0-37.6 18.78 18.78 0 0 1 18.8 18.8c0 10.3-8.5 18.8-18.8 18.8zm69.3-103.4v-28.2c0-16.3-12.8-30.1-29.2-31.4l-3.2-.3h-319c-17.5 0-31.7 14.2-31.7 31.7v225.7c0 17.5 14.2 31.7 31.7 31.7h319.7c17.5 0 31.7-14.2 31.7-31.7v-28.2c0-1.9-1.6-3.5-3.5-3.5h-65.8c-44.7 0-81.1-36.4-81.1-81.1s36.4-81.1 81.1-81.1h65.8c1.9-.2 3.5-1.7 3.5-3.6zm-193-117c12.1 0 23.7 4.8 32.2 13.3 8 8.2 21.1 8.4 29.3.4s8.4-21.1.4-29.3l-.4-.4c-34-34-89.1-34-123 0-8.1 8.1-8.1 21.2 0 29.3s21.2 8.1 29.3 0c8.5-8.6 20.1-13.4 32.2-13.3h0zm131.8-57c8.1-8.1 8.1-21.2 0-29.3-72.8-72.8-190.8-72.8-263.6 0-8.1 8.1-8.1 21.2 0 29.3s21.2 8.1 29.3 0h0c56.6-56.6 148.4-56.6 205.1 0h0c8 8.1 21.1 8.1 29.2 0z"/></svg>