<svg xmlns="http://www.w3.org/2000/svg" viewBox="0 0 500 500" fill="#1e6aff"><path d="M6.5 20.4v194.5a13.87 13.87 0 0 0 13.9 13.9h194.5a13.87 13.87 0 0 0 13.9-13.9V20.4a13.87 13.87 0 0 0-13.9-13.9H20.4A13.87 13.87 0 0 0 6.5 20.4zm190.6 176.7H52.2a13.87 13.87 0 0 1-13.9-13.9v-131a13.87 13.87 0 0 1 13.9-13.9h131a13.87 13.87 0 0 1 13.9 13.9v144.9h0zM83.9 70h67.5a13.87 13.87 0 0 1 13.9 13.9v67.5a13.87 13.87 0 0 1-13.9 13.9H83.9A13.87 13.87 0 0 1 70 151.4V83.9C70 76.3 76.3 70 83.9 70zm187.3-49.6v194.5a13.87 13.87 0 0 0 13.9 13.9h194.5a13.87 13.87 0 0 0 13.9-13.9V20.4a13.87 13.87 0 0 0-13.9-13.9H285.1a13.87 13.87 0 0 0-13.9 13.9zm176.6 176.7h-131a13.87 13.87 0 0 1-13.9-13.9v-131a13.87 13.87 0 0 1 13.9-13.9h131a13.87 13.87 0 0 1 13.9 13.9v131c0 7.6-6.2 13.9-13.9 13.9zM348.6 70h67.5A13.87 13.87 0 0 1 430 83.9v67.5a13.87 13.87 0 0 1-13.9 13.9h-67.5a13.87 13.87 0 0 1-13.9-13.9V83.9c0-7.6 6.2-13.9 13.9-13.9zM6.5 285.1v194.5a13.87 13.87 0 0 0 13.9 13.9h194.5a13.87 13.87 0 0 0 13.9-13.9V285.1a13.87 13.87 0 0 0-13.9-13.9H20.4a13.87 13.87 0 0 0-13.9 13.9zm190.6 176.6H52.2a13.87 13.87 0 0 1-13.9-13.9v-131a13.87 13.87 0 0 1 13.9-13.9h131a13.87 13.87 0 0 1 13.9 13.9v144.9h0zm-113.2-127h67.5a13.87 13.87 0 0 1 13.9 13.9v67.5a13.87 13.87 0 0 1-13.9 13.9H83.9A13.87 13.87 0 0 1 70 416.1v-67.5c0-7.7 6.3-13.9 13.9-13.9zm187.3-49.6v194.5a13.87 13.87 0 0 0 13.9 13.9h35.7a13.87 13.87 0 0 0 13.9-13.9v-3.9a13.87 13.87 0 0 0-13.9-13.9h-3.9a13.87 13.87 0 0 1-13.9-13.9v-35.7a13.87 13.87 0 0 1 13.9-13.9h3.9a13.87 13.87 0 0 0 13.9-13.9v-3.9a13.87 13.87 0 0 0-13.9-13.9h-3.9a13.87 13.87 0 0 1-13.9-13.9V317a13.87 13.87 0 0 1 13.9-13.9h3.9a13.87 13.87 0 0 0 13.9-13.9v-3.9a13.87 13.87 0 0 0-13.9-13.9h-35.7c-7.7-.2-13.9 6-13.9 13.7zm204.5-13.9h3.9a13.87 13.87 0 0 1 13.9 13.9v3.9a13.87 13.87 0 0 1-13.9 13.9h-3.9a13.87 13.87 0 0 1-13.9-13.9v-3.9c-.1-7.7 6.2-13.9 13.9-13.9zm-27.9 190.5h-3.9a13.87 13.87 0 0 0-13.9 13.9v3.9a13.87 13.87 0 0 0 13.9 13.9h35.7a13.87 13.87 0 0 0 13.9-13.9V359.2a13.87 13.87 0 0 0-13.9-13.9h-3.9a13.87 13.87 0 0 0-13.9 13.9v88.6c-.1 7.7-6.3 13.9-14 13.9zm-67.4-190.5h35.7a13.87 13.87 0 0 1 13.9 13.9v3.9a13.87 13.87 0 0 1-13.9 13.9h-35.7a13.87 13.87 0 0 1-13.9-13.9v-3.9a13.87 13.87 0 0 1 13.9-13.9zm35.7 127h-3.9a13.87 13.87 0 0 1-13.9-13.9v-3.9a13.87 13.87 0 0 1 13.9-13.9h3.9a13.87 13.87 0 0 0 13.9-13.9v-3.9a13.87 13.87 0 0 0-13.9-13.9h-35.7a13.87 13.87 0 0 0-13.9 13.9v67.5a13.87 13.87 0 0 0 13.9 13.9h35.7a13.87 13.87 0 0 0 13.9-13.9v-3.9c0-7.9-6.3-14.1-13.9-14.1zm-35.7 63.5h3.9a13.87 13.87 0 0 1 13.9 13.9v3.9a13.87 13.87 0 0 1-13.9 13.9h-3.9a13.87 13.87 0 0 1-13.9-13.9v-3.9c0-7.6 6.2-13.9 13.9-13.9z"/></svg>