<svg xmlns="http://www.w3.org/2000/svg" viewBox="0 0 500 500" fill="#1e6aff" xmlns:v="https://vecta.io/nano"><path d="M459.8 182.6h-78.6c-37.2 0-67.4 30.2-67.4 67.4s30.2 67.4 67.4 67.4h78.6c18.6 0 33.7-15.1 33.7-33.7v-67.4c0-18.6-15.1-33.7-33.7-33.7zm-78.6 89.9c-12.4 0-22.5-10.1-22.5-22.5s10.1-22.5 22.5-22.5 22.5 10.1 22.5 22.5-10.1 22.5-22.5 22.5zM464 148.9v-33.7c0-19.5-15.3-36-34.8-37.5l-3.8-.3h-381c-20.9 0-37.9 17-37.9 37.9v269.5c0 20.9 17 37.9 37.9 37.9h381.8c20.9 0 37.9-17 37.9-37.9v-33.7a4.23 4.23 0 0 0-4.2-4.2h-78.6c-53.4 0-96.9-43.5-96.9-96.9s43.5-96.9 96.9-96.9h78.6c2.2 0 4.1-1.9 4.1-4.2z"/></svg>