<svg xmlns="http://www.w3.org/2000/svg" viewBox="0 0 500 500" xmlns:v="https://vecta.io/nano"><path d="M324.3 149.9l4.7 4.5c-1.5-1.6-3-3.1-4.7-4.5zM182.2 358.6h.2l-.2-.2z" fill="#fff"/><path d="M250 6.5C115.5 6.5 6.5 115.5 6.5 250s109 243.5 243.5 243.5c22.5 0 44.3-3.1 65-8.8L182.4 358.6h-.2v-.2-183.8-42.5h40.5 47.4c22.5 0 40.9 6.4 54.2 17.8 1.6 1.4 3.2 2.9 4.7 4.5L487.3 305c4.1-17.7 6.2-36.1 6.2-55 0-134.5-109-243.5-243.5-243.5z" fill="#03a8f3"/><path d="M487.3 305L329 154.3c13 13.7 20 33 20 56.6 0 47.5-31.1 79.9-78.5 79.9h-28.6v67.8h-59.5L315 484.7c85.5-23.6 152.2-92.8 172.3-179.7zM262.1 183.3h-20.2v56.2h19.5c17.4 0 26.5-11.9 26.5-28.6 0-16.4-9.4-27.6-25.8-27.6z" fill="#0399db"/><path d="M329 154.3l-4.7-4.5C311 138.3 292.7 132 270.1 132h-47.4-40.5v42.5 183.8l.2.2h59.5v-67.8h28.6c47.4 0 78.5-32.4 78.5-79.9 0-23.4-7-42.8-20-56.5zm-67.6 85.2h-19.5v-56.2h20.2c16.4 0 25.8 11.2 25.8 27.6 0 16.8-9 28.6-26.5 28.6z" fill="#fff"/></svg>