<svg xmlns="http://www.w3.org/2000/svg" viewBox="0 0 500 500" xmlns:v="https://vecta.io/nano"><linearGradient id="A" gradientUnits="userSpaceOnUse" x1="250" y1="6.5" x2="250" y2="663.396"><stop offset="0" stop-color="#db4097"/><stop offset=".639" stop-color="#4f286d"/></linearGradient><path d="M214.5 275.7l72.2 61.9-170.9 146.6c-24.9 21.3-63.3 3.7-63.3-29.1V44.9c0-32.7 38.4-50.4 63.3-29.1l170.9 146.5-72.2 61.9c-15.8 13.6-15.8 38 0 51.5zm177-203.2l-104.7 89.8 68.3 58.6c17.8 15.3 17.8 42.9 0 58.2l-68.3 58.6 104.7 89.8c22 18.9 56 3.2 56-25.7V98.3c-.1-29-34-44.6-56-25.8z" fill="url(#A)"/><linearGradient id="B" gradientUnits="userSpaceOnUse" x1="285.552" y1="162.33" x2="285.552" y2="337.67"><stop offset="0" stop-color="#8c2782"/><stop offset=".939" stop-color="#2a1e54"/></linearGradient><path d="M355.1 220.9l-68.3-58.6-72.2 61.9c-15.8 13.5-15.8 37.9 0 51.5l72.2 61.9 68.3-58.6c17.8-15.2 17.8-42.8 0-58.1z" fill="url(#B)"/></svg>