<svg xmlns="http://www.w3.org/2000/svg" xmlns:xlink="http://www.w3.org/1999/xlink" viewBox="0 0 500 500" xmlns:v="https://vecta.io/nano"><symbol id="A" viewBox="-32 -32 64 64"><path d="M32 20.8C32 27 27 32 20.8 32h-41.6C-27 32-32 27-32 20.8v-41.6C-32-27-27-32-20.8-32h41.6C27-32 32-27 32-20.8v41.6z" fill="#ff4800"/><path d="M-18.1-15.2c.2 3.7 3.3 17.7 3.3 17.7 1.2 2.8 2.2 0 2.2 0 3.8-11.5-4-18.2-4-18.2-2-1.2-1.5.5-1.5.5m45.5-2s3.8 2.7 0 3.2c0 0-14.3 1.7-25 11.7 0 0-16 14-22 29.3 0 0-2 0-1.3-3S-16.3 7.8 1.6-8.4c0 0 17.2-15.6 25.8-8.8" fill="#fff"/></symbol><defs><path id="B" d="M6.5 6.5h487v487H6.5z"/></defs><clipPath id="C"><use xlink:href="#B"/></clipPath><g clip-path="url(#C)"><use xlink:href="#A" width="64" height="64" x="-32" y="-32" transform="matrix(7.6094 0 0 7.6094 250 250)"/></g></svg>