<svg xmlns="http://www.w3.org/2000/svg" viewBox="0 0 500 500" xmlns:v="https://vecta.io/nano"><g fill="#27346a"><path d="M395.1 43.3C372.5 17.5 331.8 6.6 279.7 6.6H128.4c-10.6 0-19.8 7.8-21.4 18.3L43.9 424.5c-1.3 7.9 4.8 15 12.8 15h93.4l23.4-148.8-.7 4.6c1.7-10.5 10.7-18.3 21.3-18.3h44.3c87.2 0 155.5-35.4 175.4-137.9.6-3 1.2-6 1.6-8.8-2.5-1.4-2.5-1.4 0 0 6.2-37.9.2-63.7-20.3-87"/><path d="M209.4 116.6c2.5-1.3 5.4-1.9 8.2-1.9h118.6c14.1 0 27.1.9 39.1 2.8 3.4.5 6.7 1.2 10 1.9 4.7 1.1 9.4 2.3 13.9 3.8 5.9 2 11.4 4.2 16.4 6.9 6-37.8 0-63.7-20.5-87-22.6-25.7-63.3-36.6-115.4-36.6H128.4c-10.6 0-19.8 7.8-21.4 18.3L43.9 424.3c-1.3 7.9 4.8 15 12.8 15h93.4l48.7-308.7c1-6 4.9-11.3 10.6-14h0z"/></g><path d="M414 139.1C394 241.6 325.7 277 238.6 277h-44.5c-10.6 0-19.7 7.8-21.3 18.3l-29.2 185.1c-1.1 6.9 4.2 13.1 11.2 13.1h78.7c9.4 0 17.2-6.8 18.7-16l.7-4 14.8-94.1.9-5.1c1.5-9.2 9.4-16 18.7-16h12c76.3 0 136-31 153.4-120.6 7.3-37.4 3.5-68.7-15.8-90.7-5.9-6.6-13.1-12.2-21.5-16.6-.3 2.7-.8 5.7-1.4 8.7h0z" fill="#2790c3"/><path d="M394.7 121.9l-9.5-2.4c-3.4-.7-6.6-1.4-10-1.9-12-1.9-25.1-2.8-39.1-2.8H217.6c-2.8 0-5.7.6-8.2 1.9-5.7 2.7-9.6 8-10.5 14.2l-25.2 159.8-.7 4.6c1.7-10.5 10.6-18.3 21.3-18.3h44.5c87.2 0 155.4-35.4 175.4-137.9.6-3 1.1-6 1.6-8.8-5-2.6-10.5-4.9-16.4-6.9-1.7-.6-3.2-1-4.7-1.5" fill="#1f264f"/></svg>