<svg xmlns="http://www.w3.org/2000/svg" viewBox="0 0 500 500" xmlns:v="https://vecta.io/nano"><path d="M150.9 480.5h-10c-.7 0-1.2-.6-1-1.3l5.5-23.9c.3-1.1-1.2-1.8-1.9-.8l-9.5 14.4c-.2.3-.5.5-.9.5h-7c-.5 0-.9-.3-1-.8l-3.1-15.5c-.2-1.1-1.8-1.1-2 0l-6.1 26.6c-.1.5-.5.8-1 .8h-9.4c-.7 0-1.2-.6-1-1.3l10.4-45c.1-.5.5-.8 1-.8h12.3c.5 0 .9.3 1 .8l4.5 20.5c.2.9 1.4 1.1 1.9.4l14.3-21.2c.2-.3.5-.5.9-.5h12.5c.7 0 1.2.6 1 1.3l-10.4 45c-.1.4-.5.8-1 .8zm24.7 13h-10c-.8 0-1.3-.9-.9-1.6l7.8-11.8c.1-.2.2-.5.2-.7l-5.6-33.2c-.1-.6.4-1.2 1-1.2h9.5c.5 0 1 .4 1 .9l2.6 19.4c.1 1 1.4 1.2 1.9.4l11.7-20.1c.2-.3.5-.5.9-.5h9.6c.8 0 1.3.9.9 1.6L176.5 493c-.2.3-.5.5-.9.5z" fill="#27346a"/><path d="M249.7 481.4c-6.4 0-11.3-1.6-14.7-4.7-3.5-3.1-5.2-7.6-5.2-13.4 0-4.6.8-8.8 2.3-12.5 1.5-3.8 3.6-7 6.3-9.7 2.6-2.7 5.7-4.7 9.4-6.2s7.5-2.2 11.5-2.2c3.2 0 6.3.3 9 1 2.5.6 4.8 1.4 6.8 2.5.4.2.6.7.5 1.2L273 448h-1c-.3 0-.5-.1-.7-.3-1.9-2-3.8-3.5-5.7-4.4-2-1-4.3-1.5-7-1.5-4.7 0-8.6 1.9-11.6 5.7s-4.6 8.6-4.6 14.4c0 3.8.8 6.5 2.5 8.2s4.1 2.5 7.4 2.5a19.23 19.23 0 0 0 8.2-1.8c2.4-1.1 4.8-2.5 7-4.3.2-.1.4-.2.6-.2h.9l-2.6 10.7c-.1.3-.3.6-.6.7-.8.3-1.8.7-2.8 1.2-1.3.5-2.5 1-3.6 1.3-1.5.4-2.9.8-4.3 1-1.2.1-3 .2-5.4.2zm46.3-2.2c.2-.9-.8-1.6-1.6-1.1-.1.1-.3.2-.5.3-1 .7-2 1.2-2.8 1.6-1.2.5-2.3.9-3.3 1.1-1 .3-2.5.4-4.3.4-3 0-5.4-.8-7.2-2.5-1.9-1.7-2.8-3.8-2.8-6.5 0-2.8.7-5.2 2-7.1 1.3-2 3.3-3.5 5.9-4.7 2.4-1.1 5.4-1.9 8.7-2.4 3.4-.5 7-.8 11-1.1 0-.1.1-.3.1-.6.1-.3.1-.6.1-1 0-1.5-.7-2.5-2.1-3.1s-3.5-.9-6.2-.9c-1.9 0-3.9.3-6.2.9s-4 1.2-5.1 1.6h-1l1.5-7.8c.1-.4.4-.7.8-.8 1.3-.3 3.1-.6 5.5-1a58.99 58.99 0 0 1 8.3-.6c5.6 0 9.6.7 12.2 2.2s3.9 3.7 3.9 6.8c0 .4 0 1-.1 1.6-.1.7-.2 1.3-.3 1.8l-5.4 23.3c-.1.5-.5.8-1 .8H297c-.7.1-1.2-.5-1-1.2h0zm3.3-14.1c.2-.7-.4-1.3-1.1-1.3-1.5.1-2.9.3-4.3.5a21.66 21.66 0 0 0-4.5 1c-1.3.5-2.3 1.1-3 2-.7.8-1 2-1 3.4 0 1.2.4 2.1 1.4 2.6.9.5 2.2.7 3.9.7 1.1 0 2.3-.3 3.6-.8 1.2-.5 2.2-1 3.3-1.7.2-.1.4-.4.4-.6l1.3-5.8zm31.8 16.4c-3 0-6-.3-8.8-.9-2.4-.5-4.3-1-5.7-1.6-.5-.2-.7-.7-.6-1.2l2-8.5h1c.5.4 1 .8 1.8 1.3.7.5 1.7 1 3 1.5 1.1.5 2.4.9 3.9 1.2s3.1.5 4.8.5c2.6 0 4.5-.3 5.7-.9 1.3-.6 1.9-1.4 1.9-2.5 0-.8-.5-1.5-1.4-1.9s-2.8-1-5.6-1.6c-4.8-1.1-8.1-2.5-9.9-4-1.8-1.6-2.7-3.6-2.7-5.9 0-4 1.8-7.2 5.4-9.5s8.4-3.5 14.5-3.5c2.7 0 5.3.3 8 .8 2.1.4 3.8.9 5 1.4.5.2.7.7.6 1.2l-1.9 8.1h-1c-2.3-1.8-5.3-3-9-3.8h-.2c-3.8-.3-6.6 0-8.4.8-1.3.6-1.9 1.5-1.9 2.7 0 .9.6 1.6 1.7 2.1s2.9 1 5.3 1.5c4.5 1 7.7 2.2 9.7 3.7s3 3.5 3 6.2c0 4-1.8 7.1-5.4 9.4-3.7 2.2-8.6 3.4-14.8 3.4zm66.3-28.5c0 .5 0 1.2-.1 2l-.4 2.4-5.1 22.3c-.1.5-.5.8-1 .8h-9.4c-.7 0-1.2-.6-1-1.3l3.8-16.3.7-3.4c.2-.9.3-1.8.3-2.5 0-1.4-.4-2.4-1.1-3s-2-.9-3.8-.9c-.9 0-1.9.2-3.1.6-1.1.4-2.2.9-3.5 1.5-.3.1-.5.4-.5.7l-5.5 23.9c-.1.5-.5.8-1 .8h-9.3c-.7 0-1.2-.6-1-1.3l10.9-47.1c.1-.5.5-.8 1-.8h9.3c.7 0 1.2.6 1 1.3l-3.2 13.9c-.2.9.8 1.6 1.5 1.1l4.3-2.3c1.9-.9 4.1-1.3 6.4-1.3 3.2 0 5.7.8 7.5 2.4 1.4 1.4 2.3 3.6 2.3 6.5z" fill="#2790c3"/><g fill-rule="evenodd"><path d="M414.2 172.5c-6.5-15.7-16.3-28.9-30.1-39-.3 2.2-.5 4.3-.9 6.5-4.9 27.5-17.7 50.6-39.1 68.7-21.2 18.1-45.9 27.1-73.8 27.4h-70.6-4.1c-.3 1.7-.6 3.2-.8 4.7l-6.2 44.8-5.7 40.5-4.7 32.8c-.3 1.9-1 2.8-3.2 2.7-4.4-.2-8.8 0-13.1 0l-6.1 34.7c-.8 4.6 1.5 7.7 6.1 8.8 1.4.1 2.8.3 4.2.3h70.8c1.3 0 2.6-.2 3.9-.3 4.1-1.2 5.9-3.4 6.4-7.6l4.4-31.1 6.3-44.4 2.8-18.8h3.9 59.5c16.8 0 32.7-4.1 47.4-12.1 42.8-23.3 61.1-74.2 42.7-118.6z" fill="#179bd6"/><path d="M384.3 113.9c-1.8-23.6-9.5-45.1-24.5-63.6C337.8 23 309.1 7.7 274 7c-46.5-.9-93-.3-139.6-.3-4.8 0-7.5 2.4-8.2 7.1l-8 55.8L103.1 178l-10.4 73.3L78.8 351c-.9 6.4 2.3 10.1 8.8 9.9.6-.1 1.3-.3 1.9-.5-.6.1-1.3.3-1.9.5l52.9.1 21.3.2-.1.1.1.1c4.4 0 8.8-.2 13.1 0 2.2.1 2.9-.8 3.2-2.7l4.7-32.8 5.7-40.5 6.2-44.8c.2-1.5.5-3 .8-4.7h4.1 70.6c27.8-.2 52.5-9.3 73.8-27.4 21.3-18.2 34.2-41.2 39.1-68.7.4-2.2.6-4.3.9-6.5.2-6.3.8-12.9.3-19.4z" fill="#253b80"/></g></svg>