<svg xmlns="http://www.w3.org/2000/svg" viewBox="0 0 483.65 483.58" xmlns:v="https://vecta.io/nano"><path d="M483.65 241.56c-.16 133.89-108.22 242.2-242.13 242C109.07 483.39-.22 377.34 0 241.53.22 107.05 107.15.2 241.57 0c135.76-.2 241.59 109.07 242.08 241.56zM178.51 306c1.51.72 2.11.95 2.65 1.28 24.92 15.09 51.67 20.16 80.46 15.42 55.94-9.21 99.33-64.12 90.93-123.24-8.92-62.8-70.65-103.48-127-94.12-53.89 9-94.28 54.35-94.81 110.19v138.94a40 40 0 0 0 1.28 9.33c2.74 11.21 17.52 20.93 29.86 16.09 10.26-4 16.55-12.19 16.63-24.15V306z" fill="#7633ff"/><path d="M178.51 306v49.74c-.08 12-6.37 20.12-16.63 24.15-12.36 4.81-27.14-4.89-29.88-16.12a40 40 0 0 1-1.28-9.33V215.5c.53-55.84 40.92-101.22 94.81-110.19 56.33-9.36 118.06 31.32 127 94.12 8.4 59.12-35 114-90.93 123.24-28.79 4.74-55.54-.33-80.46-15.42-.52-.33-1.14-.56-2.63-1.25zm61.84-27.11c34.74 1.54 65.91-30.74 65.53-64.25-.41-35.43-29.8-64.8-65.47-65.16-29.93-.31-65.25 24.06-65.49 64.59-.24 39.3 33.92 66.1 65.43 64.79z" fill="#fff"/><path d="M240.35 278.86c-31.51 1.31-65.67-25.49-65.43-64.82.24-40.53 35.56-64.9 65.49-64.59 35.67.36 65.06 29.73 65.47 65.16.38 33.51-30.79 65.79-65.53 64.25Z" fill="#7633ff"/></svg>