<svg xmlns="http://www.w3.org/2000/svg" viewBox="0 0 500 500" fill="#e21f26"><path d="M116.1 165.7c6.1-2.7 12.2-4.8 18.3-6.1C145.6 106 193.1 65.8 250 65.8s104.4 40.3 115.6 93.8c17.5 3.3 31.9 10.4 43.2 20.9.5-10.3 0-20.2-1.2-29.5C400.4 70 332.5 6.5 249.8 6.5c-85.2 0-154.6 67.6-158.2 152-.5 7.3-.6 14.9-.4 22.8 7.1-6 15.3-11.4 24.9-15.6m226.4 12H152.6c-9.1 0-18.6 2.1-28.4 6.5-9.4 4.1-17.1 9.1-23.3 15-11.8 14.2-17.8 34.9-18.2 62.1v148.5c.4 27.3 6.5 48 18.2 62.1 6.2 6 13.9 11 23.3 15.1 9.8 4.3 19.2 6.4 28.4 6.4h189.9c49.1-.4 74-27.4 74.8-80.6V258.2c-.8-53.2-25.7-80.1-74.8-80.5"/></svg>