<svg xmlns="http://www.w3.org/2000/svg" viewBox="0 0 500 500"><path d="M491.94 218.78c-4.5-12.6-16.5-21.7-30.7-21.7h-.3c-9.2 0-17.5 3.9-23.4 10-6-6.2-14.2-10-23.4-10h-.3a32.41 32.41 0 0 0-21.1 7.8v-2.5c-.3-2.4-2.3-4.4-4.8-4.4h-21.6c-2.7 0-4.8 2.2-4.8 4.8v117.9c0 2.7 2.2 4.8 4.8 4.8h21.7c2.4 0 4.4-1.8 4.8-4.2v-84.6-.9c.3-3.8 3.1-6.8 7.4-7.2h.8 2.3.9c1.8.2 3.4.8 4.6 1.8 1.9 1.5 3 3.8 3 6.4l.1 84.2c0 2.7 2.2 4.9 4.8 4.9h21.7c2.6 0 4.7-2.1 4.8-4.6v-84.5c0-2.8 1.3-5.3 3.6-6.7 1.1-.7 2.5-1.2 4-1.3h.8 2.3.9c4.7.4 7.5 4 7.5 8.1l.1 84.1c0 2.7 2.2 4.8 4.8 4.8h21.7c2.7 0 4.8-2.2 4.8-4.8v-90.6c-.1-6.3-.8-8.9-1.8-11.6m-146.993-20.495h-12.5v-20.1h0v-.1c0-2.4-2-4.4-4.4-4.4-.3 0-.6 0-.8.1-13.8 3.8-11 22.8-36.1 24.5h-.6-1.9c-.4 0-.7.1-1.1.1h0 0c-2.2.5-3.8 2.4-3.8 4.7v21.7c0 2.7 2.2 4.8 4.8 4.8h13.2v92.1c0 2.6 2.1 4.8 4.8 4.8h21.4c2.6 0 4.8-2.1 4.8-4.8v-92.1h12.2c2.7 0 4.8-2.2 4.8-4.8v-21.8c0-2.5-2.2-4.7-4.8-4.7" fill="#54c1f0"/><g fill="#233266"><path d="M266.798 198.285h-21.7c-2.7 0-4.8 2.2-4.8 4.8v44.8c-.1 2.8-2.3 5-5.1 5h-9.1c-2.8 0-5.1-2.3-5.1-5.1l-.1-44.8c0-2.7-2.2-4.8-4.8-4.8h-21.7c-2.7 0-4.8 2.2-4.8 4.8v49.2c0 18.7 13.3 32 32 32l14.5.1c2.6.3 4.5 2.4 4.5 5.1 0 2.6-1.9 4.7-4.5 5.1-.1 0-.2.1-.4.1l-31.8.1c-2.7 0-4.8 2.2-4.8 4.8v21.7c0 2.7 2.2 4.8 4.8 4.8h35.5c18.8 0 32-13.3 32-32v-91c.2-2.5-2-4.7-4.6-4.7M56.62 238.089v10.1 3.3c0 2.8-2.3 5.1-5.1 5.1h-13.8v-26.9h13.8c2.8 0 5.1 2.3 5.1 5.1v3.3zm2-39.8h-47.4c-2.6 0-4.7 2.1-4.7 4.7v21.2.1.3 68.3 28.1c0 2.6 2 4.8 4.4 4.8h.4 21.7c2.7 0 4.8-2.2 4.8-4.8l.1-33h20.7c17.4 0 29.5-12.1 29.5-29.5v-30.7c-.1-17.4-12.2-29.5-29.5-29.5"/><path d="M146.741 289.098v3.4c0 .3 0 .5-.1.8-.1.2-.1.5-.2.7-.7 1.9-2.6 3.3-4.9 3.3h-9c-2.8 0-5.2-2.2-5.2-4.8v-4.1-.2-10.9h0v-1.2-2.2h0c0-2.6 2.3-4.8 5.1-4.8h9c2.9 0 5.2 2.2 5.2 4.8l.1 15.2h0zm-3.5-90.7h-30.2c-2.7 0-4.9 2-4.9 4.5v8.4.2.2 11.6c0 2.6 2.3 4.8 5.1 4.8h28.7c2.3.4 4.1 2 4.4 4.6v2.8c-.3 2.5-2 4.3-4.2 4.5h-14.2c-18.9 0-32.3 12.6-32.3 30.2v24.6.6c0 17.6 11.6 30 30.4 30h39.4c7 0 12.8-5.4 12.8-11.9v-82.4c-.1-20.1-10.4-32.7-35-32.7"/></g></svg>