<svg xmlns="http://www.w3.org/2000/svg" viewBox="0 0 500 500" fill-rule="evenodd"><circle cx="250" cy="250" r="243.5" fill="#ef1111"/><path d="M331.5 319l2.5-4.2 25.2-50.3 32.2-65.9c4.3-8.8 7.9-17.7 9-27.3h13.9l29.6-.6c2.6-.1 2.9 1.2 3.1 3.1.1 1.9.1 3.5-2.6 3.8-4.4.4-8.7 1.2-13 2.1-5.1 1.1-8 4.7-8.9 9.6-.8 3.8-1.2 7.8-1.2 11.8-.6 41.4 1.3 82.7 3.1 124 .2 3.8.3 7.7.8 11.4.8 6.1 4.2 9.6 10.2 10.6 3.1.6 6.2.7 9.3.9 2.6.2 3.2 1.7 3 4-.2 2.4-1 3.4-3.7 3.3l-43.1-1c-6.3-.1-12.7.6-19.1 1-3.1.3-3.5-1.5-3.8-3.7-.3-2.3.6-3.5 3-3.6 3.2-.3 6.5-.5 9.7-1 6.2-.9 9.5-4.2 9.5-10.4l.1-45.2-.6-80c0-.8-.1-1.6-.1-2.9-.6.8-1 1.1-1.3 1.6l-66.6 134.5c-1.7 3.4-2.9 7.1-4.7 10.4-.5 1-2.1 1.9-3.2 1.9-.9 0-2.3-1.1-2.7-2.1l-23-51.7-42.1-91.9c-.6-1.2-1.2-2.4-2.5-3.3l-.7 13.3-3.7 100.4c-.2 5.4.2 10.9 1 16.3.8 5.9 3.3 8.3 9.3 9.2 3.4.6 6.9.8 10.4.9 2.7.1 3.7 1.7 3.5 4.1-.1 2.6-1.7 3.2-4.3 3.1-17.9-.1-35.9-.1-53.8 0-2.9 0-4-.8-4.2-3.5-.3-2.9 1.2-3.6 3.5-3.9 3.1-.4 6.2-.9 9.3-1.6 5.6-1.3 9-4.8 9.9-10.4 1.4-8.6 3.1-17.1 3.7-25.7l5.2-99.6c.3-6.9.3-13.9-.1-20.8-.3-5.1-3.4-8.5-8.6-9.7-3.8-.9-7.7-1.9-11.5-2.4-2.4-.3-3.3-1.5-2.9-3.6.3-1.9.9-3.3 3.5-3.3l43 .1c.4 3.5.6 7 1.3 10.5 2.4 12.3 7.9 23.5 13.3 34.6l49 99.3c.3 1.2 1 2.2 1.9 3.8z" fill="#fefbfb"/><path d="M52.4 270.2l36 1.9c20 .8 40.1 1.5 59.9-3 22.7-5.2 35.5-21.4 35.1-44.7-.1-6-.6-12.1-2.2-17.8-4.5-16.3-15.9-25.2-32.2-27.7-6.6-1-13.4-.8-20.1-.8-4 0-5.6 1.7-6.3 5.6-.2 1.1-.1 2.3-.1 3.5v76.2c0 .8-.1 1.6-.1 2.8H99.7v-4.4l-.5-66.1c-.3-12.9-2.6-14.9-15.5-16.6-1-.1-2.1-.1-3.1-.3-2.5-.4-5.7.1-5.8-3.9-.1-3.1 1.3-4 6.1-4.3 5.6-.3 11.3-.8 17-.9l52.8.2c9 .1 17.7 2.2 26.1 5.4 19.5 7.3 29.7 21.9 32.4 42 1.7 12.4-.6 24.4-8.3 34.6-2.5 3.3-5.8 6.3-9.1 8.9-15.6 11.8-33.6 16.5-52.7 18.4-26 2.6-51.6-.6-76.9-5.8l-9.2-1.9c-.2-.4-.2-.5-.6-1.3z" fill="#fefafa"/><path d="M99.7 286.8l23 1v3.7l.6 41.3c.4 10.9 4.7 15 15.6 16.2 2.8.3 5.5.7 8.3.8 3 .1 2.9 2.2 2.8 4.2-.1 1.9-.7 3.5-3.4 3.3-22.5-1.4-45.2-1.6-67.7-.1-2.6.2-3.3-1.1-3.5-3.2-.1-2 .1-4 2.9-4.2 3.1-.3 6.2-.7 9.3-1.3 6.5-1.4 10.4-5.3 10.7-11.9.8-13.3 1-26.6 1.5-39.9-.1-3.3-.1-6.6-.1-9.9z" fill="#fefbfb"/></svg>