<svg xmlns="http://www.w3.org/2000/svg" viewBox="0 0 500 500" fill="#0076b6" xmlns:v="https://vecta.io/nano"><path d="M171.1 285.1v49.1c-.3 22.2 3.1 19.4-19.4 19.6-14.9.1-29.8-.3-44.6.1-7.4.3-10.5-1.8-10.5-9.9.4-64.8-1.9-129.8.9-194.6C100.3 84 141.8 29.9 209.9 12.8c43.8-11 87.1-8.4 126.9 15 48.3 28.3 72.7 71.6 75.8 126.8 3.1 54.7-15.8 100.4-59.9 133.9-46.9 35.7-124 43.3-173.8 1.1-1.7-1.4-3.7-2.1-7.8-4.5zm85.7-205.5c-54.9-2-86.6 35-87 82.5-.4 49.6 34.9 82.9 85.4 84.2 49.4 1.4 84.5-33 84.9-83.6.5-47.7-31.9-85.7-83.3-83.1zm-76.3 365.6c2.4 22.4-17.1 47.6-47.2 48.3-26.2.6-46.4-21.2-46.3-48.8.1-26.9 19.4-45.6 46.3-45.9 27-.4 49.6 22.5 47.2 46.4z"/></svg>