<svg xmlns="http://www.w3.org/2000/svg" viewBox="0 0 500 500"><path d="M396.4 62c-3.7-2.3-8.2-3.2-12.5-4.8 13.3 12.1 28.4 21.1 38.6 35.7-16-9.4-28.6-24.3-47.6-28.2 12.4 9.3 26 17.1 34.5 30.7l-30.6-19.3c-1.6-.2-3.2-.3-4.8-.5l-.3 1.4c1.2.4 2.5.7 3.7 1.1 15.4 14.3 33.4 25.8 43.5 45.5l-9.8-8.2-23.4-21.2c-.8 1-1.6 1.9-2.5 2.9l23.3 20.8c24.1 26.4 40.6 56.4 43.5 92.7h-3c-9.1-52.1-53.7-113.2-84.6-114.6 44.3 32.1 77.3 70.4 79.2 127.7-1.1 0-2.3.1-3.4.1-5.6-50.4-29.2-89.7-72.4-116.9-1.1.1-2.2.1-3.3.1.6.7 1.1 1.4 1.7 2.2l29.4 30.2c-.8.8-1.5 1.6-2.3 2.4 6.4 8.6 6.3 8.6-.1 0-18.5-17-18.5-17-25.8-16.4 27.1 23.8 49.4 50.3 51.9 88.5-8.3-29.3-23.1-54.5-47-73.9-.8-.7-1.5-1.5-2.3-2.2-.7-.6-1.3-1.1-2.1-1.7l.1-.1c-.7-.6-1.3-1.3-1.9-1.9-1-.6-2-1.3-3-1.9l-2.4-.9 1.6 1.9 1.9 2.5c.7.8 1.3 1.5 2 2.2l-.1.1 2.2 2.2 2.2 2.2 8.9 11.1c19.2 22.9 31.9 48.5 33.2 78.9H409c-3.5-30.4-25.2-69.1-40.4-74.7 8.3 15.2 19 31 26 48.4 7.4 18 6.8 37.6 3.8 57.9-2.5-17.8-3.5-34.5-7.5-50.5-4-16.5-13.2-30.5-27.3-40.6 20.4 28.3 27.7 59.6 21.7 93.5-1.6 9.1-4 17.9-7.2 26.3-20.6 55.4-72.2 95.5-132.8 101.2-9.6.9-18.9.8-27.9-.2-53.1-6-94.4-44.2-100.4-98.8-6.2-56.4 16.6-101.4 62.7-134.3 19.2-13.8 40.6-23 65.3-26.4l-2 20.8 109.2-58.9-85.6-88.6-6 20.8c-.7 0-23.7 6.1-24.4 6.3-96.5 18.5-162.9 75.7-202.3 163.2-29.1 64.5-29.6 131.3 4.8 195.1 38.2 70.7 127.2 111.2 211.1 99.6 23.4-3.2 46.4-9.4 68.4-18.4 77.6-31.5 141.8-96.7 163.5-181.3a253.54 253.54 0 0 0 7.6-49.8c3.9-77.6-26.2-139-92.9-181z" fill="#354b9f"/></svg>