<svg xmlns="http://www.w3.org/2000/svg" viewBox="0 0 500 500" xmlns:v="https://vecta.io/nano"><circle cx="1606.3" cy="227.4" r="237" fill="#f4e118"/><path d="M1435.9 195.1c2.3-.9 4.9-1.3 7.3-1.3 4.9 0 9 1.5 12 4.5 3.2 3 4.9 7.3 5.4 12.5.4 3.7 0 7.9-1.1 12.1-.9 4.3-2.4 8-4.5 11.2-2.2 3.9-5.2 6.9-9 9-3 1.9-6.3 2.8-10.1 3.2v-7.5c1.3-.4 2.6-.9 3.7-1.5 2.4-1.5 4.5-3.7 6.2-6.7s3-6.2 3.9-9.7c.9-3.6 1.1-6.9.9-10.1-.4-3.4-1.5-6-3.4-8-2.1-2.1-4.7-3-7.7-3-1.3 0-2.6.2-3.7.6.1-.1.1-5.3.1-5.3zm-33 69.1l12.9-56.6 1.1-6.5.6-6.5h9l-.8 7.7c2.8-2.8 5.6-5 8.4-6.4.6-.4 1.3-.6 1.9-.7v5.2c-1.3.4-2.6 1.1-3.9 1.9-2.4 1.7-4.5 4.1-6 7.1-1.7 3-3 6.5-3.9 10.5-.9 4.1-1.1 7.3-.9 9.9.2 3 1.3 5.2 3.2 7.1 1.9 1.7 4.3 2.6 7.3 2.6 1.5 0 3-.2 4.3-.6v7.5h-1.7c-3.5 0-6.3-.7-9-2.1-2.4-1.3-4.7-3.4-6.5-6l-6 26-10-.1h0 0 0zm272.8-61.7c-1.1 0-2.1.2-3.2.4v-7.3c.6-.2.9-.4 1.3-.6 2.6-1.3 5.6-1.9 8.8-1.9 4.9 0 8.8 1.5 11.6 4.3s4.5 6.9 4.9 12.3c.9 10.1-.9 18.7-5.8 25.6-4.7 7.1-11 10.7-18.9 10.7-.6 0-1.3-.2-1.9-.2v-9.7c1.1-.2 2.2-.7 3.2-1.5 1.7-1.3 3-3.2 4.3-5.8 1.3-2.8 2.4-6 3.2-9.3.7-3.4.9-6.2.7-8.6-.2-2.8-1.1-4.9-2.4-6.2-1.5-1.4-3.4-2.2-5.8-2.2zm-3.2.4c-3 .9-5.6 3.4-7.7 6.9-3 5-4.1 10.7-3.5 16.8.4 3.2 1.1 5.6 2.8 7.3 1.5 1.7 3.6 2.6 6.2 2.6.8 0 1.5-.2 2.3-.4v9.7c-2.8-.2-5.2-.9-7.3-2.1-2.6-1.3-4.7-3.6-6.2-6.4l-6 26.7h-15.5l12-54.2c1.5-6.9 2.4-12.1 2.8-15.5h14l-.4 6.2c2.2-2.1 4.3-3.7 6.5-5v7.4h0 0zM1734 221c-.4-.2-.7-.2-1.1-.2h-1.7c-2.4 0-4.7.2-6.5.7v-8.2c2.1-.2 4.5-.2 6.9-.2h2.6 1.7c.4-1.9.7-3.2.7-4.3.2-.9.2-1.7.2-2.4-.2-1.5-.7-2.6-1.9-3.4-.9-.7-2.4-1.1-4.3-1.1-2.2 0-3.9.6-5 1.5-.4.4-.7.6-.9 1.1V194c1.9-.4 3.9-.4 6-.4 6.5 0 11.4.9 15 3.2 3.4 2.2 5.2 5.4 5.6 9.7.2 1.3.2 2.6 0 4.1-.2 1.3-.6 3-.9 4.7l-3.9 17.2c-.6 2.1-.7 4.1-1.1 6.4-.2 2.2-.2 4.3-.2 6.5H1731v-3.6c0-1.4.2-2.4.2-3.7-1.9 2.6-4.1 4.7-6.3 5.8V236c1.5-.7 3-1.9 4.5-3.6 2.2-2.8 3.8-6.7 4.6-11.4zm-9.4.6c-2.1.6-3.7 1.3-5.2 2.4-3.2 2.1-4.5 4.7-4.1 7.7 0 1.7.6 3 1.7 3.9.9.9 2.2 1.3 3.9 1.3 1.3 0 2.6-.2 3.7-.7v7.9l-.4.2c-2.4 1.3-5 2.1-8.2 2.1-4.5 0-8-1.3-10.8-3.7s-4.3-5.6-4.7-9.7c-.6-6.4 1.9-11.2 7.1-14.6 4.1-2.6 9.7-4.3 17-4.9v8.1h0zm0-27.5v10.5c-.7.9-1.1 2.2-1.5 3.7h-14.8c.4-4.7 2.6-8.2 6.3-10.8 2.9-1.7 6.1-2.8 10-3.4zm29.2 69.9l12.3-18.7-8.9-51.2h15.3l4.3 35.2 19.8-35.2h14.6l-31.8 53.3-9.2 16.6zm-263.9-64.6c-1.3 0-2.4.2-3.7.6v-6.5c1.5-.2 3.2-.2 4.9-.2 6 0 10.7 1.5 14.2 4.3 3.7 3 5.6 7.1 6.2 12.3.4 4.1 0 8.6-1.3 13.3-1.1 4.7-2.8 8.8-5 12.1-2.6 3.9-5.6 6.7-9.3 8.4-2.6 1.3-5.8 2.1-9.5 2.4v-6.5c1.5-.4 3-.9 4.1-1.7 2.2-1.3 4.1-3.4 5.8-6.2 1.9-3.2 3.2-6.7 4.1-10.7.9-4.1 1.3-7.5 1.1-10.5-.4-3.9-1.5-6.7-3.4-8.4-2-1.8-4.6-2.7-8.2-2.7zm-3.7.5c-1.3.4-2.8.9-4.1 1.7-2.2 1.7-4.3 3.9-6 6.9-1.7 2.8-3 6.2-3.9 10.3s-1.1 7.7-.9 10.7c.2 3.4 1.5 5.8 3.4 7.7 2.1 1.9 4.7 2.8 8 2.8 1.3 0 2.4-.2 3.6-.4v6.5c-1.3 0-2.8.2-4.3.2-6 0-10.8-1.5-14.4-4.7-3.7-3-5.8-7.3-6.2-12.7-.4-4.5 0-9 1.5-13.8 1.3-4.9 3.2-9 5.8-12.5 2.4-3.2 5.4-5.4 9.2-7.1 2.4-.9 5.4-1.7 8.4-2l-.1 6.4h0 0zm35.5 28.8c-.4.9-.6 1.7-.6 2.4-.2.7-.2 1.3 0 1.9.2 2.1.9 3.6 2.4 4.5 1.5 1.1 3.6 1.5 6.5 1.5 3.9 0 6.9-.8 9.2-2.2 2.2-1.7 3.2-3.7 3-6.2 0-1.5-.8-2.8-2.1-3.9s-3.9-2.6-8-4.5c-5.2-2.4-9-4.7-11-6.7-2.2-1.9-3.4-4.3-3.5-6.9-.4-4.5 1.3-8 4.9-11 3.7-2.8 8.8-4.3 15.1-4.3 5.8 0 10.1.9 12.9 2.6 3 1.7 4.5 4.1 4.9 7.7v1.9c0 .6 0 1.5-.2 2.8h-9.2v-1.5-1.3c-.2-1.9-.9-3.4-2.4-4.3-1.3-.9-3.4-1.5-6.2-1.5-3.2 0-5.6.8-7.3 2.1-1.9 1.3-2.6 3.2-2.4 5.4.2 1.3.8 2.6 2.1 3.5 1.1 1.1 3.9 2.6 8.2 4.7 6 2.8 10.1 5.2 11.8 7.1a11.75 11.75 0 0 1 3 7.1c.4 4.7-1.5 8.8-6 12-4.3 3.2-10.1 4.9-17.2 4.9-5.6 0-9.9-1.1-13.3-3-3.2-2.1-4.9-4.9-5.2-8.6-.2-.8-.2-1.7 0-2.8.2-.9.4-2.1.6-3.2l10-.2h0 0zm61.5 16.8l-5 .6-4.3.2c-3.7 0-6.5-.6-8.2-1.9-1.9-1.1-2.8-3.2-3-6-.2-.9 0-2.6.2-4.7.2-2.2.7-4.5 1.1-6.9l5.8-25.4h-9.3l1.7-6.5h9.2l2.6-11.6 9.9-2.4-3 14h11l-1.5 6.5h-11l-5.6 26.5c-.6 2-.9 3.5-.9 4.5-.2 1.1-.4 1.9-.2 2.4 0 1.5.6 2.4 1.5 3 .9.7 2.6 1.1 4.9 1.1.7 0 1.9-.2 3-.4.9 0 2.1-.4 3-.6l-1.9 7.6zm32.3-31.4h12.7l.4-3.9c.2-.9.2-1.7 0-2.4-.2-2.8-1.3-4.9-3.2-6.4-2.1-1.5-4.7-2.4-8-2.4-.6 0-1.3.2-1.9.2V193h2.1c6.5 0 11.6 1.3 15 3.7 3.2 2.4 5.2 6.4 5.6 11.8.2 1.9.2 3.9 0 6 0 2.1-.4 4.3-.9 6.5h-21.7l-.1-6.9h0zm0 31.8v-7.7c1.1-.4 2.2-.9 3.2-1.5 2.2-1.5 3.9-3.7 4.9-6.5h11c-1.3 5-4.1 9-8.4 11.8-3 2-6.6 3.3-10.7 3.9zm-13.1-31.8h13.1v6.9h-14.8c-.6 1.5-.7 2.8-.9 4.3-.2 1.3-.2 2.6-.2 3.7.4 3.2 1.5 5.6 3.4 7.3 2.1 1.7 4.7 2.6 8.2 2.6 1.5 0 3-.2 4.3-.8v7.7c-1.7.2-3.6.4-5.4.4-6 0-10.6-1.5-14.2-4.3-3.4-2.8-5.4-6.9-5.8-12.1-.4-3.9 0-8.4 1.3-13.5 1.1-4.9 3-9.1 5-12.7 2.2-3.4 5.2-6.2 8.8-7.8 3-1.7 6.4-2.4 10.3-2.8v6.2c-3 .4-5.6 1.5-7.7 3.7-2.6 2.4-4.4 6.2-5.4 11.2z" fill="#0458a2"/><path d="M493.5 447.3c0 25.4-20.8 46.2-46.2 46.2H52.7c-25.4 0-46.2-20.8-46.2-46.2V52.7c0-25.4 20.8-46.2 46.2-46.2h394.5c25.4 0 46.2 20.8 46.2 46.2v394.6z" fill="#f4e118"/><g fill="#2d54a5"><path d="M101.3 336.6h0 0z"/><path d="M101.3 336.6h0-.1z"/><path d="M242.1 206.2c-1.3-12.8-5.4-23.2-13.2-30.5-7.3-7.3-17.3-10.9-29.2-10.9a50.14 50.14 0 0 0-9.5.9c-1.5.3-3 .6-4.5 1-1.6.4-3.1 1-4.6 1.5-.7.2-1.3.5-2 .7-1.5.6-2.9 1.4-4.2 2.1s-2.6 1.5-3.8 2.3c-2.7 1.7-5.2 3.7-7.6 5.8-1.1 1-2.3 2-3.3 3-.6.5-1.1 1.1-1.7 1.6-.3.3-.6.5-.8.8l-.4.4c-.1.1-.4.3-.4.4l1.8-18.7h-21.9l-1.4 16-2.7 15.9-31.4 138.1h24.1l14.6-63.4c4.6 6.4 10 11.4 16 14.6 6.4 3.2 13.2 5 21.9 5h4.1c9.1-.9 17.3-3.2 24.6-7.8 9.1-5 16.4-12.3 21.9-21.9 5-7.8 8.7-16.9 10.9-27.4 2.7-10.3 3.6-20.3 2.7-29.5zm-26.4 24.6a99.72 99.72 0 0 1-9.6 23.7c-4.1 7.3-9.1 12.8-15 16.4-2.7 1.3-6.3 2.8-9.5 3.7a41.26 41.26 0 0 1-10.2 1.3c-7.3 0-13.2-2.3-17.8-6.4-4.5-4.6-7.3-10-7.7-17.3-.5-6.4 0-14.1 2.3-24.2 2.3-9.6 5.5-18.2 9.6-25.5 3.7-7.3 8.7-13.2 14.6-17.3 3.2-1.8 6.4-3.6 9.6-4.5 2.7-.9 5.9-1.4 9.1-1.4 7.3 0 13.7 2.3 18.7 7.3 4.6 5 7.3 11.4 8.2 19.6.4 7.8-.1 16-2.3 24.6zM398.2 204c-.9-13.2-5-23.2-11.9-30.1-6.8-6.8-16.4-10.5-28.3-10.5a52.53 52.53 0 0 0-5.6.3c-1.8.2-3.6.4-5.4.8-1.7.3-3.5.8-5.1 1.4-1.7.6-3.3 1.3-4.9 2-1.2.5-2.4 1.1-3.6 1.6-.8.4-1.5.8-2.2 1.3s-1.5 1-2.2 1.5c-1.5 1-2.9 2.1-4.3 3.2-1.5 1.2-2.9 2.4-4.3 3.6l-2.9 2.6.9-15h-34.2c-.9 8.2-3.2 21-6.8 37.8l-29.2 132.2H286l14.6-65.2c3.6 6.8 8.6 12.3 15 15.5 4 2 8 3.5 12.4 4.3a49.54 49.54 0 0 0 5.4.6c2.4.2 4.8.5 7.3.4 1.9-.1 3.9-.3 5.8-.5 3.7-.5 7.3-1.5 10.8-2.8s6.8-3 9.8-5.1c3.2-2.1 6.1-4.6 8.8-7.4 2.9-3 5.5-6.2 7.7-9.7.1-.2.2-.3.3-.5 12-16.8 16.6-37.7 14.3-62.3zm-38.8 23.7c-1.8 8.2-4.6 15.9-7.8 22.8-3.2 6.4-6.4 10.9-10.5 14.1-1.4 1.1-2.8 2-4.4 2.7-1.4.6-2.9 1-4.5 1.3-1.4.3-2.9.6-4.3.6-6.4 0-11.4-2.3-15-6.4-4.1-4.1-5.9-10-6.8-17.8-1.4-15 1.3-28.7 8.6-41 5-8.7 11.4-14.6 18.7-16.9 2.7-.4 5-.9 7.7-.9 5.9 0 10.5 1.8 14.2 5.5 3.2 3.2 5.5 8.2 5.9 15 .5 5.9.1 12.8-1.8 21z"/></g></svg>