<svg xmlns="http://www.w3.org/2000/svg" viewBox="0 0 500 500"><path d="M474.8 81.4H25.2c-10.3 0-18.7 8.4-18.7 18.7v299.7c0 10.3 8.4 18.7 18.7 18.7h449.5c10.3 0 18.7-8.4 18.7-18.7V100.2c.1-10.4-8.3-18.8-18.6-18.8zm-295 140.4c0 7.8-6.3 14.1-14.1 14.1s-14.1-6.3-14.1-14.1v-9.5c0-10.3-8.4-18.7-18.7-18.7h-19c-10.3 0-18.7 8.4-18.7 18.7 0 8 5.1 15.2 12.8 17.7l39.8 13.3c19.2 6.4 32 24.2 32 44.4 0 24.3-18.6 44.3-42.3 46.6v14.3c0 7.8-6.3 14.1-14.1 14.1s-14.1-6.3-14.1-14.1v-14.3C85.7 332 67.1 312 67.1 287.7v-9.5c0-7.8 6.3-14.1 14.1-14.1s14.1 6.3 14.1 14.1v9.5c0 10.3 8.4 18.7 18.7 18.7h19c10.3 0 18.7-8.4 18.7-18.7 0-8-5.1-15.2-12.8-17.7l-39.8-13.3c-19.2-6.4-32-24.2-32-44.4 0-24.3 18.6-44.3 42.3-46.6v-14.3c0-7.8 6.3-14.1 14.1-14.1s14.1 6.3 14.1 14.1v14.3c23.7 2.3 42.3 22.3 42.3 46.6v9.5zm234.1 131.6H359c-10.5 0-19-8.5-19-19s8.5-19 19-19h54.9c10.5 0 19 8.5 19 19s-8.5 19-19 19zm.3-75.5H264.3c-10.3 0-18.7-8.4-18.7-18.7s8.4-18.7 18.7-18.7h149.8c10.3 0 18.7 8.4 18.7 18.7.1 10.3-8.3 18.7-18.6 18.7zm0-74.9H264.3c-10.3 0-18.7-8.4-18.7-18.7s8.4-18.7 18.7-18.7h149.8c10.3 0 18.7 8.4 18.7 18.7.1 10.3-8.3 18.7-18.6 18.7z" fill="#1e6aff"/></svg>