<svg xmlns="http://www.w3.org/2000/svg" viewBox="0 0 500 500" fill="#13171e" xmlns:v="https://vecta.io/nano"><path d="M78.5 279.9H55.2v69.7H6.5V150.4h71.7c40.4 0 64.3 25 64.3 64.3.1 38.7-25.3 65.2-64 65.2zm-23.3-87.7V238h15.9c14.2 0 21.6-9.7 21.6-23.3 0-13.4-7.7-22.5-21.1-22.5H55.2zm155.4 157.4v-89.9l-60.9-109.3h54.6l30.5 65.2 31.3-65.2h53.8L259 259.7v89.9h-48.4zm118.7-99.9c0-58.4 43.3-103 105.3-103 24.8 0 43.8 7.1 58.1 16.8L479 206.2c-10.5-7.1-25.6-13.9-42.7-13.9-36.4 0-56.4 26.5-56.4 57.5s19.9 58.1 56.4 58.1c17.1 0 33-6.8 43.5-13.9l13.7 42.7c-14.2 9.7-34.2 16.8-58.9 16.8-64.3-.2-105.3-45.2-105.3-103.8z"/></svg>