<svg xmlns="http://www.w3.org/2000/svg" viewBox="0 0 500 500"><path d="M415.9 336.3c-8.2-53.8-37.5-84.1-87.7-94.3-1.1-.2-1.8-1.3-1.6-2.4h0c.1-.5.6-.9 1.1-.9 12.2 0 24.7-.7 36.8.3 7.9.6 9.4-1.6 9.8-9 3.9-76-48.3-139.2-127.9-149.5-71.1-9.1-138.7 39-155.4 112.5-19.6 86.2 49.7 173.5 137.9 173.4 7.7 0 9-2.4 8.2-9.2-1.3-11.2-3.2-22.5-.6-33.7.3-1.1 1.4-1.8 2.5-1.4 1.3.4 2 1.7 2.6 2.8 25.3 45.6 64.9 70.5 115.5 80 51.2 9.5 91.9 36.4 124.2 76.5 2.3 2.9 6.2 6.2 2.8 9.9-4.5 5-7.5-.4-10.4-2.9-32-27.2-67.1-48.1-109.5-53.7-29.6-3.8-59.4-1.6-89 2-90.7 11-166.9-14.1-221.4-90.1C-36.4 221 36.6 39.9 188.7 10.6 310-12.8 424.8 66.3 445.2 187.9c8.5 51.3-.6 100.1-29.3 148.4z" fill="#fe8b00"/><path d="M352.9 384.9c-14.1-.3-24.8-11.3-24.3-23.3.4-9.1 5.4-12.8 14.3-12.4 11.3.6 24.8 12.6 23.9 22.7-.7 9.1-6.9 13-13.9 13z" fill="#fe8c01"/><path d="M401.8 336.3c0 5 .2 8.9-3.9 10.1-3.2 1-5.7-1.2-7.8-3.6-5.3-5.8-8.8-12.4-10.4-20.1-.8-3.7.2-7.1 3.3-9.1 3.8-2.4 7.5-.7 10.3 2.2 5.8 6.1 8 13.8 8.5 20.5z" fill="#fe8d07"/></svg>