<svg xmlns="http://www.w3.org/2000/svg" viewBox="0 0 500 500"><path d="M198.7 6.5h-5.8c-11 0-20.1 9-20.1 20.1v146.2h25.9V6.5zM250 192.9c0-11 9-20.1 20.1-20.1h57.1V26.6c0-11-9-20.1-20.1-20.1h-82v166.3h4.8c11.1 0 20.1 9 20.1 20.1z" fill="#009cdb"/><path d="M250 198.7h243.5v26.5H250z" fill="#fff"/><path d="M301.3 493.5h5.8c11 0 20.1-9 20.1-20.1V327.2h-25.9v166.3zM250 307.1c0 11-9 20.1-20.1 20.1h-57.1v146.2c0 11 9 20.1 20.1 20.1h82V327.2h-4.8c-11.1 0-20.1-9-20.1-20.1z" fill="#fcb714"/><path d="M6.5 274.9H250v26.5H6.5z" fill="#fff"/><path d="M6.5,301.3v5.8c0,11,9,20.1,20.1,20.1h146.2v-25.9H6.5z" fill="#f58934"/><path d="M250 307.1v-5.8h-77.2v25.9h57.1c11.1 0 20.1-9 20.1-20.1z" fill="#f06f21"/><path d="M192.9 250c-11 0-20.1-9-20.1-20.1v-57.1H26.6c-11 0-20.1 9-20.1 20.1v82h166.3v-4.8c0-11.1 9-20.1 20.1-20.1z" fill="#f58934"/><path d="M198.7 172.8h26.5V250h-26.5z" fill="#f58833"/><path d="M198.7 6.5h26.5v166.3h-26.5z" fill="#fff"/><path d="M192.9 250h5.8v-77.2h-25.9v57.1c0 11.1 9 20.1 20.1 20.1zm57.1 0v-24.9-26.5-5.8c0-11-9-20.1-20.1-20.1h-4.8V250H250z" fill="#476349"/><path d="M250 250h-24.9-26.5-5.8c-11 0-20.1 9-20.1 20.1v4.8H250V250z" fill="#f06f21"/><path d="M493.5,198.7v-5.8c0-11-9-20.1-20.1-20.1H327.2v25.9H493.5z" fill="#7ac042"/><path d="M250 192.9v5.8h77.2v-25.9h-57.1c-11.1 0-20.1 9-20.1 20.1z" fill="#02934b"/><path d="M307.1 250c11 0 20.1 9 20.1 20.1v57.1h146.2c11 0 20.1-9 20.1-20.1v-82H327.2v4.8c0 11.1-9 20.1-20.1 20.1z" fill="#7ac042"/><path d="M274.9 250h26.5v77.2h-26.5z" fill="#7abf42"/><path d="M274.9 327.2h26.5v166.3h-26.5z" fill="#fff"/><path d="M250,250h24.9h26.5h5.8c11,0,20.1-9,20.1-20.1v-4.8H250V250z" fill="#02934b"/><path d="M307.1 250h-5.8v77.2h25.9v-57.1c0-11.1-9-20.1-20.1-20.1zm-57.1 0v24.9 26.5 5.8c0 11 9 20.1 20.1 20.1h4.8V250H250z" fill="#82983f"/></svg>