<svg xmlns="http://www.w3.org/2000/svg" viewBox="-10 0 140 140" ><path d="M111.6 79L64.9 45c-2.4-1.7-5.5-1.7-7.9 0L36.2 60.1c-1.2.9-2.7 1.2-4.2 1s-2.8-1-3.7-2.2-1.2-2.7-1-4.2 1-2.8 2.2-3.7l14.8-10.7L57.2 31c7.2-5.2 17.1-4.6 23.5 1.5 1.4 1.4 3.6 1.4 5.2.3l25.7-18.7zm-.6 13.3l-.1.4c-.2 1-.8 2.4-1.5 3.1-1.9 1.8-4.7 1.9-6.7.5L80 79.7l-.2-.1c-1.4-1-3.6-1-4.9.2-1.6 1.4-1.7 3.8-.3 5.4.2.2.4.4.6.5l.3.2 20.9 15.2c1.2.8 2 2.1 2.2 3.5.3 2-.5 3.8-2.1 5l-.5.3a5.26 5.26 0 0 1-6.1 0L64 91.1c-1.4-1-3.6-1-4.9.2-1.6 1.4-1.7 3.8-.3 5.4.2.2.4.4.6.5l21.2 15.4c1.2.8 2 2.1 2.2 3.5.3 2-.5 3.8-2.1 5l-.5.3a5.26 5.26 0 0 1-6.1 0l-4.7-3.4-21.2-15.4c-1.4-1-3.6-1-4.9.2-1.6 1.4-1.7 3.8-.3 5.4.2.2.4.4.6.5l21.2 15.4c1.2.8 2 2.1 2.2 3.5.3 2-.5 3.8-2.1 5l-.5.3c-1.6 1.2-3.7 1.3-5.5.4L8.2 96.4V14.2l22 16 6.9 5-12.6 9.2c-3 2.2-5 5.4-5.6 9.1a13.86 13.86 0 0 0 2.5 10.4c2.2 3 5.4 5 9.1 5.6.7.1 1.5.2 2.2.2 2.9 0 5.7-.9 8.2-2.7l17.6-12.8a3.9 3.9 0 0 1 4.6 0l46.2 33.6c1.4 1.1 2 2.8 1.7 4.5zm-5.3-84.1L84.8 23.4c-.6.5-1.5.5-2.2.1-8.6-5.6-19.7-5.8-28.4-.4-.3.1-.5.3-.8.4l-9 6.6L14.3 8.2zm13-7c-.8-.8-1.8-1.2-2.9-1.2H4.1C1.8 0 0 1.9 0 4.1v94.3c0 1.3.6 2.6 1.7 3.4l53.7 39a7.65 7.65 0 0 0 9.1 0l53.7-39c1.1-.8 1.7-2 1.7-3.4V4c0-1-.4-2.1-1.2-2.8z" fill="#212e61"/></svg>