<svg width="580" height="580" xmlns="http://www.w3.org/2000/svg">
  <path d="M314.1 180.4c-6.2 43.5-11.1 80.1-20 137 24-.5 78.6 9.1 90.6-68.8 9.8-64.8-34.5-70.8-70.6-68.2zm0 0"/>
<path d="M522.1 493.7c9.4 20.8 0 47.1-19.6 57.7-11.2 6-23.9 11.7-36.7 14.8-21 5.1-42.6 7.8-64.3 8.4-34.7 0-69.3-19.8-84.3-43.9-3.8 8.3-17.9 25-42.3 33-15.4 5-34.1 11-72.9 11-34.9-.1-54.8-15.9-65.2-29.1-16.8-21.2-19.2-47.9-16-65.9l.2-.9c13.1-66 31-185.9 39.4-246v-.6c2.3-16.8 4.6-33.4 6-50.2.7-8.5 1.1-17 1.2-25.5 0-8-.7-16-.7-24 .1-7.6 1.4-15.2 4.9-22 5.8-10.8 16.3-19.2 27.5-23 12.2-4.1 25-5.8 37.7-7.2 13-1.4 26-2.8 39-3.9 16-1.2 31.9-1.8 47.9-1.8 27.3 0 54.7.5 81.6 6 27.4 5.7 55.1 16.4 76.8 35.3 14.8 13 26.6 29.4 35.4 47.3 7.7 15.7 10.9 32.4 12.8 45 3.3 22.8 2.4 46-2.6 68.5-4 16.3-10.8 31.9-19.9 46.1-10.3 16-23.4 30.6-40.3 44.4 10.4 29.9 37.2 88.1 54.4 126.5zM215.5 135.6c.7 11 .7 22.1.2 33.2-.4 11.3-1.4 22.6-2.7 34-1.2 11.2-2.7 22.3-4.3 33.5l-.4 3.6c-4.8 35-9.9 69.9-15.1 104.6-5.7 36.7-11.9 73-18.1 109.5-2.8 17.1-9.4 38.8-.5 55 7.9 14.5 28.2 16.3 42.3 14.8 51.5-5.3 59.8-16.8 59.8-16.8-10.3-11.4-1.4-63.3 8.9-133h36.7l38.3 115.9s11.3 35.9 42.8 34.2c40.2-2.3 69.7-11.4 74.1-16.5-12.3-6.9-47.8-95.6-67.2-160.6 9.4-5.8 18.5-11.9 27-18.9 11.7-9.5 22.5-20.5 30.8-33.3 6-9.3 10.6-19.5 13.2-30.3 1.3-5.7 2.1-11.7 2.6-17.6.9-10.3.6-20.7-.9-30.9-1.5-9.9-3.6-20.8-8-29.7-8.1-16.5-19.7-31-35.4-40.3-26.6-15.6-57.2-18.6-87-20.3-32.4-1.8-64.9-.7-97 3.2-3.8.5-40.3 3.8-40.1 6.7zm0 0"/>

</svg>