<svg xmlns="http://www.w3.org/2000/svg" viewBox="0 0 500 500"><path d="M114.7 225.9H81.4c0-5.5-.6-9.1-1.9-11-2-2.8-7.5-4.1-16.4-4.1-8.7 0-14.5.8-17.3 2.4s-4.2 5.1-4.2 10.4c0 4.8 1.2 8 3.7 9.6 1.8 1.1 4.2 1.7 7.1 1.9l6.7.5 27 2c11.4 1.1 19.6 4.2 24.8 9.1 4 3.8 6.4 8.8 7.2 15 .4 3.7.7 7.9.7 12.5 0 10.7-1 18.6-3.1 23.5-3.7 9.1-12 14.9-25 17.3-5.4 1-13.7 1.5-24.9 1.5-18.7 0-31.7-1.1-39-3.3-9-2.7-15-8.3-17.8-16.6-1.6-4.6-2.4-12.4-2.4-23.2h33.3v2.8c0 5.8 1.7 9.5 5 11.1 2.3 1.1 5.1 1.7 8.3 1.8h12.3c6.3 0 10.2-.3 12-1 3.1-1.2 5.1-3.1 6-5.8.5-1.7.8-3.8.8-6.4 0-5.9-2.1-9.4-6.4-10.7-1.6-.5-9-1.2-22.3-2.1-10.7-.8-18.1-1.5-22.2-2.2-10.9-2-18.2-6.2-21.8-12.6-3.2-5.4-4.8-13.6-4.8-24.6 0-8.3.9-15 2.6-20.1 1.7-5 4.5-8.9 8.3-11.5 5.6-4 12.8-6.4 21.6-7.1 7.3-.6 15.4-1 24.2-1 14 0 24 .8 29.9 2.4 14.5 3.9 21.8 14.8 21.8 32.7-.2 1.7-.3 3.9-.5 6.8m146.5 90.6v-133h52.2 8.2 6.3c9.2 0 16.1.7 20.9 2.2 11 3.4 18.3 10.5 22.1 21.1 1.9 5.6 2.9 14 2.9 25.2 0 13.5-1.1 23.2-3.2 29.1-4.3 11.7-13.1 18.4-26.4 20.2-1.6.3-8.2.5-20 .7l-5.9.2H297v34.4h-35.8zm35.8-65.2h22.3c7.1-.3 11.4-.8 12.9-1.7 2.1-1.2 3.5-3.5 4.2-7 .5-2.3.7-5.8.7-10.4 0-5.6-.4-9.8-1.4-12.5-1.3-3.8-4.4-6.1-9.3-7-1-.1-3.3-.2-6.9-.2H297v38.8zm153.4 42.2h-47.9l-6.4 23H359l40-133.1h54l40.5 133.1h-36.3l-6.8-23zm-7.1-25.9l-16.8-57.7-16.3 57.7h33.1z" fill="#293786"/><path d="M211.8 202.2c14.8 0 28 6.8 36.6 17.5l7.7-16.6c-12.1-11.4-28.5-18.4-46.6-18.4-28.2 0-52.4 17-62.3 41.2h-15.1l-8.9 19.1h19.4c-.1 1.8-.2 3.5-.2 5.3a70.68 70.68 0 0 0 .3 6.5H133l-8.9 19.1h23.6c10.2 23.5 34 40 61.8 40 14 0 27-4.2 37.7-11.4v-23.4c-8.7 9.9-21.3 16.1-35.5 16.1-16.5 0-31-8.5-39.5-21.4h49.4l8.9-19.1H165c-.3-2.3-.5-4.6-.5-7 0-1.6.1-3.2.2-4.8H236l8.9-19.1h-74c8.2-14.1 23.4-23.6 40.9-23.6" fill="#febe10"/><path d="M211.8 202.8c14.1 0 27.3 6.3 36.2 17.3l.6.7.4-.8 7.7-16.6.2-.4-.3-.3c-12.7-12-29.4-18.6-47-18.6-13.8 0-27 4-38.3 11.6-11 7.4-19.5 17.8-24.5 29.9l.5-.4h-15.1-.4l-.2.3-8.9 19.1-.4.8h.9 19.4l-.6-.6c-.2 2-.2 3.7-.2 5.4 0 2.1.1 4.3.3 6.5l.6-.6H133h-.4l-.2.3-8.9 19.1-.4.8h.9 23.6l-.5-.3c10.6 24.5 35.1 40.4 62.3 40.4 13.7 0 26.8-4 38.1-11.5l.3-.2v-.3V281v-1.5l-1 1.1c-8.9 10.1-21.6 15.9-35 15.9-15.7 0-30.3-7.9-39-21.1l-.5.9h49.4.4l.2-.3 8.9-19.1.4-.8h-.9H165l.6.5c-.3-2.3-.5-4.6-.5-6.9 0-1.6.1-3.2.2-4.7l-.6.5H236h.4l.2-.3 8.9-19.1.4-.8h-.9-74l.5.9c8.3-14.5 23.7-23.4 40.3-23.4m-40.9 23.6h74l-.5-.8-8.9 19.1.5-.3h-71.3-.5l-.1.5c-.2 1.6-.2 3.2-.2 4.8 0 2.4.2 4.8.5 7.1l.1.5h.5 65.5l-.5-.8-8.9 19.1.5-.3h-49.4-1.1l.6.9c8.9 13.6 23.8 21.7 40 21.7a47.7 47.7 0 0 0 35.9-16.3l-1-.4v23.4l.3-.5c-11.1 7.4-24 11.3-37.4 11.3-26.8 0-50.8-15.6-61.3-39.7l-.2-.3h-.4H124l.5.8 8.9-19.1-.5.3h9.7.6l-.1-.6a70.16 70.16 0 0 1-.3-6.4c0-1.6.1-3.3.2-5.3l.1-.6h-.6-19.4l.5.8 8.9-19.1-.5.3h15.1.4l.1-.4c4.9-11.9 13.2-22.1 24.1-29.4 11.1-7.5 24.1-11.4 37.7-11.4 17.3 0 33.8 6.5 46.2 18.3l-.1-.7-7.7 16.6 1-.1c-9.1-11.2-22.6-17.7-37.1-17.7-17 0-32.8 9.2-41.4 23.9l-.5.9h1.1z" fill="#293786"/></svg>