<svg xmlns="http://www.w3.org/2000/svg" viewBox="0 0 500 500" xmlns:v="https://vecta.io/nano"><radialGradient id="A" cx="127.686" cy="59.559" r="435.126" gradientTransform="matrix(1 0 0 1 0 10.1644)" gradientUnits="userSpaceOnUse"><stop offset="0" stop-color="#84d5f7"/><stop offset=".053" stop-color="#7ed3f6"/><stop offset=".123" stop-color="#6dcef4"/><stop offset=".202" stop-color="#51c5f0"/><stop offset=".289" stop-color="#2bb8eb"/><stop offset=".371" stop-color="#00aae5"/><stop offset=".454" stop-color="#009edc"/><stop offset=".625" stop-color="#008cce"/><stop offset=".804" stop-color="#0081c6"/><stop offset="1" stop-color="#007dc3"/></radialGradient><path d="M431.4 6.5h-365v366.3h365V251.9c1.5-2.1 2.2-4.8 2.2-8.1 0-3.8-.7-6.1-2.2-8V6.5h0z" fill="url(#A)"/><path d="M67.5 191.9H85l3.9-9.6h8.8l3.9 9.6h34.5v-7.3l3.1 7.3h17.9l3.1-7.4v7.4H246l-.1-15.6h1.6c1.2 0 1.5.2 1.5 2.1V192h44.3v-3.6c3.6 1.9 9.1 3.6 16.5 3.6h18.6l4-9.6h8.8l3.9 9.6H381v-9.1l5.4 9.1h28.8v-59.9h-28.5v7.1l-4-7.1h-29.2v7.1l-3.6-7.1h-39.5c-6.6 0-12.5.9-17.1 3.5v-3.5h-27.2v3.5c-3-2.7-7.1-3.5-11.6-3.5H155l-6.7 15.5-6.8-15.5h-31.4v7.1l-3.5-7.1H79.9l-12.4 28.5v31.3zm338.8-8.4h-14.5l-19.4-32.1v32.1h-20.9l-4-9.6h-21.4l-3.8 9.6h-12c-5 0-11.3-1.1-14.9-4.7-3.6-3.7-5.5-8.6-5.5-16.4 0-6.4 1.2-12.2 5.5-16.8 3.3-3.5 8.5-5 15.6-5h9.9v9.2h-9.7c-3.8 0-5.9.5-7.9 2.5-1.7 1.8-2.9 5.2-2.9 9.7 0 4.6.9 7.9 2.8 10.1 1.6 1.7 4.4 2.2 7.1 2.2h4.6l14.5-33.8h15.4l17.4 40.6v-40.6h15.6l18 29.9v-29.9h10.5v43h0zm-121.4 0h-10.5v-42.9h10.5v42.9zm-16.5-31.3c0 6.8-4.5 10.4-7.2 11.4 2.2.8 4.2 2.4 5 3.6 1.5 2.1 1.8 4.1 1.8 7.8v8.4h-10.4l-.1-5.4c0-2.5.2-6.3-1.6-8.3-1.5-1.5-3.8-1.9-7.4-1.9h-11v15.6h-10.2v-42.9h23.6c5.2 0 9.1.2 12.4 2.1 3.2 1.9 5.1 4.8 5.1 9.6h0zm-48.3 31.3h-34.3v-42.9h34.3v9h-24v7.7h23.4v8.8l-23.4-.1v8.6h24v8.9h0zm-41.9 0h-10.5l-.1-33.5-14.9 33.5h-9l-15-33.7v33.7h-20.9l-3.9-9.6H82.6l-3.9 9.6H67.6l18.4-43h15.3l17.4 40.6v-40.6h16.8l13.4 29.1 12.4-29.1h17.1v43h-.2zM343.9 165l-7.1-17.1-7.1 17.1h14.2zm-88.8-6.8c-1.4.8-3.1.8-5.1.8h-12.5v-9.5h12.7c1.8 0 3.7.1 4.9.7 1.3.7 2.1 2 2.1 3.8-.1 2-.9 3.4-2.1 4.2zM100.4 165l-7-17.1-7 17.1h14zm165.9 63.6c0 11.9-8.9 14.3-17.9 14.3h-12.8v14.4h-19.9L203 243.1l-13.1 14.2h-40.6v-42.9h41.2l12.6 14 13-14h32.8c8.2.1 17.4 2.3 17.4 14.2h0zm-81.5 19.8h-25.2v-8.5H182v-8.8h-22.5v-7.8h25.7l11.2 12.5-11.6 12.6zm40.6 5.1L209.6 236l15.7-16.9v34.4zm23.5-19.2h-13.3v-10.9H249c3.7 0 6.3 1.5 6.3 5.3 0 3.6-2.5 5.6-6.4 5.6zm69.2-19.8h34.3v8.9h-24v7.7h23.4v8.8h-23.4v8.5l24 .1v8.9h-34.3v-42.9h0zm-13 22.9c2.3.8 4.2 2.4 5 3.6 1.5 2.1 1.7 4.1 1.7 7.9v8.5h-10.3V252c0-2.6.2-6.4-1.7-8.4-1.5-1.6-3.8-1.9-7.5-1.9h-11v15.7H271v-42.9h23.7c5.2 0 9 .2 12.4 2.1 3.2 1.9 5.3 4.7 5.3 9.5 0 6.8-4.5 10.2-7.3 11.3h0zm-6.1-5.3c-1.3.8-3.1.8-5 .8h-12.5v-9.6H294c1.8 0 3.7.1 4.9.7 1.3.7 2.1 2 2.1 3.9.1 1.9-.7 3.4-2 4.2h0zm92.5 2.6c2 2.1 3.1 4.7 3.1 9.1 0 9.3-5.8 13.6-16.1 13.6h-20v-9.2h19.9c1.9 0 3.3-.2 4.2-1.1.7-.7 1.2-1.6 1.2-2.8 0-1.3-.5-2.2-1.3-2.8-.8-.7-1.8-1-3.6-1-9.6-.3-21.6.3-21.6-13.3 0-6.2 3.9-12.8 14.7-12.8h20.6v9.1h-18.8c-1.9 0-3.1.1-4.1.8-1.1.7-1.5 1.8-1.5 3.1 0 1.6 1 2.7 2.2 3.2 1.1.4 2.2.5 4 .5l5.6.1c5.3.2 9.2 1.2 11.5 3.5h0zm41 17.2c-2.5 3.7-7.4 5.5-13.9 5.5h-19.8v-9.2h19.7c1.9 0 3.3-.2 4.2-1.1.7-.7 1.2-1.6 1.2-2.8 0-1.3-.5-2.2-1.3-2.8-.8-.7-1.9-1-3.6-1-9.6-.3-21.7.3-21.7-13.3 0-6.2 3.9-12.8 14.7-12.8h20.5v-8.5h-19c-5.8 0-9.9 1.4-12.8 3.5v-3.5h-28.1c-4.5 0-9.7 1.2-12.2 3.5v-3.5h-50.2v3.5c-4-2.8-10.7-3.5-13.9-3.5h-33.1v3.5c-3.1-3.1-10.2-3.5-14.5-3.5h-37.1l-8.5 9.2-7.8-9.2H140v59.9h54.2l8.7-9.3 8.2 9.3h33.4v-14.1h3.3c4.4.1 9.7-.1 14.3-2.1v16.2h27.6v-15.6h1.3c1.7 0 1.9.1 1.9 1.8v13.9h83.8c5.3 0 10.8-1.4 13.9-3.8v3.8h26.6c5.6 0 10.9-.8 15.1-2.8l.2-11.2h0zm0-28.3h-18.7c-1.9 0-3.1.1-4.1.8-1.1.7-1.5 1.8-1.5 3.1 0 1.6.9 2.7 2.2 3.2 1 .4 2.2.5 3.9.5l5.6.1c5.6.2 9.3 1.1 11.7 3.5.4.4.7.7 1 1.1l-.1-12.3h0z" fill="#fff"/><path d="M113.7 469.8c0-2.6-1.3-4.7-3.9-6.2s-6.8-2.9-12.5-4.1c-19.2-4-28.7-12.2-28.7-24.4 0-7.1 3-13.1 8.9-17.9s13.7-7.2 23.3-7.2c10.2 0 18.4 2.4 24.5 7.2s9.2 11.1 9.2 18.8H113c0-3.1-1-5.6-3-7.6s-5.1-3-9.3-3c-3.6 0-6.4.8-8.4 2.5-2 1.6-3 3.7-3 6.3 0 2.4 1.1 4.3 3.4 5.8s6.1 2.7 11.4 3.8c5.4 1.1 9.9 2.3 13.5 3.6 11.4 4.2 17 11.4 17 21.7 0 7.3-3.2 13.3-9.5 17.8s-14.4 6.8-24.4 6.8c-6.7 0-12.7-1.2-18-3.6-5.2-2.4-9.3-5.7-12.3-9.9s-4.5-8.7-4.5-13.6h20.4c.2 3.8 1.6 6.7 4.2 8.8 2.6 2 6.2 3.1 10.6 3.1 4.1 0 7.2-.8 9.3-2.3 2.3-1.9 3.3-3.9 3.3-6.4zm71.8 23.7c-11.8 0-21.4-3.6-28.8-10.9-7.4-7.2-11.1-16.9-11.1-28.9v-2.1c0-8.1 1.6-15.3 4.7-21.7s7.6-11.3 13.3-14.7 12.3-5.2 19.6-5.2c11 0 19.7 3.5 26 10.4s9.5 16.8 9.5 29.5v8.8h-51.3c.7 5.3 2.8 9.5 6.3 12.7s7.9 4.8 13.3 4.8c8.3 0 14.8-3 19.4-9L217 479c-3.2 4.6-7.6 8.1-13.1 10.7-5.6 2.5-11.7 3.8-18.4 3.8zm-2.4-66.2c-4.3 0-7.7 1.4-10.4 4.3s-4.4 7-5.1 12.4h29.9v-1.7c-.1-4.8-1.4-8.5-3.9-11.1-2.5-2.5-6-3.9-10.5-3.9zm93 4.4c-2.9-.4-5.5-.6-7.7-.6-8.1 0-13.5 2.8-16 8.3V492h-21.5v-80.5h20.3l.6 9.6c4.3-7.4 10.3-11.1 17.9-11.1 2.4 0 4.6.3 6.7 1l-.3 20.7zm41.8 34l15-54.2h22.5L328.2 492h-20.5l-27.2-80.5H303l14.9 54.2zm83 27.8c-11.8 0-21.4-3.6-28.8-10.9-7.4-7.2-11.1-16.9-11.1-28.9v-2.1c0-8.1 1.6-15.3 4.7-21.7s7.6-11.3 13.3-14.7 12.3-5.2 19.6-5.2c11 0 19.7 3.5 26 10.4s9.5 16.8 9.5 29.5v8.8h-51.3c.7 5.3 2.8 9.5 6.3 12.7s7.9 4.8 13.3 4.8c8.3 0 14.8-3 19.4-9l10.6 11.8c-3.2 4.6-7.6 8.1-13.1 10.7-5.6 2.5-11.7 3.8-18.4 3.8zm-2.5-66.2c-4.3 0-7.7 1.4-10.4 4.3s-4.4 7-5.1 12.4h29.9v-1.7c-.1-4.8-1.4-8.5-3.9-11.1-2.4-2.5-5.9-3.9-10.5-3.9z" fill="#0079c1"/><path d="M453.8 403.2h-2.3c-.3-.9-.4-2.7-.4-3.1 0-.9-.1-1.7-1.7-1.7H446v4.8h-2.1v-11.8h5.5c1.9 0 4 .7 4 3.3 0 1.5-.6 2.2-1.3 2.6.5.3 1 .8 1.1 2.2l.1 2c0 .6.1.7.6 1-.1 0-.1.7-.1.7zm-2.6-8.3c0-1.5-1-1.6-1.8-1.6h-3.5v3.3h3.3c1.1-.1 2-.3 2-1.7zm9.7 2.6c0-7-5.6-12.5-12.6-12.5s-12.6 5.5-12.6 12.5 5.7 12.5 12.6 12.5 12.6-5.6 12.6-12.5zm-1.9 0c0 5.9-4.5 10.7-10.7 10.7s-10.7-4.8-10.7-10.7 4.6-10.7 10.7-10.7c6.2-.1 10.7 4.7 10.7 10.7z" fill="#007dc3"/><path d="M350.4 152.2c0 6.8-4.5 10.4-7.2 11.4 2.2.8 4.2 2.4 5 3.6 1.5 2.1 1.8 4.1 1.8 7.8v8.4h-10.4l-.1-5.4c0-2.5.2-6.3-1.6-8.4-1.5-1.5-3.8-1.9-7.4-1.9h-11v15.6h-10.2v-42.9h23.6c5.2 0 9.1.2 12.4 2.1 3.2 2 5.1 4.9 5.1 9.7z" fill="#00aae5"/><path d="M302.1 183.5h-34.3v-42.9h34.3v9h-24v7.7h23.4v8.8l-23.4-.1v8.6h24z" fill="#00b1e8"/><path d="M260.2 183.5h-10.5v-33.6l-14.9 33.6h-9l-14.9-33.6v33.6H190l-4-9.6h-21.3l-4 9.6h-11.1l18.3-42.9h15.3l17.4 40.6v-40.6h16.8l13.4 29.1 12.3-29.1h17.1z" fill="#47baeb"/><g fill="#fff"><path d="M337 158.2c-1.4.8-3.1.8-5.1.8h-12.5v-9.5h12.7c1.8 0 3.7.1 4.9.7 1.3.7 2.1 2 2.1 3.8.1 2-.7 3.4-2.1 4.2h0zM182.3 165l-7-17.1-6.9 17.1z"/><path d="M433.1 373.6H249.6 66V190.1 6.5h183.6 183.5v182.4z"/></g><path d="M299.5 267.1l-8.8-11.2v11.2h-26.3v-15.8c-3.3 1.1-7.1 1.7-11.5 1.7h-4.2v14.1h-38.6l-6.5-9.3-6.4 9.3h-63.3v-62.5h54.8 8.7l6.4 9.1 6.5-9.1h222.8V6.5H66v144.9l12.2-28.6h24.9l7.3 16.1v-16.1H141l4.7 13.9 4.7-13.9h134.8v6.2c5.2-4.2 11.9-6.2 19.3-6.2h41l7.3 16.1v-16.1H377l8.1 12.7v-12.7h27.5v62.5h-26l-7.8-12.2v12.2h-37.4l-3.6-9.3h-8.6l-3.5 9.3h-21.9c-6 0-13-1.3-18.5-5.7v5.7h-37l-8.8-11.2v11.2H99.2l-3.6-9.3H87l-3.5 9.3H66v188.2h367.1V263.3c-3.8 2.4-8.6 3.8-13.9 3.8H299.5h0zm133.6-52.6l.1-.2h-.1-22.3c-9.3 0-14.9 5.7-14.9 13.4 0 8.1 5.3 12.7 13.4 12.7h9.9c2.5 0 4.2 1.5 4.2 3.9s-1.8 3.9-4.2 3.9h-22.1v9.2H419c7.2 0 12.1-3.5 14-8.7.5-1.6.9-3.2.9-5.1 0-2-.3-3.8-.9-5.3-1.8-4.6-6.2-7.1-12.5-7.1h-10c-2.5 0-4.1-1.6-4.1-3.9 0-2.4 1.7-3.9 4.1-3.9h18.6l4-8.9h0zm-66.6 12.9c0-2.4 1.7-3.9 4.1-3.9h18.6l4.1-9.2H371c-9.3 0-14.9 5.7-14.9 13.4 0 8.1 5.3 12.7 13.4 12.7h9.9c2.5 0 4.2 1.5 4.2 3.9s-1.8 3.9-4.2 3.9h-22.2v9.2h21.9c9.3 0 14.9-5.7 14.9-13.8 0-7.9-5-12.4-13.5-12.4h-10c-2.3.1-4-1.5-4-3.8h0zm-49.4 30.1h34.6v-9.2h-24.2v-8.1h23.7v-9h-23.7v-7.8h24.2v-9.2H317l.1 43.3h0zm-2.5 0l-14.3-15.9c7.3-1.5 11.7-6.7 11.7-13.7 0-8.1-5.8-13.7-15-13.7h-23.6v43.2h10.5V242h4.8l12.8 15.5h13.1 0zM296 233.1h-12.1v-9.6H296c3.6 0 5.4 2.2 5.4 4.8s-1.8 4.8-5.4 4.8h0zm-28.1-4.4c0-8.6-5.8-14.5-15-14.5H229v43.2h10.5v-14.2h13c9.5 0 15.4-6.1 15.4-14.5h0zm-10.5.1c0 2.9-1.9 5.3-5.4 5.3h-12.4v-10.6H252c3.6-.1 5.4 2.3 5.4 5.3h0zm-30.1 28.7l-17.4-21.8 17.3-21.4h-12.7L204 228l-10.6-13.7h-13l17.3 21.6-17.3 21.6h12.7l10.7-13.9 10.6 13.9h12.9 0zm-83.3 0h34.6v-9.2h-24.2v-8.1h23.7v-9h-23.7v-7.8h24.2v-9.2h-34.7l.1 43.3h0zm258.3-81.7v-43.2h-10.2v23l.1 5.2h-.1l-3-4.8-15.3-23.4H361v43.2h10.2v-24l-.1-5.1h.1l2.9 4.8 15.9 24.4h12.3v-.1zm-55 0h11.8l-18.5-43.2h-13.7l-18.5 43.2h11.2l3.6-9.1h20.4l3.7 9.1h0zm-7.1-17.5h-13.7l4.1-10.1 2.7-6.8h.1l2.7 6.8 4.1 10.1h0zm-36.3-16.4h11.3v-9.4h-12.1c-13.4 0-20.7 9-20.7 21.3v.7c0 12.9 7.5 21.2 20 21.3h.6l4.2-9.3H304c-7 0-11.3-4.4-11.3-12v-.6c.1-6.9 3.9-12 11.2-12h0zm-38 33.9h10.5v-21.6-21.6h-10.5v21.6 21.6h0zm-2.6 0L249 159.9c7.3-1.4 11.7-6.7 11.7-13.6 0-8.1-5.8-13.7-15-13.7h-23.5v43.2h10.5v-15.5h4.9l12.8 15.5h12.9 0zm-18.6-24.5h-12.1v-9.6h12.1c3.6 0 5.4 2.2 5.4 4.8.1 2.7-1.7 4.8-5.4 4.8h0zm-64.1 24.5h34.7v-9.2H191v-8.1h23.7v-9H191v-7.8h24.2v-9.2h-34.7v43.3h.1zm-18.3 0h10.1v-43.2h-17l-8.4 25-1.3 4.8h-.1l-1.4-4.8-8.5-25h-16.9v43.2H129v-28.4l-.2-6.6h.1l2.1 6.6 9.9 28.4h9.4l9.9-28.4 2.1-6.6h.1l-.2 6.6v28.4h.1zm-57.2 0h11.8l-18.5-43.2H84.7l-18.5 43.2h11.2l3.6-9.1h20.4l3.7 9.1h0zM98 158.3H84.3l4.1-10.1 2.7-6.8h.1l2.7 6.8 4.1 10.1h0z" fill="#0079c1"/></svg>