<svg xmlns="http://www.w3.org/2000/svg" viewBox="0 0 500 500"><linearGradient id="A" gradientUnits="userSpaceOnUse" x1="-168.697" y1="545.493" x2="-167.575" y2="543.345" gradientTransform="matrix(226.772 0 0 -77.456 38381.2422 42420.7813)"><stop offset="0" stop-color="#6b195f"/><stop offset="1" stop-color="#4c255b"/></linearGradient><path d="M356.3 206.8c11 0 20-8.9 20-20 0-11-8.9-20-20-20-11 0-20 9-20 20s9 20 20 20h0zm-153.1 10.8c-.9 2.3-7.4 20.6-23.1 39.6v-81.3l-41.8 8.3v147.3h41.8V286c12.1 18.2 18.1 45.5 18.1 45.5h50.1c-5-20.6-26.6-58.6-26.6-58.6 19.5-24.7 28-51 29.4-55.3h-47.9 0zm110-1.6c-37.5 1.2-56.5 18-56.5 51.4v64h40.9v-52.2c0-20 2.6-28.6 26.4-29.4v-33.3c-4-.7-10.8-.5-10.8-.5h0zM68.1 233.8c-5.1-.3-17-1.1-17-11.8 0-12.9 17.1-12.9 23.5-12.9 11.3 0 25.9 3.3 36.3 6.4 0 0 5.8 2 10.8 4.1l.5.1v-35.3l-.6-.2c-12.3-4.3-26.6-8.4-53.1-8.4-45.7 0-61.9 26.6-61.9 49.4 0 13.1 5.6 44.1 58 47.7 4.4.3 16.2 1 16.2 12 0 9.1-9.6 14.5-25.9 14.5-17.8 0-35-4.5-45.5-8.8V327c15.7 4.1 33.3 6.2 54 6.2 44.7 0 64.7-25.2 64.7-50.2 0-28.3-22.4-46.7-60-49.2h0zM336 331.5h40.5V217.7H336v113.8zm116.9-148.3v148.3h40.6V175.9l-40.6 7.3h0zm-59.1 0l40.5-7.3v155.6h-40.5V183.2h0z" fill-rule="evenodd" fill="url(#A)"/></svg>