<svg xmlns="http://www.w3.org/2000/svg" viewBox="0 0 500 500" xmlns:v="https://vecta.io/nano"><g fill="#2f4b95"><path d="M455.4 169.2l-.7 1.6c.3-.5.5-1 .7-1.6zm.7-1.6c-.2.4-.3.8-.5 1.2.1-.4.3-.8.5-1.2zm2.2-7.1l-.4 1.6.4-1.6zm.7-3.4c-.1.4-.1.7-.2 1.1 0-.3.1-.7.2-1.1zm-.3 1.7c-.1.4-.2.8-.2 1.1 0-.3.1-.7.2-1.1zm-2 7.2c-.1.4-.3.7-.4 1.1.1-.4.2-.7.4-1.1zm4-24.4zm-3.5 22.7c-.1.4-.2.7-.4 1.1.2-.4.3-.7.4-1.1z"/><path d="M457.9 162.1a9.83 9.83 0 0 1-.5 1.6c.2-.5.3-1 .5-1.6z"/></g><linearGradient id="A" gradientUnits="userSpaceOnUse" x1="136.467" y1="128.309" x2="460.243" y2="128.309"><stop offset="0" stop-color="#32539e"/><stop offset=".318" stop-color="#31529b"/><stop offset=".55" stop-color="#2f4d93"/><stop offset=".754" stop-color="#2b4586"/><stop offset=".94" stop-color="#253b76"/><stop offset="1" stop-color="#233770"/></linearGradient><path d="M460 141.7c-.4-3.8-1.4-7.6-2.9-11.2-15-35.2-71.5-48.2-103.9-58.1-65-19.7-131.2-36-193.6-62.7-6.8-2.9-15.9-5.5-20.7.1-3.5 4.1-2.5 10.2-1.1 15.4 12.1 44.3 41.2 82.4 75.4 113s73.7 54.6 112.5 79.3c16.4 10.5 32.9 21.1 48.7 32.5 3.3 2.4 40.5-32.1 44.6-35.9 12.6-11.7 25.6-24.3 33.8-39.5 5.4-10 8.4-21.7 7.2-32.9z" fill="url(#A)"/><path d="M443.2 188.9c-.2.3-.5.6-.7.9.2-.3.5-.6.7-.9zm-1.1 1.4l-.9 1.1.9-1.1zm2.3-2.9c-.2.3-.5.6-.7.9.2-.2.4-.6.7-.9zm-3.4 4.3c-.4.5-.8.9-1.2 1.3l1.2-1.3zm4.7-6l-.9 1.2.9-1.2zm-9.9 11.8l-1.2 1.3c.4-.5.8-.9 1.2-1.3zm3.7-4.1c-.3.3-.6.7-.9 1 .3-.4.6-.7.9-1zm-2.5 2.8c-.3.3-.5.6-.8.9.3-.3.5-.6.8-.9zm1.2-1.4c-.3.3-.5.6-.8.9.3-.3.6-.6.8-.9zm11.7-15.3c-.2.4-.4.7-.7 1.1.3-.4.5-.7.7-1.1zm3-5l-.6 1 .6-1zm-.9 1.6l-.7 1.3c.2-.5.5-.9.7-1.3zm-5.1 8c-.3.5-.7 1-1 1.4.3-.5.6-.9 1-1.4zm6.8-11.2c-.2.3-.3.7-.5 1 .1-.3.3-.6.5-1zm-2.6 4.7l-.9 1.5.9-1.5zm-3.2 5l-.7 1c.2-.3.5-.6.7-1zm6.7-11.5l-.6 1.2c.2-.3.4-.8.6-1.2zm-5.7 10c-.2.3-.4.7-.7 1 .3-.3.5-.7.7-1z" fill="#2f4b95"/><path d="M38.5 347v-28.3l.1-56.6V250l-.1 99.9c0 2.9.2 5.8.7 8.5" fill="#2cabd5"/><linearGradient id="B" gradientUnits="userSpaceOnUse" x1="38.597" y1="182.427" x2="363.585" y2="182.427"><stop offset="0" stop-color="#62cae4"/><stop offset="1" stop-color="#17a0cf"/></linearGradient><path d="M361.2 9.8c-4.8-5.6-13.9-3.1-20.7-.1-62.4 26.7-128.6 42.9-193.6 62.7C122.4 79.9 98 87.9 75.5 100c-17.2 9.3-32.7 22.4-36.2 41.6-.5 2.7-.7 5.5-.7 8.5l.1 99.9-.1 99.9c0 2.9.2 5.8.7 8.5.9-.1 1.8-1.6 1.5-3.4 0-.2 0-.4-.1-.7-2.4-20 10.7-38.4 24.6-53.1 18.2-19.2 38.7-35.9 60.2-51.3 15.9-11.4 32.3-22 48.7-32.5 38.8-24.6 78.2-48.7 112.5-79.3 34.2-30.6 63.3-68.7 75.4-113 1.6-5 2.6-11.2-.9-15.3z" fill="url(#B)"/><linearGradient id="C" gradientUnits="userSpaceOnUse" x1="39.334" y1="371.75" x2="363.585" y2="371.75"><stop offset="0" stop-color="#224489"/><stop offset=".085" stop-color="#215997"/><stop offset=".197" stop-color="#226fa8"/><stop offset=".315" stop-color="#2185b9"/><stop offset=".435" stop-color="#2097c8"/><stop offset=".56" stop-color="#20a7d4"/><stop offset=".691" stop-color="#20b2de"/><stop offset=".832" stop-color="#20b9e3"/><stop offset="1" stop-color="#20bbe5"/></linearGradient><path d="M39.5 354.7c.5-5.9.9-7.5 1.4-10.9 2.2-15.9 13.1-30.5 24.5-42.5 18.2-19.2 38.7-35.9 60.2-51.3 15.9 11.4 32.3 22 48.7 32.5 38.8 24.6 78.2 48.7 112.5 79.3 34.2 30.6 63.3 68.7 75.4 113 1.4 5.2 2.4 11.3-1.1 15.4-4.8 5.6-13.9 3.1-20.7.1-62.4-26.7-128.6-42.9-193.6-62.7-24.5-7.5-48.9-15.5-71.4-27.6-17.2-9.3-32.7-22.4-36.2-41.6.1 0 .2-1.9.3-3.7z" fill="url(#C)"/><linearGradient id="D" gradientUnits="userSpaceOnUse" x1="461.455" y1="317.407" x2="136.467" y2="317.407"><stop offset="0" stop-color="#32539e"/><stop offset=".318" stop-color="#31529b"/><stop offset=".55" stop-color="#2f4d93"/><stop offset=".754" stop-color="#2b4586"/><stop offset=".94" stop-color="#253b76"/><stop offset="1" stop-color="#233770"/></linearGradient><path d="M461.4 250l.1-99.9c0-2.8-1-6-1.5-8.8-.1 2 .5 3.7.4 5.5a90.48 90.48 0 0 1-1.2 8.9c-1 5.2-2.4 10.3-4.6 15.2-9 19.8-26.7 35.6-42.8 49.7-6 5.2-12.1 10.2-18.3 15.1l-9.4 7.2-4.8 3.5c-.6.5-4.8 2.9-4.8 3.5-15.9 11.4-32.3 22-48.7 32.5-38.8 24.6-78.2 48.7-112.5 79.3-34.2 30.6-63.3 68.7-75.4 113-1.4 5.2-2.4 11.3 1.1 15.4 4.8 5.6 13.9 3.1 20.7.1 62.4-26.7 128.6-42.9 193.6-62.7 24.5-7.5 48.9-15.5 71.4-27.6 17.2-9.3 32.7-22.4 36.2-41.6.5-2.7.7-5.5.7-8.5l-.2-99.8zm-2.2 106.3c.1.8.4 1.4.8 1.8-.4-.4-.7-1.1-.8-1.8z" fill="url(#D)"/></svg>