<svg xmlns="http://www.w3.org/2000/svg" viewBox="0 0 500 500"><path d="M323.8 6.5c48.7 0 73 0 99.7 8.4 28.7 10.5 51.1 33 61.6 61.6 8.4 26.6 8.4 51 8.4 99.8v147.4c0 48.8 0 73.3-8.4 99.7-10.5 28.7-33 51.1-61.6 61.6-26.6 8.5-51 8.5-99.7 8.5H176.2c-48.8 0-73.3 0-99.7-8.4-28.7-10.5-51.1-33-61.6-61.6-8.4-26.6-8.4-51-8.4-99.8V176.2c0-48.8 0-73.3 8.4-99.7 10.5-28.7 33-51.1 61.6-61.6 26.6-8.4 51-8.4 99.7-8.4 0 0 147.6 0 147.6 0z" fill="#00d632"/><path d="M329.6 187.6c3.8 3.8 10.1 3.8 13.7 0l19-19.8c4.1-3.8 3.8-10.7-.5-14.7-15-13.1-32.3-23-51.1-29.2l6-28.9c1.3-6.3-3.4-12.3-9.8-12.3h-36.8c-4.7 0-8.8 3.4-9.8 8.1l-5.3 25.7c-49 2.5-90.6 27.4-90.6 78.4 0 44.1 34.4 63 70.6 76.1 34.4 13.1 52.5 18 52.5 36.4 0 18.9-18.1 30.1-44.9 30.1-24.3 0-50-8.1-69.8-28-3.8-3.8-10.1-3.9-14 0h0L138.5 330c-4.1 4.1-4.1 10.5 0 14.6 16 15.7 36.3 27.1 59.4 33.5l-5.6 27.1c-1.3 6.3 3.3 12.2 9.6 12.3l36.9.3c4.8 0 9-3.3 9.9-8.1L254 384c59-3.9 94.9-36.4 94.9-83.8 0-43.6-35.8-62.1-79.1-77.1-24.9-9.3-46.3-15.5-46.3-34.5 0-18.4 20-25.7 40.1-25.7 25.6 0 50.1 10.5 66.2 25l-.2-.3z" fill="#fff"/></svg>