<svg xmlns="http://www.w3.org/2000/svg" viewBox="0 0 16 16" xmlns:v="https://vecta.io/nano"><path d="M6.99 2.808l5.94 2.163A.795.795 0 0113 5l.16.054c1.892.69 2.875 2.764 2.194 4.635-.68 1.87-2.767 2.828-4.66 2.139l-6.17-2.246a.726.726 0 01-.44-.927.725.725 0 01.933-.428l3.428 1.248a3.567 3.567 0 01-.124-1.58l-7.038-2.56a.726.726 0 01-.44-.928.725.725 0 01.933-.427l7.038 2.56c.28-.455.66-.84 1.11-1.13L6.496 4.163a.725.725 0 01-.439-.927.725.725 0 01.932-.428zm2.897 4.89a2.182 2.182 0 001.318 2.79 2.182 2.182 0 002.803-1.29 2.182 2.182 0 00-1.317-2.791 2.182 2.182 0 00-2.804 1.29z"/></svg>