<svg xmlns="http://www.w3.org/2000/svg" xmlns:xlink="http://www.w3.org/1999/xlink" viewBox="0 0 500 500"><use xlink:href="#B"/><path d="M92.1 171.8c-1.6-5.1-3.7-9.8-6.3-14.1-2.7-4.4-5.8-8.5-9.4-12.4s-7.4-7.7-11.5-11.5l-3.5-3.1-8-7.6-3.6-3.3c-2-1.7-3.9-3.6-5.6-5.5s-3.2-3.9-4.5-6-2.3-4.4-3-6.8-1.1-5.1-1.1-7.9c0-2.1.2-4 .7-5.9s1.3-3.5 2.3-5c1-1.4 2.3-2.6 3.9-3.6s3.4-1.5 5.4-1.7V54.5c-6.2.4-11.8 1.6-16.9 3.7s-9.5 5-13.1 8.6c-3.7 3.6-6.5 8-8.5 13s-3 10.7-3 16.9c0 5.4.7 10.2 2.1 14.5s3.3 8.2 5.6 11.7 5 6.7 8 9.7c3 2.9 6 5.8 9.1 8.5l10.1 9.5h0l3.7 3.5c2.6 2.4 5.1 4.9 7.5 7.6s4.6 5.6 6.5 8.6 3.4 6.1 4.6 9.4 1.7 6.7 1.7 10.2c0 2.1-.2 4.1-.6 5.9s-1.1 3.4-2 4.7c-.9 1.4-2.1 2.5-3.6 3.3s-3.3 1.3-5.4 1.4v22.9c5.6-.2 10.8-1.3 15.7-3.2s9.2-4.6 12.8-8c3.7-3.4 6.5-7.5 8.7-12.2 2.1-4.7 3.2-10.1 3.2-15.9.4-6.3-.4-11.9-2-17zM43 200.3c-1.7-2.1-3-4.7-3.9-7.6-1-3-1.7-6.2-2.1-9.7s-.7-7-.8-10.5l-29.7 6c.4 6.2 1.6 12.2 3.4 17.9s4.5 10.9 8 15.5 7.8 8.3 13 11.2 11.3 4.5 18.5 4.9v-23.2c-2.6-.9-4.7-2.3-6.4-4.5zm111.7 27.4c-6.4-.2-12-1.1-16.8-2.7-4.7-1.6-8.8-3.8-12.1-6.5a34.72 34.72 0 0 1-8.2-9.7c-2.1-3.7-3.8-7.8-5-12.3-1.2-4.4-2-9.1-2.5-14.1-.4-5-.7-10.1-.7-15.3V57.6h29.7V167c0 6.1.2 11.5.5 16 .3 4.6 1.1 8.4 2.2 11.5s2.7 5.5 4.7 7.1c2 1.7 4.8 2.7 8.2 3v23.1zm4.6-23c3.6-.2 6.4-1.1 8.5-2.7 2-1.6 3.5-4 4.5-7.1s1.6-7 1.8-11.6c.2-4.7.3-10.1.3-16.4V57.6H204v109.5a194.36 194.36 0 0 1-.6 15.4c-.4 5-1.2 9.7-2.4 14.2s-2.8 8.6-4.9 12.3-4.7 6.9-8.1 9.7c-3.3 2.7-7.3 4.9-12.1 6.5-4.7 1.6-10.3 2.5-16.8 2.6v-23.1zm95.2 19.9h-29.6v-167h29.6v167zm4.7-167h6.2c7.5 0 13.9 1.1 19.1 3.3s9.5 5.4 12.7 9.5c3.3 4.1 5.7 9 7.1 14.8 1.5 5.7 2.2 12.2 2.2 19.2 0 8.8-1 16.3-3 22.3-2 6.1-4.9 11-8.8 14.9-3.9 3.8-8.7 6.6-14.5 8.3-5.7 1.7-12.4 2.6-20 2.6h-1.1v-21.3h2.4c3.8 0 6.8-.5 9-1.6s3.8-2.8 5-5 1.8-5.1 2.2-8.5c.3-3.4.5-7.5.5-12.2 0-3.8-.2-7.3-.6-10.4s-1.4-5.7-3-7.9-4-3.8-7.1-5c-3.2-1.2-7.5-1.7-13-1.7h4.7V57.6zm62.1 167v-167h29.6v167h-29.6zm34.3-167h32.9v20.7h-32.9V57.6zm0 70h22v21.1h-22v-21.1zm0 76.3h32.9v20.7h-32.9v-20.7zm47.3 20.7v-167h29.6v167h-29.6zm34.3-96.6h9.3c3.2 0 5.7-.9 7.7-2.7 1.9-1.8 3.4-4 4.5-6.5 1.1-2.6 1.8-5.2 2.1-8.1l.5-7.3c0-2.1-.2-4.6-.5-7.3s-1-5.4-1.9-7.8c-1-2.5-2.3-4.5-4.1-6.2s-4.1-2.5-7-2.5h-10.6v-22h4.1c7.9 0 14.9.9 21 2.6 6.2 1.7 11.3 4.4 15.6 7.9 4.2 3.6 7.4 8.1 9.6 13.6s3.3 12.1 3.3 19.7c0 3.8-.2 7.7-.5 11.6s-1.1 7.7-2.5 11.4c-1.3 3.7-3.4 7.1-6.2 10.2-2.8 3.2-6.7 5.9-11.8 8.1l23.7 81.9h-30.3l-19.4-77.9h-6.7V128zM26.1 442.3v-167h29.6v167H26.1zm34.3-167h32.9V296H60.4v-20.7zm0 70h22v21.1h-22v-21.1zm44.6 97v-167h29.6v167H105zm34.3-20.7h31.5v20.7h-31.5v-20.7zm98.6-146.3l35.4 167H244l-7.2-37.4H215l2.5-17.3h17.1l-8.1-49.7 11.4-62.6zM222 335.9l-18.6 106.4h-28.6l35.4-167H233l-11 60.6zm95 82.1c-1.7-2.1-3-4.7-3.9-7.6-1-3-1.7-6.2-2.1-9.7s-.7-7-.8-10.5l-29.7 6c.4 6.2 1.6 12.1 3.4 17.9 1.8 5.7 4.5 10.9 8 15.5s7.8 8.3 13 11.2 11.3 4.5 18.5 4.9v-23.2c-2.6-.9-4.7-2.4-6.4-4.5z"/><use xlink:href="#B" x="274" y="217.7"/><path d="M366.2 389.5c-1.6-5.1-3.7-9.8-6.3-14.1-2.7-4.4-5.8-8.5-9.4-12.4s-7.4-7.7-11.5-11.5l-1-.9-10.4-9.9-3.6-3.3c-2-1.7-3.9-3.6-5.6-5.5s-3.2-3.9-4.5-6-2.3-4.4-3-6.8-1.1-5.1-1.1-7.9c0-2.1.2-4 .7-5.9s1.3-3.5 2.3-5c1-1.4 2.3-2.6 3.9-3.6s3.4-1.5 5.4-1.7v-22.8c-6.2.4-11.8 1.6-16.9 3.7s-9.5 5-13.1 8.6c-3.7 3.6-6.5 8-8.5 13s-3 10.7-3 16.9c0 5.4.7 10.2 2.1 14.5s3.3 8.2 5.6 11.7 5 6.7 8 9.7c3 2.9 6 5.8 9.1 8.5l10.1 9.5h0l3.7 3.5c2.6 2.4 5.1 4.9 7.5 7.6s4.6 5.6 6.5 8.6 3.4 6.1 4.6 9.4 1.7 6.7 1.7 10.2c0 2.1-.2 4.1-.6 5.9s-1.1 3.4-2 4.7c-.9 1.4-2.1 2.5-3.6 3.3s-3.3 1.3-5.4 1.4v22.9c5.6-.2 10.8-1.3 15.7-3.2s9.2-4.6 12.8-8c3.7-3.4 6.5-7.5 8.7-12.2 2.1-4.7 3.2-10.1 3.2-15.9.2-6.3-.6-11.9-2.1-17zm47.7 52.8h-29.6v-167H414l-.1 167zm60-167v167H444v-75.9h-25.4v-18.9H444v-72.2h29.9z"/><defs ><path id="B" d="M61.3 85.6c.8 1.9 1.5 4 1.9 6.3.4 2.2.7 4.4.8 6.6l-.1 2.9c-.1.9-.1 1.8-.1 2.7l30.1-4.7v-3.5c-.3-5.8-1.5-11.2-3.6-16.3-2.2-5-5-9.4-8.7-13.1-3.6-3.7-7.9-6.6-12.8-8.8s-10.2-3.3-16-3.4v23.1c2 .6 3.7 1.6 5.1 3a22.19 22.19 0 0 1 3.4 5.2z"/></defs></svg>