<svg xmlns="http://www.w3.org/2000/svg" viewBox="0 0 500 500" xmlns:v="https://vecta.io/nano"><g transform="translate(50.006 20.581)"><linearGradient id="A" gradientUnits="userSpaceOnUse" x1="-340.502" y1="53.207" x2="-341.082" y2="51.781" gradientTransform="matrix(125.8213 0 0 155.2459 43121.1328 -7911.585)"><stop offset="0" stop-color="#ef2131"/><stop offset="1" stop-color="#fecf2c"/></linearGradient><path d="M95 449.2c97.9 46.8 218.6 23.6 291.5-63.3 86.4-103 73-256.5-29.9-343L288 124.5c80.5 67.6 91 187.4 23.4 267.9C257.6 456.8 169 478.1 95 449.2" fill-rule="evenodd" fill="url(#A)"/><linearGradient id="B" gradientUnits="userSpaceOnUse" x1="362.874" y1="171.335" x2="205.325" y2="499.032"><stop offset="0" stop-color="#fbc52c"/><stop offset=".264" stop-color="#f87130"/><stop offset=".561" stop-color="#ef52e2"/><stop offset="1" stop-color="#661eec"/></linearGradient><path d="M95 449.2c97.9 46.8 218.6 23.6 291.5-63.3 9-10.6 16.8-21.8 23.6-33.4 11.5-71.5-13.9-147.3-73.4-197.2-15.1-12.7-31.6-23-48.7-30.8 80.5 67.6 91 187.4 23.4 267.9C257.6 456.8 169 478.1 95 449.2" fill-rule="evenodd" fill="url(#B)"/></g><linearGradient id="C" gradientUnits="userSpaceOnUse" x1="-241.328" y1="51.839" x2="-240.774" y2="53.231" gradientTransform="matrix(125.8211 0 0 155.246 30537.4824 -7911.6255)"><stop offset="0" stop-color="#78f6d8"/><stop offset=".266" stop-color="#77d1f6"/><stop offset=".555" stop-color="#70a4f3"/><stop offset="1" stop-color="#661eec"/></linearGradient><path d="M355 30.2C257.2-16.6 136.5 6.6 63.5 93.5c-86.4 103-73 256.5 29.9 343l68.5-81.5C81.5 287.5 71 167.5 138.6 87 192.4 22.8 281 1.3 355 30.2" fill-rule="evenodd" fill="url(#C)"/><linearGradient id="D" gradientUnits="userSpaceOnUse" x1="88.244" y1="306.741" x2="244.52" y2="-19.735"><stop offset="0" stop-color="#536eed"/><stop offset=".247" stop-color="#54c3ec"/><stop offset=".564" stop-color="#64d769"/><stop offset="1" stop-color="#fecf2c"/></linearGradient><path d="M355 30.2C257.2-16.6 136.5 6.6 63.5 93.5c-9 10.6-16.8 21.8-23.6 33.4-11.5 71.5 13.9 147.3 73.4 197.2 15.1 12.7 31.6 23 48.7 30.8C81.5 287.3 71 167.5 138.6 87 192.4 22.8 281 1.3 355 30.2" fill-rule="evenodd" fill="url(#D)"/></svg>