<svg xmlns="http://www.w3.org/2000/svg" viewBox="0 0 500 500"><path d="M474.8 81.4H25.2c-10.3 0-18.7 8.4-18.7 18.7v299.7c0 10.3 8.4 18.7 18.7 18.7h449.5c10.3 0 18.7-8.4 18.7-18.7V100.2c.1-10.4-8.3-18.8-18.6-18.8zm-290 74.7h130.4c10.5 0 19 8.5 19 19s-8.5 19-19 19H184.8c-10.5 0-19-8.5-19-19s8.5-19 19-19zm-112 0h38.7c10.5 0 19 8.5 19 19s-8.5 19-19 19H72.8c-10.5 0-19-8.5-19-19s8.5-19 19-19zm130.4 187.8H72.8c-10.5 0-19-8.5-19-19s8.5-19 19-19h130.4c10.5 0 19 8.5 19 19s-8.5 19-19 19zM227 269H72.8c-10.5 0-19-8.5-19-19s8.5-19 19-19H227c10.5 0 19 8.5 19 19s-8.5 19-19 19zm88.6 74.9h-38.7c-10.5 0-19-8.5-19-19s8.5-19 19-19h38.7c10.5 0 19 8.5 19 19s-8.5 19-19 19zm111.6 0h-38.7c-10.5 0-19-8.5-19-19s8.5-19 19-19h38.7c10.5 0 19 8.5 19 19s-8.5 19-19 19zm0-74.9H300.9c-10.5 0-19-8.5-19-19s8.5-19 19-19h126.3c10.5 0 19 8.5 19 19s-8.5 19-19 19zm0-74.9h-38.7c-10.5 0-19-8.5-19-19s8.5-19 19-19h38.7c10.5 0 19 8.5 19 19s-8.5 19-19 19z" fill="#1e6aff"/></svg>