<svg xmlns="http://www.w3.org/2000/svg" viewBox="0 0 500 500" fill-rule="evenodd" fill="#0b4888"><path d="M405.8 217.6c-6.7-6.3-16.6-7.5-25.2-5.7-5.9 1.4-11 5.7-13.9 11-4.7 8.2-5.3 17.9-4.8 27.2.4 8.8 2.3 17.9 8.2 24.8 6.2 7.2 16.8 9.2 26 7.4 7-1.4 12.9-6.7 15.9-13.3 3.9-8.4 4.2-17.8 3.6-26.8-.8-8.9-3-18.3-9.8-24.6zM250 6.5C115.5 6.5 6.5 115.5 6.5 250s109 243.5 243.5 243.5 243.5-109 243.5-243.5S384.5 6.5 250 6.5zm88.9 143.8c4.1-9.8 13.4-16 22.6-20.5 16.4-8.2 36.1-8.5 53.1-1.8 9.8 3.9 19.1 10 25.3 18.7 5 7.5 4 16.9 3.8 25.6-5.1-5.4-10.2-11-16.4-15-12.5-8.7-28.2-11.9-43.2-10.2-18.3 1.4-36.1 10.2-47.1 25.1.2-7.2-1.2-15 1.9-21.9zM90.4 278.8c5.5 3.7 12.6 3 18.9 2.6 5.2-.3 10.4-1.9 15.1-4.2-.4 7 1.3 14.8-2.6 21.1-3.8 6.2-11.4 8.7-18.3 9.4-9.5.8-19.3-.2-28.2-4.1-8.6-3.6-15.3-11.2-18.4-19.9-2.6-7-3.4-14.6-3.3-22v-70.1c.1-5.9.8-12.3 4.2-17.3 3.5-5.1 7.5-9.9 13-12.7 3.8-2 8.4-1.4 12.5-1.4v27.1h41.3c-.2 5 .4 10.1-.4 15-1.6 7-9 11.2-15.8 11.3H83.3v48.2c0 6.2 1.7 13.3 7.1 17zm66.1-134.4c8.8-2.2 18.5 3.3 20.8 12.2 3.3 10.4-5.5 22.2-16.4 22.1-9.5.6-17.8-8-17.6-17.4-.2-7.8 5.7-15 13.2-16.9zm40 157.5c-2.8 4.3-8.3 5.5-13.1 5.7-9.8.4-20.3-1.8-27.6-8.9-7.5-7.3-9.9-18.2-9.9-28.4l.1-80.5c6.9.2 14.4-.8 20.6 2.9 6 3.4 8.9 10.6 8.9 17.3l.1 47.7c.1 5.1-.3 10.4.6 15.5.5 3.2 2.3 6.4 5.3 7.9 5.4 2.9 11.9 2.2 17.8 2.3-.1 6.2.7 13.1-2.8 18.5zm13.8-33.5c-4.3-16.8-2.5-35.5 6.3-50.6 7.6-13.7 21-23.5 35.8-28.3 12.4-3.9 25.8-5.4 38.6-3.1 9.1 1.8 18.3 6.5 22.5 15.1 3.3 6.1 1.9 13.3 2.2 19.8h-3.6c-10.1-7.4-22.9-10-35.2-10.1-11.6-.2-23.5 4.4-30.9 13.6-5.8 6.8-8.2 16.1-7.6 25 .3 9.9 2.8 20.3 10.1 27.4 7.8 7.9 19.6 10.2 30.4 9.7 4-.3 9.7-1.4 10.3-6.2.5-10.7.4-21.5-2.1-32.1 5.7.2 11.5-.2 17.1.2 7.3.7 14.3 6.9 13.8 14.7-.5 10.7 1.6 22-3 32.1-4.1 9.1-13.9 13.9-23.1 15.8-17.9 3.5-37.3 1.9-53.4-7.2-13.7-7.5-24.3-20.6-28.2-35.8zm188 90.4c-4.1 13.5-15.1 23.4-26.6 31.1-15.9 10.4-34.8 16.4-53.9 15.6-24.6-.9-48.9-11.3-65.5-29.6-4.6-5-8.7-10.9-10.6-17.6-3.1-9.2-2.3-18.9-2-28.4 8.9 11.3 18.8 21.9 31 29.5 14.8 9.4 32.5 13.8 50 13.2 23.1-.3 46.3-8.5 63.7-23.9 6.4-5.2 11.3-12 16.2-18.5.1 9.6 1.1 19.4-2.3 28.6zm6.9-51.8c-16.7 4.5-35.9 2.9-50.3-7.4-13.4-9.3-21.3-24.9-23.4-40.9-1.8-15.3.3-31.3 7.5-45 4.8-9.3 12.3-17.3 21.6-22.2 7.8-4.3 16.7-6.3 25.4-6.9 12.2-.7 24.8 2 34.9 8.9 14.3 9.5 22.9 25.9 24.9 42.7 1.5 15.3-.5 31.4-8.2 45.1-6.7 12.5-18.6 22.1-32.4 25.7z"/></svg>