<svg xmlns="http://www.w3.org/2000/svg" viewBox="0 0 232.9 265.35" xmlns:v="https://vecta.io/nano"><path d="M232.9,193.67a11.85,11.85,0,0,1-5.4,9.4l-105.6,61a12.29,12.29,0,0,1-10.9,0l-105.6-61a12,12,0,0,1-5.4-9.4v-122a12,12,0,0,1,5.4-9.4L111,1.28a12.22,12.22,0,0,1,10.9,0l105.6,61a12,12,0,0,1,5.4,9.4Z"/><path fill="#01a6dc" d="M172.2 132.87l-27.5 40.4-14.2-21.7 16.3-24.4c3-4.4 9.5-16.2 2-32.6a33.93 33.93 0 0 0-61.5 0c-7.6 15.7-1 28 1.9 32.1l16.6 24.5 12.3 17.7 18.5 28.2c.1.2 3.1 4.7 8.3 4.7 4.9 0 8-4.4 8.3-5l43.3-64-24.3.1zm-54.2 1l-11.9-18.6c-5-8.2.6-20.5 11.9-20.5a13.67 13.67 0 0 1 11.9 20.5c-4.6 7.73-11.9 18.6-11.9 18.6z"/><path fill="#f80" d="M91.4 172l-27.1-38.13-11.9-18.6c-5-8.2.6-20.5 11.9-20.5a17.52 17.52 0 0 1 4 .5l9.6-17.5a33.87 33.87 0 0 0-44.2 16.8c-7.6 15.7-1 28 1.9 32.1l47.4 70.2c.4.61 3.4 5 8.4 5s8-4.3 8.3-4.89l14.3-21.81-12.3-18.1z"/></svg>