<svg xmlns="http://www.w3.org/2000/svg" viewBox="0 0 500 500"><path d="M493.5 424.1c0 38.1-31.2 69.4-69.4 69.4H75.9c-38.1 0-69.4-31.2-69.4-69.4V75.9c0-38.1 31.2-69.4 69.4-69.4h348.2c38.1 0 69.4 31.2 69.4 69.4v348.2z" fill-rule="evenodd" fill="#00af86"/><path d="M242.7 437.2c-18.7-5.5-23.2-16.4-27.9-33.4L160.2 211c-2.4-8.3-.9-10.3 7.6-10.2 23.3.3 18.6-3.5 24.9 18.6l50.9 179.5c1 3.5 1.9 7.6 6.4 7.6 4.3-.1 5.3-3.9 6.3-7.6l54.1-190.5c1.6-5.6 4.4-7.6 10.4-7.7 4.1-.1 8.2 0 12.3.1 7.4.1 9.1 2.5 7.1 9.6l-55.6 196.4c-3.5 16.1-8.4 24.2-25 29.8-3.7 1.3-13.4 1.6-16.9.6zm76.4-296.5C316 105.4 285.9 78 250.2 78s-66.3 28.2-69.4 63.5c-.6 6.5 1.3 8.4 7.8 8.1 14.9-.5 29.7 0 44.7-.3 4.5-.1 6.5.9 6.2 5.9-.4 6.1-.3 12.4 0 18.5.2 4.1-1.4 5.2-5.3 5.2-24.9-.1-49.8-.1-74.7 0-3.4 0-5.2-1-5.8-4.4-11.1-58.3 17.3-103.3 64.1-120.2 63-22.8 130.7 24.7 131.1 91.6.1 9-.3 17.9-3.2 26.6-1.1 3.4-3 5.8-6.2 5.9-7.6.2-15.3 1.7-22.8-1.1-2-2.5-1.3-5-.3-7.6 1.8-5.5 2.7-10.8 2.8-16.9 0-4 .2-7.1-.1-12.1zm-7.4 273.2h5.2c4.2 0 6.6 2.1 6.6 5 0 1.9-1.2 3.7-3.2 4.4l4.8 7.6h-3.5l-4.1-7h-2.7v7h-3.1v-17h0zm5.1 7.6c2 0 3.4-.9 3.4-2.7 0-1.6-1.1-2.7-3.4-2.7h-2.1v5.3h2.1zm.8 16.3a15.41 15.41 0 0 1-15.4-15.4 15.41 15.41 0 0 1 15.4-15.4 15.41 15.41 0 0 1 15.4 15.4c.1 8.5-6.8 15.4-15.4 15.4zm0-28.8c-7.4 0-13.3 6-13.3 13.3 0 7.4 6 13.3 13.3 13.3 7.4 0 13.3-6 13.3-13.3.1-7.3-5.9-13.3-13.3-13.3z" fill="#fefefe"/></svg>