<svg xmlns="http://www.w3.org/2000/svg" viewBox="0 0 500 500"><path d="M493.5 380.4c0 62.2-50.9 113.1-113.1 113.1H119.6c-62.2 0-113.1-50.9-113.1-113.1V119.6C6.5 57.4 57.4 6.5 119.6 6.5h260.8c62.2 0 113.1 50.9 113.1 113.1v260.8z" fill="#ff5b24"/><path d="M256.9 313.4c43.5 0 68-21.1 91.6-51.6 12.9-16.4 29.4-19.9 41.1-10.6 11.7 9.4 12.9 27 0 43.5-34 44.6-77.5 71.5-132.6 71.5-59.9 0-112.7-32.9-149-90.4-10.6-15.3-8.3-31.7 3.5-39.9s29.4-4.7 39.9 11.8c25.8 38.7 61 65.7 105.5 65.7zm81-144.4c0 21.1-16.4 35.2-35.2 35.2s-35.2-14.1-35.2-35.2 16.4-35.2 35.2-35.2 35.2 15.3 35.2 35.2z" fill="#fefdfd"/></svg>