<svg viewBox="0 0 32 32">
            <path fill="#005cef" style="fill: var(--color2, #005cef)" d="M30.387 5.21h-28.774c-0.659 0-1.197 0.538-1.197 1.197v4.474h31.168v-4.474c0-0.659-0.538-1.197-1.197-1.197z"></path>
            <path fill="#005cef" style="fill: var(--color2, #005cef)" d="M0.416 13.312v12.275c0 0.659 0.538 1.197 1.197 1.197h28.768c0.659 0 1.197-0.538 1.197-1.197v-12.275h-31.162zM8.474 22.182c0 0.429-0.352 0.781-0.781 0.781h-2.688c-0.429 0-0.781-0.352-0.781-0.781v-2.688c0-0.429 0.346-0.781 0.781-0.781h2.688c0.429 0 0.781 0.352 0.781 0.781v2.688z"></path>
        </svg>
