<svg xmlns="http://www.w3.org/2000/svg" viewBox="0 0 500 500"><path d="M250 27.7c-16.9 0-30.4 9.4-30.4 20.9L229.9 165c1.1 7 9.7 12.4 20.1 12.4s18.9-5.4 20.1-12.4l10.3-116.3c0-11.5-13.5-21-30.4-21h0zM82.6 121c-8.8.2-18.8 6.9-25.1 17.9-8.5 14.6-7 31 2.9 36.8L166.2 225c6.6 2.5 15.6-2.2 20.8-11.2s4.8-19.1-.7-23.6l-95.6-67c-2.4-1.6-5.2-2.2-8.1-2.2h0zm334.7 0a15.59 15.59 0 0 0-8.2 2l-95.6 67c-5.5 4.5-5.9 14.6-.7 23.6h0c5.2 9 14.2 13.7 20.8 11.2l105.9-49.3c10-5.7 11.4-22.1 3-36.8-6.4-10.8-16.3-17.5-25.2-17.7h0zM170.2 274.5c-1.4 0-2.7.2-3.9.7L60.5 324.3c-9.9 5.8-11.4 22.1-2.9 36.8 8.5 14.6 23.4 21.6 33.3 15.8l95.6-67c5.5-4.5 5.9-14.7.7-23.7h0c-4.3-7.2-11-11.7-17-11.7h0zm159.5 0c-5.9.1-12.6 4.5-16.9 11.9h0c-5.2 9-4.8 19.1.7 23.7l95.6 67c9.9 5.7 24.8-1.2 33.3-15.8 8.4-14.7 7-31-3-36.8l-105.9-49.2c-1.1-.6-2.4-.9-3.8-.8h0zM250 322.7c-10.4 0-18.9 5.4-20.1 12.4l-10.3 116.3c0 11.5 13.4 20.9 30.4 20.9 16.9 0 30.4-9.4 30.4-20.9L270.1 335c-1.2-7-9.7-12.3-20.1-12.3h0 0z" fill="#ffc220"/></svg>