<svg xmlns="http://www.w3.org/2000/svg" viewBox="0 0 500 500" fill="#006cb4" xmlns:v="https://vecta.io/nano"><path d="M248.8 10.2c38 0 74.2 8.7 106.6 24.3 5.1 2.3 10.2 5.1 15.3 7.8L348.5 62l-33.3-34.4L257.7 78l-33.8-36.1-105.6 93.9 67.7 73.7-26.4 22.9 66.7 73.7-26.5 22.9 95.5 104.9 56.5-51.3 49.2 55c-9.7 7.4-20.4 14.7-32 21.1-35.2 19.7-76 31.1-119.6 31.1-134.1-.1-243-107.6-243-240C6 118.3 114.9 10.1 248.8 10.2h0zm-44.4 224.9l57.9-51.3 51.9 57.3-58 51.2zm41.2 99l57.5-51.8 52.4 57.3-58 51.3zm-82.5-196.6l58-51.3 51.8 57.2-57.9 51.4zM269.2 110l43.1-38.4 38.9 42.6-43.1 38.9zm77 176.4l43-38.5 39 43.1-43.1 38.5zm38 86.6l43.1-38.5 38.9 42.6-43.1 38.9zm17.6-197.9l28.7-25.7 26 28.4-28.7 25.7zm-37.1-84.8l28.7-26.1 26 28.9-28.8 25.6-25.9-28.4zm73.7 169.5l28.7-25.6 26.4 28.4-29.2 25.7zm-129.3-63.6l43.1-38.5 38.9 42.6-43.1 38.5z"/></svg>