<svg xmlns="http://www.w3.org/2000/svg" viewBox="0 0 500 500"><path d="M183.6 307c-2.2 1.1-4.7 1.8-7.3 1.8a16.19 16.19 0 0 1-14.2-8.3l-1.1-2.3-44.3-97.3c-.5-1.1-.8-2.3-.8-3.4 0-4.5 3.6-8.1 8.1-8.1 1.8 0 3.5.6 4.9 1.6l52.3 37.2c3.8 2.5 8.4 4 13.3 4 2.9 0 5.7-.5 8.3-1.5l246-109.5c-44.1-52-116.7-85.9-198.9-85.9C115.5 35.2 6.5 126 6.5 238.1c0 61.1 32.8 116.2 84.1 153.4a16.24 16.24 0 0 1 6.8 13.2c0 1.8-.4 3.4-.9 5.2l-11 40.9c-.5 1.9-1.3 3.9-1.3 5.9 0 4.5 3.6 8.1 8.1 8.1 1.8 0 3.2-.7 4.7-1.5l53.3-30.8c4-2.3 8.3-3.7 12.9-3.7 2.5 0 4.9.4 7.2 1.1 25 7.1 51.8 11.1 79.6 11.1 134.5 0 243.5-90.9 243.5-202.9 0-33.9-10.1-65.9-27.7-94L185.4 305.9l-1.8 1.1z" fill-rule="evenodd" fill="#1fad4b"/></svg>