<svg xmlns="http://www.w3.org/2000/svg" viewBox="0 0 500 500" xmlns:v="https://vecta.io/nano"><path d="M279.9 8.4l-181 49.8L6.5 220.4l50.2 179.5 163.4 91.7 181-49.8 92.4-162.2-50.2-179.5z" fill="#604684"/><g fill="#fff"><path d="M220.4 169.5H219L195.5 238l-2.8 8.3c-.9 2.7-.9 5.5 0 8.1l23 66.7c1.2 3.5 3.9 6.3 7.3 7.6l4.4 1.6 23.6-68.8 3.2-9.3c.9-2.5.9-5.5 0-8l-22.8-66.3c-1.8-4.7-6.1-8-11-8.4h0zm162-4.5h-49.5c-2.8 0-5.3 1.7-6.3 4.5l-23 67-1.9 5.5a20.2 20.2 0 0 0 0 12.4l24.8 72.2c.9 2.7 3.5 4.3 6.1 4.1.7 0 1.5-.1 2.3-.3l53.8-156.7c.7-2 .4-4.3-.9-6-1.2-1.7-3.2-2.7-5.4-2.7z" opacity=".7" enable-background="new"/><path d="M220.9 334.9h-49.5c-2.8 0-5.3-1.7-6.3-4.5l-53.8-156.6c-.7-2-.4-4.3.9-6 1.2-1.7 3.2-2.8 5.5-2.8h49.5c2.8 0 5.3 1.7 6.3 4.5l53.8 156.7c.7 2 .4 4.3-.9 6s-3.4 2.7-5.5 2.7zm107.7 0h-49.5c-2.8 0-5.3-1.7-6.3-4.5L219 173.6c-.7-2-.4-4.3.9-6 1.2-1.7 3.2-2.8 5.5-2.8H275c2.8 0 5.3 1.7 6.3 4.5L335 326.1c.7 2 .4 4.3-.9 6-1.3 1.9-3.3 2.8-5.5 2.8z"/></g></svg>