<svg xmlns="http://www.w3.org/2000/svg" viewBox="0 0 500 500" xmlns:v="https://vecta.io/nano"><path d="M493.5 443.6c0 27.5-22.5 49.9-49.9 49.9H56.4C29 493.5 6.5 471 6.5 443.6V56.4C6.5 29 29 6.5 56.4 6.5h387c27.5 0 49.9 22.5 49.9 49.9l.2 387.2h0z" fill="#0d0d0d"/><path d="M278.74 165.666h-12.4l-14 103.4h-.4l-15.3-103.4h-67.3l-15.3 103.4h-.4l-13.9-103.4h-58.2l35.5 164.3h70.6l15.2-106.5h.5l15.2 106.5h70.6l3.5-16.5c-9-9.6-13.9-22.5-13.9-38.7v-109.1h0z" fill="#fddf12"/><path d="M278.74 165.666v109.2c0 16.2 4.8 29.1 13.9 38.7l32-147.8h-45.9z" fill="#fff"/><path d="M369.778 165.666v106.5c0 13-6.2 18-13 18s-13-5.1-13-18v-106.5h-13.9l-32.8 151.9c13.3 11.1 33.5 16.7 59.6 16.7 49.6 0 78-19.9 78-59.4v-109.2h-64.9zm-330.919-.032h-9.7l34.9 164.3h9.7l-34.9-164.3zm51.699 164.294h9.7l-34.9-164.3h-9.7l34.9 164.3zM455.114 173.64c-.1-1.1-.7-1.6-1.7-1.6-.8 0-1.7.4-1.7 1.4 0 1.1 1 1.3 1.9 1.5 1.6.4 3.9.9 3.9 3 0 2.6-2.3 3.5-4.5 3.5-2.4 0-4.1-.9-4-3.6h2.3c-.1 1.2.6 1.9 1.8 1.9.9 0 2.1-.3 2.1-1.4 0-1.2-1.5-1.3-2.4-1.6-1.5-.4-3.5-1-3.5-2.9 0-2.4 2.2-3.4 4.3-3.4 2 0 3.6 1.1 3.6 3.2h-2.1zm10.687 7.459h-1.9l-2.8-9h0v8.9h-2.1v-10.5h3.7l2.2 7.6h0l2.4-7.6h3.5v10.5h-2.1v-8.9h0l-2.9 9z" fill="#fddf12"/></svg>