<svg xmlns="http://www.w3.org/2000/svg" viewBox="0 0 500 500"><path d="M-22.1 211.8h0 0z" fill="#54b948"/><g fill="#009cde"><path d="M305 167.5L165.8 8c-.8-.9-1.8-1.4-3-1.4H60c-1.5 0-3 .9-3.6 2.3s-.4 3.1.6 4.3L193.1 169 33.6 352.4c-1 1.2-1.2 2.8-.6 4.3.7 1.4 2.1 2.3 3.7 2.3h103.8c1.1 0 2.3-.6 3-1.4L253.1 232c.3-.2.4-.3.5-.4l51.4-58.8c1.2-1.6 1.2-3.8 0-5.3zm161.4 184.9l-141-161.5c-.8-.9-1.9-1.4-3-1.4s-2.2.5-3 1.4l-51.5 59c-1.3 1.5-1.3 3.7-.1 5.2l89.6 102.6c.8.9 1.9 1.3 3 1.3h102.9c1.6 0 3-1 3.6-2.4.8-1.4.5-3.1-.5-4.2h0z"/><path d="M319.9 151h0c.7.9 1.9 1.4 3 1.4s2.3-.5 3-1.4L446.4 13.1c1-1.2 1.2-2.9.6-4.3s-2.1-2.3-3.6-2.3H339.2c-1.1 0-2.2.5-3 1.4l-68.4 78.4c-1.3 1.5-1.3 3.7 0 5.2l52.1 59.5zM134.3 488.5h0l-39.4-45.2 34.4-39.5c.3-.3.3-.7.2-1.1-.2-.4-.5-.6-.9-.6h-26c-.3 0-.6.1-.7.3l-21.3 24.4-21.2-24.3c-.2-.2-.5-.4-.7-.4H32.9c-.4 0-.7.2-.9.6s-.1.8.2 1.1l34 38.9-39.8 45.8c-.3.3-.3.7-.2 1.1.2.3.5.6.9.6H53c.3 0 .6-.1.8-.4l26.7-30.5 26.7 30.6a1.08 1.08 0 0 0 .7.3h25.7c.4 0 .7-.2.9-.6a1.39 1.39 0 0 0-.2-1.1zm43-89.1h0c-27.2 0-48.6 20.7-48.6 47v.3c0 26.7 20.8 46.8 48.3 46.8 27.2 0 48.6-20.7 48.6-47v-.3c0-26.7-20.7-46.8-48.3-46.8zm26.9 47.3c0 15.9-11.6 27.9-26.9 27.9-15.5 0-27.2-12.1-27.2-28.1v-.3h0c0-15.9 11.6-27.9 26.9-27.9 15.5 0 27.2 12.1 27.2 28.1v.3zm77.6-47.3h0c-27.2 0-48.6 20.7-48.6 47v.3c0 26.7 20.8 46.8 48.3 46.8 27.3 0 48.6-20.7 48.6-47v-.3c0-26.7-20.8-46.8-48.3-46.8zm26.9 47.3c0 15.9-11.6 27.9-26.9 27.9-15.5 0-27.2-12.1-27.2-28.1v-.3c0-15.9 11.6-27.9 26.9-27.9 15.5 0 27.2 12.1 27.2 28.1v.3zm133.9-46.3c-11.4 0-20.7 4.4-28.5 13.6-5.3-8.8-14.2-13.6-25.4-13.6-11.8 0-19.1 5.5-24.2 11.5v-8.1a1.58 1.58 0 0 0-1.6-1.6h-19.4a1.58 1.58 0 0 0-1.6 1.6v84.7a1.58 1.58 0 0 0 1.6 1.6h19.4a1.58 1.58 0 0 0 1.6-1.6v-47.7c0-11.8 6.5-19.5 16.5-19.5s15.5 6.7 15.5 18.8v48.4a1.58 1.58 0 0 0 1.6 1.6h19.4a1.58 1.58 0 0 0 1.6-1.6v-47.9c0-12.1 6.2-19.3 16.5-19.3 12.8 0 15.5 10.3 15.5 19v48.2a1.58 1.58 0 0 0 1.6 1.6h19.4a1.58 1.58 0 0 0 1.6-1.6v-54.1c.2-21.3-11.5-34-31.1-34z"/></g></svg>