<svg xmlns="http://www.w3.org/2000/svg" viewBox="0 0 500 500" xml:space="preserve"><path d="M493.5 379.4c0 62.7-51.3 114.1-114.1 114.1H120.7C58 493.5 6.5 442.2 6.5 379.4V120.6C6.5 57.9 57.9 6.5 120.7 6.5h258.6c62.7 0 114.1 51.3 114.1 114.1v258.8z" /><path d="M269.9 174.1H160c-9.6 0-12.8-3.3-12.8-12.9v-34.7c0-7.8 3.8-11.6 11.7-11.6 19.5-.1 39 0 58.5 0h5.7c.1-2 .2-3.7.2-5.4V72.9c0-5.8 2.6-8.4 8.4-8.5 14.1-.1 28.2-.1 42.3 0 5.8 0 8.4 2.7 8.4 8.5v41.9h64.9c9.1 0 12.6 3.6 12.7 12.7 0 9.2-.2 18.4.1 27.6.1 4.9-1.4 8.8-4.3 12.6-40 51-79.9 102-119.8 153.2-1.5 1.9-2.8 3.7-4.9 6.4 2.6.1 4.4.3 6.2.3h109.4c10 0 13.4 3.3 13.4 13.4v33.8c0 8.3-3.9 12.1-12.3 12.1h-65.3v42c0 5.7-2.7 8.6-8.4 8.6-14.1.1-28.2.1-42.3 0-5.7 0-8.4-2.8-8.4-8.6-.1-13.8 0-27.5 0-41.7-2-.1-3.7-.2-5.5-.2h-64.2c-8.5 0-12.2-3.7-12.2-12.2 0-10 .2-20-.1-29.9-.1-4.7 1.3-8.5 4.2-12.2 39.8-50.7 79.4-101.3 119.1-152 1.4-1.8 2.9-3.7 5.2-6.6z" style="fill-rule:evenodd;clip-rule:evenodd;fill:#fdfdfe"/></svg>