<?xml version="1.0" encoding="utf-8"?>
<!-- Generator: Adobe Illustrator 24.2.0, SVG Export Plug-In . SVG Version: 6.00 Build 0)  -->
<svg version="1.1" id="Layer_1" xmlns="http://www.w3.org/2000/svg" xmlns:xlink="http://www.w3.org/1999/xlink" x="0px" y="0px"
	 viewBox="0 0 500 500" style="enable-background:new 0 0 500 500;" xml:space="preserve">
<style type="text/css">
	.st0{fill-rule:evenodd;clip-rule:evenodd;fill:#6D1ED3;}
	.st1{fill-rule:evenodd;clip-rule:evenodd;fill:#FDFDFE;}
</style>
<g>
	<path class="st0" d="M493.5,379.4c0,62.7-51.3,114.1-114.1,114.1H120.7C58,493.5,6.5,442.2,6.5,379.4V120.6
		C6.5,57.9,57.9,6.5,120.7,6.5h258.6c62.7,0,114.1,51.3,114.1,114.1V379.4z"/>
	<g>
		<g>
			<path class="st1" d="M269.9,174.1c-2.8,0-4.6,0-6.2,0c-34.5,0-69.1,0-103.7,0c-9.6,0-12.8-3.3-12.8-12.9c0-11.6,0-23.1,0-34.7
				c0-7.8,3.8-11.6,11.7-11.6c19.5-0.1,39,0,58.5,0c1.8,0,3.4,0,5.7,0c0.1-2,0.2-3.7,0.2-5.4c0-12.2,0-24.4,0-36.6
				c0-5.8,2.6-8.4,8.4-8.5c14.1-0.1,28.2-0.1,42.3,0c5.8,0,8.4,2.7,8.4,8.5c0,13.8,0,27.5,0,41.9c2,0,3.8,0,5.5,0
				c19.8,0,39.6,0,59.4,0c9.1,0,12.6,3.6,12.7,12.7c0,9.2-0.2,18.4,0.1,27.6c0.1,4.9-1.4,8.8-4.3,12.6c-40,51-79.9,102-119.8,153.2
				c-1.5,1.9-2.8,3.7-4.9,6.4c2.6,0.1,4.4,0.3,6.2,0.3c36.5,0,72.9,0,109.4,0c10,0,13.4,3.3,13.4,13.4c0,11.2,0,22.5,0,33.8
				c0,8.3-3.9,12.1-12.3,12.1c-19.8,0-39.6,0-59.4,0c-1.8,0-3.4,0-5.9,0c0,1.8,0,3.3,0,4.9c0,12.4,0,24.7,0,37.1
				c0,5.7-2.7,8.6-8.4,8.6c-14.1,0.1-28.2,0.1-42.3,0c-5.7,0-8.4-2.8-8.4-8.6c-0.1-13.8,0-27.5,0-41.7c-2-0.1-3.7-0.2-5.5-0.2
				c-21.4,0-42.8,0-64.2,0c-8.5,0-12.2-3.7-12.2-12.2c0-10,0.2-20-0.1-29.9c-0.1-4.7,1.3-8.5,4.2-12.2
				C185.4,282,225,231.4,264.7,180.7C266.1,178.9,267.6,177,269.9,174.1z"/>
		</g>
	</g>
</g>
</svg>
