<svg width="200" height="59" viewBox="0 0 200 59" fill="none" xmlns="http://www.w3.org/2000/svg">
<path d="M198.022 51.6959C198.022 54.7594 195.489 57.241 192.356 57.241H6.91423C3.78237 57.241 1.24023 54.7594 1.24023 51.6959V7.47566C1.24023 4.41356 3.78237 1.92334 6.91423 1.92334H192.354C195.489 1.92334 198.021 4.41356 198.021 7.47566L198.022 51.6959Z" fill="black"/>
<path d="M191.758 1.98979C195.17 1.98979 197.947 4.69707 197.947 8.02413V51.1393C197.947 54.4664 195.17 57.1737 191.758 57.1737H7.50489C4.09252 57.1737 1.31583 54.4664 1.31583 51.1393V8.02413C1.31583 4.69707 4.09252 1.98979 7.50489 1.98979H191.758ZM191.758 0.838261H7.50489C3.45316 0.838261 0.134766 4.0737 0.134766 8.02413V51.1393C0.134766 55.0898 3.45316 58.3252 7.50489 58.3252H191.758C195.81 58.3252 199.128 55.0898 199.128 51.1393V8.02413C199.128 4.0737 195.81 0.838261 191.758 0.838261Z" fill="#A6A6A6"/>
<path d="M44.5441 29.2711C44.5013 24.6391 48.434 22.3856 48.6138 22.2807C46.3866 19.1146 42.9344 18.682 41.7213 18.6475C38.8219 18.35 36.0095 20.339 34.5325 20.339C33.026 20.339 30.7516 18.6762 28.3003 18.7251C25.1459 18.7725 22.1949 20.5532 20.5764 23.3183C17.2363 28.9563 19.7274 37.2416 22.9275 41.7989C24.5283 44.0308 26.3988 46.5229 28.8472 46.4352C31.2425 46.3389 32.1372 44.9463 35.0278 44.9463C37.8918 44.9463 38.732 46.4352 41.229 46.3792C43.7997 46.3389 45.4182 44.1372 46.9629 41.8852C48.8128 39.327 49.5557 36.8076 49.5852 36.6783C49.5248 36.6582 44.5927 34.8229 44.5441 29.2711Z" fill="white"/>
<path d="M39.8272 15.6496C41.1155 14.0787 41.9969 11.9416 41.7523 9.77295C39.8876 9.85343 37.5557 11.0305 36.2129 12.5668C35.0248 13.9206 33.9635 16.1396 34.2377 18.2264C36.3323 18.3787 38.4829 17.1959 39.8272 15.6496Z" fill="white"/>
<path d="M72.4361 15.223C72.4361 16.9146 71.9157 18.1879 70.8765 19.043C69.914 19.832 68.5461 20.2273 66.7743 20.2273C65.8958 20.2273 65.1441 20.1899 64.5146 20.1152V10.8727C65.3357 10.7434 66.2201 10.6772 67.1753 10.6772C68.863 10.6772 70.1351 11.0351 70.993 11.7508C71.9541 12.5599 72.4361 13.7169 72.4361 15.223ZM70.8073 15.2647C70.8073 14.1681 70.5095 13.3274 69.914 12.741C69.3185 12.1561 68.4488 11.8629 67.3035 11.8629C66.8171 11.8629 66.4029 11.8945 66.0594 11.9606V18.987C66.2496 19.0157 66.5974 19.0287 67.103 19.0287C68.2852 19.0287 69.1976 18.7082 69.8403 18.0672C70.483 17.4262 70.8073 16.4921 70.8073 15.2647Z" fill="white"/>
<path d="M81.0722 16.7003C81.0722 17.7422 80.767 18.5959 80.1568 19.2656C79.5171 19.9541 78.6695 20.2975 77.6112 20.2975C76.5911 20.2975 75.779 19.9684 75.1731 19.3073C74.5688 18.6477 74.2666 17.8155 74.2666 16.8124C74.2666 15.7633 74.5776 14.9024 75.2026 14.2341C75.8276 13.5658 76.6678 13.231 77.7261 13.231C78.7462 13.231 79.5657 13.5601 80.1863 14.2197C80.7759 14.8607 81.0722 15.6885 81.0722 16.7003ZM79.4699 16.7492C79.4699 16.124 79.3314 15.5879 79.0557 15.141C78.7314 14.6006 78.2701 14.3304 77.6701 14.3304C77.0496 14.3304 76.5779 14.6006 76.2536 15.141C75.9765 15.5879 75.8394 16.1326 75.8394 16.7765C75.8394 17.4016 75.9779 17.9377 76.2536 18.3847C76.5882 18.925 77.054 19.1952 77.6554 19.1952C78.245 19.1952 78.7078 18.9207 79.041 18.3703C79.3269 17.9147 79.4699 17.3743 79.4699 16.7492Z" fill="white"/>
<path d="M92.6525 13.3691L90.4784 20.144H89.0633L88.1627 17.2021C87.9342 16.4677 87.7485 15.7376 87.604 15.0133H87.576C87.4419 15.7577 87.2561 16.4864 87.0173 17.2021L86.0607 20.144H84.6294L82.585 13.3691H84.1725L84.9581 16.5898C85.1483 17.3515 85.3045 18.0773 85.4298 18.7643H85.4578C85.5728 18.198 85.763 17.4766 86.0312 16.6042L87.0173 13.3706H88.2762L89.221 16.5352C89.4495 17.307 89.6352 18.05 89.7782 18.7657H89.8209C89.9256 18.0687 90.0833 17.3257 90.2926 16.5352L91.1358 13.3706H92.6525V13.3691Z" fill="white"/>
<path d="M100.66 20.1437H99.1157V16.2633C99.1157 15.0676 98.6499 14.4697 97.7154 14.4697C97.257 14.4697 96.887 14.6336 96.5995 14.9627C96.3151 15.2918 96.1706 15.6798 96.1706 16.1239V20.1422H94.6258V15.3047C94.6258 14.7097 94.6067 14.0644 94.5698 13.366H95.9274L95.9996 14.4252H96.0424C96.2222 14.0961 96.4905 13.8244 96.8428 13.6074C97.2614 13.3545 97.7301 13.2266 98.2431 13.2266C98.8916 13.2266 99.4311 13.4306 99.8601 13.8402C100.394 14.3418 100.66 15.0906 100.66 16.0851V20.1437V20.1437Z" fill="white"/>
<path d="M104.921 20.1437H103.377V10.2603H104.921V20.1437Z" fill="white"/>
<path d="M114.016 16.7003C114.016 17.7422 113.71 18.5959 113.1 19.2656C112.46 19.9541 111.611 20.2975 110.555 20.2975C109.533 20.2975 108.721 19.9684 108.116 19.3073C107.512 18.6477 107.21 17.8155 107.21 16.8124C107.21 15.7633 107.521 14.9024 108.146 14.2341C108.771 13.5658 109.611 13.231 110.668 13.231C111.69 13.231 112.508 13.5601 113.13 14.2197C113.719 14.8607 114.016 15.6885 114.016 16.7003ZM112.412 16.7492C112.412 16.124 112.273 15.5879 111.998 15.141C111.675 14.6006 111.212 14.3304 110.613 14.3304C109.991 14.3304 109.52 14.6006 109.197 15.141C108.92 15.5879 108.783 16.1326 108.783 16.7765C108.783 17.4016 108.921 17.9377 109.197 18.3847C109.532 18.925 109.997 19.1952 110.599 19.1952C111.188 19.1952 111.65 18.9207 111.983 18.3703C112.27 17.9147 112.412 17.3743 112.412 16.7492Z" fill="white"/>
<path d="M121.492 20.1438H120.105L119.99 19.3634H119.947C119.472 19.9857 118.796 20.2975 117.917 20.2975C117.261 20.2975 116.73 20.092 116.331 19.6839C115.968 19.3131 115.787 18.8517 115.787 18.3042C115.787 17.4764 116.141 16.8454 116.853 16.4085C117.563 15.9716 118.563 15.7575 119.85 15.7676V15.6411C119.85 14.7486 119.369 14.3031 118.406 14.3031C117.721 14.3031 117.117 14.4712 116.595 14.8047L116.281 13.8159C116.927 13.4264 117.724 13.231 118.664 13.231C120.48 13.231 121.391 14.1651 121.391 16.0334V18.5284C121.391 19.2053 121.425 19.7442 121.492 20.1438ZM119.888 17.8155V16.7707C118.184 16.742 117.332 17.1976 117.332 18.136C117.332 18.4896 117.429 18.754 117.628 18.9308C117.827 19.1076 118.081 19.1952 118.383 19.1952C118.722 19.1952 119.039 19.0903 119.328 18.8819C119.618 18.6721 119.796 18.4062 119.863 18.08C119.879 18.0067 119.888 17.9176 119.888 17.8155Z" fill="white"/>
<path d="M130.269 20.1437H128.898L128.826 19.0558H128.784C128.346 19.8836 127.6 20.2975 126.552 20.2975C125.715 20.2975 125.017 19.977 124.465 19.336C123.912 18.695 123.636 17.8629 123.636 16.8411C123.636 15.7445 123.935 14.8563 124.537 14.178C125.119 13.5456 125.833 13.2295 126.682 13.2295C127.615 13.2295 128.268 13.5356 128.639 14.1492H128.669V10.2603H130.215V18.3185C130.215 18.9781 130.232 19.5861 130.269 20.1437ZM128.669 17.2866V16.157C128.669 15.9615 128.654 15.8034 128.626 15.6827C128.539 15.3205 128.352 15.0159 128.067 14.7701C127.78 14.5243 127.433 14.4008 127.034 14.4008C126.457 14.4008 126.006 14.6235 125.675 15.0705C125.346 15.5174 125.18 16.088 125.18 16.785C125.18 17.4547 125.337 17.998 125.654 18.4162C125.989 18.8617 126.44 19.0845 127.004 19.0845C127.511 19.0845 127.917 18.8991 128.225 18.5269C128.523 18.1834 128.669 17.7695 128.669 17.2866Z" fill="white"/>
<path d="M143.481 16.7003C143.481 17.7422 143.176 18.5959 142.566 19.2656C141.926 19.9541 141.08 20.2975 140.02 20.2975C139.002 20.2975 138.19 19.9684 137.582 19.3073C136.978 18.6477 136.676 17.8155 136.676 16.8124C136.676 15.7633 136.987 14.9024 137.612 14.2341C138.237 13.5658 139.077 13.231 140.137 13.231C141.155 13.231 141.976 13.5601 142.595 14.2197C143.185 14.8607 143.481 15.6885 143.481 16.7003ZM141.881 16.7492C141.881 16.124 141.742 15.5879 141.466 15.141C141.141 14.6006 140.681 14.3304 140.079 14.3304C139.46 14.3304 138.989 14.6006 138.663 15.141C138.386 15.5879 138.249 16.1326 138.249 16.7765C138.249 17.4016 138.387 17.9377 138.663 18.3847C138.997 18.925 139.463 19.1952 140.065 19.1952C140.654 19.1952 141.118 18.9207 141.452 18.3703C141.736 17.9147 141.881 17.3743 141.881 16.7492Z" fill="white"/>
<path d="M151.787 20.1437H150.244V16.2633C150.244 15.0676 149.778 14.4697 148.842 14.4697C148.383 14.4697 148.013 14.6336 147.727 14.9627C147.442 15.2918 147.299 15.6798 147.299 16.1239V20.1422H145.752V15.3047C145.752 14.7097 145.735 14.0644 145.698 13.366H147.054L147.126 14.4252H147.169C147.35 14.0961 147.618 13.8244 147.969 13.6074C148.389 13.3545 148.857 13.2266 149.371 13.2266C150.018 13.2266 150.558 13.4306 150.987 13.8402C151.522 14.3418 151.787 15.0906 151.787 16.0851V20.1437V20.1437Z" fill="white"/>
<path d="M162.184 14.4971H160.483V17.7882C160.483 18.6246 160.785 19.0428 161.383 19.0428C161.66 19.0428 161.89 19.0198 162.072 18.9724L162.111 20.115C161.806 20.2271 161.405 20.2831 160.911 20.2831C160.301 20.2831 159.827 20.102 159.483 19.7399C159.138 19.3777 158.967 18.7683 158.967 17.9132V14.4971H157.952V13.3689H158.967V12.1272L160.481 11.6816V13.3674H162.182V14.4971H162.184Z" fill="white"/>
<path d="M170.361 20.1437H168.815V16.2921C168.815 15.0777 168.349 14.4697 167.416 14.4697C166.7 14.4697 166.21 14.8218 165.942 15.5261C165.897 15.6741 165.87 15.8552 165.87 16.0679V20.1423H164.327V10.2603H165.87V14.3433H165.899C166.386 13.6002 167.083 13.2295 167.987 13.2295C168.626 13.2295 169.156 13.4335 169.576 13.8431C170.099 14.3533 170.361 15.1122 170.361 16.1153V20.1437V20.1437Z" fill="white"/>
<path d="M178.797 16.4356C178.797 16.7058 178.777 16.9329 178.74 17.1183H174.107C174.128 17.788 174.349 18.2982 174.778 18.6517C175.17 18.9679 175.675 19.126 176.294 19.126C176.98 19.126 177.605 19.0196 178.168 18.8055L178.41 19.8518C177.751 20.1306 176.975 20.27 176.078 20.27C175.002 20.27 174.154 19.961 173.541 19.343C172.925 18.725 172.62 17.8958 172.62 16.8553C172.62 15.8334 172.904 14.9826 173.478 14.3043C174.076 13.5799 174.885 13.2178 175.907 13.2178C176.906 13.2178 177.665 13.5799 178.178 14.3043C178.592 14.8791 178.797 15.5905 178.797 16.4356ZM177.323 16.0461C177.335 15.5992 177.233 15.214 177.024 14.8892C176.756 14.471 176.347 14.2612 175.795 14.2612C175.291 14.2612 174.879 14.4652 174.565 14.8748C174.309 15.2011 174.157 15.5905 174.107 16.0461H177.323Z" fill="white"/>
<path d="M79.2086 46.1152H75.8611L74.0274 40.4973H67.6537L65.907 46.1152H62.6479L68.9627 26.9893H72.8629L79.2086 46.1152ZM73.4747 38.1403L71.8164 33.1461C71.641 32.6359 71.3123 31.4344 70.8273 29.5431H70.7683C70.5752 30.3566 70.2642 31.558 69.8368 33.1461L68.208 38.1403H73.4747V38.1403Z" fill="white"/>
<path d="M95.4481 39.0501C95.4481 41.3956 94.7981 43.2495 93.498 44.6105C92.3335 45.8221 90.8875 46.4271 89.1614 46.4271C87.2982 46.4271 85.9598 45.7746 85.1447 44.4697H85.0857V51.7346H81.9431V36.8642C81.9431 35.3896 81.9033 33.8763 81.8267 32.3241H84.5905L84.7659 34.5101H84.8248C85.8729 32.8631 87.4633 32.041 89.5977 32.041C91.2663 32.041 92.6593 32.6834 93.7736 33.9697C94.8909 35.2574 95.4481 36.9504 95.4481 39.0501ZM92.2465 39.1622C92.2465 37.8199 91.937 36.7133 91.315 35.8423C90.6354 34.934 89.723 34.4799 88.5792 34.4799C87.8038 34.4799 87.0992 34.7328 86.4698 35.2315C85.8389 35.7346 85.4262 36.3913 85.2331 37.2048C85.1358 37.5842 85.0872 37.8946 85.0872 38.1389V40.4384C85.0872 41.4416 85.4026 42.2881 86.0335 42.9793C86.6644 43.6706 87.484 44.0155 88.4922 44.0155C89.6758 44.0155 90.5971 43.57 91.256 42.6818C91.9164 41.7922 92.2465 40.6195 92.2465 39.1622Z" fill="white"/>
<path d="M111.717 39.0501C111.717 41.3956 111.067 43.2495 109.765 44.6105C108.602 45.8221 107.156 46.4271 105.43 46.4271C103.567 46.4271 102.228 45.7746 101.415 44.4697H101.356V51.7346H98.2131V36.8642C98.2131 35.3896 98.1733 33.8763 98.0967 32.3241H100.86L101.036 34.5101H101.095C102.141 32.8631 103.732 32.041 105.868 32.041C107.535 32.041 108.928 32.6834 110.045 33.9697C111.158 35.2574 111.717 36.9504 111.717 39.0501ZM108.515 39.1622C108.515 37.8199 108.204 36.7133 107.582 35.8423C106.902 34.934 105.993 34.4799 104.848 34.4799C104.071 34.4799 103.368 34.7328 102.737 35.2315C102.106 35.7346 101.695 36.3913 101.502 37.2048C101.406 37.5842 101.356 37.8946 101.356 38.1389V40.4384C101.356 41.4416 101.671 42.2881 102.299 42.9793C102.93 43.6692 103.75 44.0155 104.761 44.0155C105.944 44.0155 106.866 43.57 107.525 42.6818C108.185 41.7922 108.515 40.6195 108.515 39.1622Z" fill="white"/>
<path d="M129.906 40.7516C129.906 42.3785 129.327 43.7021 128.164 44.724C126.886 45.8406 125.107 46.3983 122.821 46.3983C120.71 46.3983 119.018 46.0016 117.737 45.2068L118.465 42.653C119.845 43.4664 121.358 43.8746 123.008 43.8746C124.192 43.8746 125.113 43.613 125.775 43.0928C126.434 42.5725 126.762 41.874 126.762 41.0031C126.762 40.227 126.491 39.5731 125.947 39.0428C125.406 38.5125 124.503 38.0195 123.241 37.564C119.806 36.3151 118.091 34.4855 118.091 32.0797C118.091 30.5074 118.692 29.2183 119.896 28.2151C121.096 27.2106 122.697 26.709 124.699 26.709C126.484 26.709 127.967 27.0122 129.15 27.6173L128.365 30.1151C127.259 29.5287 126.009 29.2355 124.61 29.2355C123.505 29.2355 122.641 29.5014 122.022 30.0303C121.499 30.5031 121.236 31.0794 121.236 31.7621C121.236 32.518 121.535 33.1432 122.137 33.6347C122.66 34.0889 123.611 34.5804 124.99 35.1107C126.678 35.7732 127.918 36.5479 128.715 37.4361C129.51 38.3213 129.906 39.4294 129.906 40.7516Z" fill="white"/>
<path d="M140.297 34.6235H136.833V41.3192C136.833 43.0223 137.443 43.8731 138.667 43.8731C139.228 43.8731 139.694 43.8257 140.062 43.7308L140.149 46.0576C139.53 46.2832 138.715 46.3968 137.705 46.3968C136.464 46.3968 135.494 46.0274 134.794 45.2902C134.097 44.5515 133.746 43.3126 133.746 41.5722V34.6206H131.683V32.3211H133.746V29.796L136.833 28.8877V32.3211H140.297V34.6235Z" fill="white"/>
<path d="M155.926 39.1062C155.926 41.226 155.304 42.9664 154.062 44.3274C152.761 45.7287 151.033 46.4272 148.88 46.4272C146.804 46.4272 145.152 45.756 143.92 44.4137C142.687 43.0713 142.071 41.3769 142.071 39.3347C142.071 37.1976 142.705 35.4471 143.977 34.0861C145.246 32.7237 146.959 32.0425 149.113 32.0425C151.188 32.0425 152.858 32.7136 154.118 34.0574C155.324 35.3609 155.926 37.0438 155.926 39.1062ZM152.665 39.2054C152.665 37.9335 152.387 36.8426 151.822 35.9329C151.163 34.832 150.221 34.283 149.001 34.283C147.737 34.283 146.778 34.8335 146.119 35.9329C145.554 36.8441 145.276 37.9521 145.276 39.2628C145.276 40.5347 145.554 41.6256 146.119 42.5338C146.798 43.6347 147.748 44.1837 148.973 44.1837C150.173 44.1837 151.114 43.6232 151.794 42.5051C152.373 41.5781 152.665 40.4758 152.665 39.2054Z" fill="white"/>
<path d="M166.141 35.0188C165.83 34.9628 165.498 34.934 165.15 34.934C164.045 34.934 163.19 35.3408 162.588 36.1556C162.065 36.8742 161.803 37.7825 161.803 38.8791V46.1153H158.662L158.691 36.6673C158.691 35.0778 158.651 33.6305 158.573 32.3256H161.311L161.425 34.9642H161.512C161.844 34.0574 162.367 33.3273 163.084 32.7797C163.784 32.2868 164.54 32.041 165.355 32.041C165.646 32.041 165.908 32.0611 166.141 32.0971V35.0188Z" fill="white"/>
<path d="M180.195 38.5672C180.195 39.1162 180.159 39.579 180.08 39.957H170.653C170.689 41.3194 171.145 42.3614 172.021 43.0799C172.815 43.7224 173.842 44.0443 175.104 44.0443C176.5 44.0443 177.774 43.8273 178.919 43.3918L179.411 45.5188C178.073 46.0879 176.493 46.3711 174.669 46.3711C172.476 46.3711 170.754 45.7416 169.501 44.4841C168.251 43.2265 167.625 41.5378 167.625 39.4195C167.625 37.3399 168.207 35.6081 169.373 34.2269C170.594 32.7524 172.243 32.0151 174.319 32.0151C176.357 32.0151 177.9 32.7524 178.948 34.2269C179.778 35.3982 180.195 36.8469 180.195 38.5672ZM177.199 37.7725C177.219 36.8642 177.015 36.0795 176.589 35.4169C176.045 34.5647 175.209 34.1393 174.084 34.1393C173.057 34.1393 172.221 34.5546 171.583 35.3882C171.059 36.0507 170.748 36.8455 170.653 37.771H177.199V37.7725Z" fill="white"/>
</svg>
