<svg width="230" height="67" viewBox="0 0 230 67" fill="none" xmlns="http://www.w3.org/2000/svg">
<path d="M220.593 66.7056H8.77731C4.11949 66.7056 0.304688 62.9862 0.304688 58.4448V8.87994C0.304688 4.33856 4.11949 0.619128 8.77731 0.619128H220.593C225.251 0.619128 229.066 4.33856 229.066 8.87994V58.4448C229.066 62.9862 225.251 66.7056 220.593 66.7056Z" fill="black"/>
<path d="M220.593 1.94292C224.516 1.94292 227.708 5.05518 227.708 8.87994V58.4448C227.708 62.2695 224.516 65.3818 220.593 65.3818H8.77731C4.85449 65.3818 1.66243 62.2695 1.66243 58.4448V8.87994C1.66243 5.05518 4.85449 1.94292 8.77731 1.94292H220.593ZM220.593 0.619128H8.77731C4.11949 0.619128 0.304688 4.33856 0.304688 8.87994V58.4448C0.304688 62.9862 4.11949 66.7056 8.77731 66.7056H220.593C225.251 66.7056 229.066 62.9862 229.066 58.4448V8.87994C229.066 4.33856 225.251 0.619128 220.593 0.619128Z" fill="#A6A6A6"/>
<path d="M17.9871 13.0744C17.4894 13.5824 17.2013 14.3734 17.2013 15.3977V51.9353C17.2013 52.9596 17.4894 53.7506 17.9871 54.2586L18.11 54.3701L39.1094 33.904V33.4207L18.11 12.9546L17.9871 13.0744Z" fill="url(#paint0_linear_57_134)"/>
<path d="M46.1014 40.7294L39.1093 33.9039V33.4207L46.1098 26.5952L46.2666 26.684L54.557 31.2832C56.923 32.5884 56.923 34.7362 54.557 36.0497L46.2666 40.6406L46.1014 40.7294Z" fill="url(#paint1_linear_57_134)"/>
<path d="M46.2666 40.6407L39.1094 33.6623L17.9871 54.2586C18.773 55.064 20.0544 55.1611 21.5117 54.3557L46.2666 40.6407Z" fill="url(#paint2_linear_57_134)"/>
<path d="M46.2666 26.684L21.5117 12.969C20.0544 12.1719 18.773 12.2689 17.9871 13.0744L39.1094 33.6624L46.2666 26.684Z" fill="url(#paint3_linear_57_134)"/>
<path d="M80.6548 17.5434C80.6548 18.923 80.2312 20.0279 79.3966 20.8519C78.4371 21.8287 77.1874 22.3202 75.6559 22.3202C74.1923 22.3202 72.9426 21.8205 71.9174 20.8354C70.8901 19.8358 70.3775 18.6091 70.3775 17.1407C70.3775 15.6724 70.8901 14.4456 71.9174 13.4543C72.9426 12.461 74.1923 11.9612 75.6559 11.9612C76.3846 11.9612 77.0793 12.1078 77.7423 12.3804C78.4032 12.6551 78.9412 13.0268 79.3309 13.4853L78.4456 14.3568C77.7656 13.5741 76.84 13.1879 75.6559 13.1879C74.5884 13.1879 73.6628 13.5514 72.8769 14.2845C72.0996 15.0197 71.7098 15.9718 71.7098 17.1407C71.7098 18.3096 72.0996 19.2699 72.8769 20.0051C73.6628 20.73 74.5884 21.1018 75.6559 21.1018C76.7892 21.1018 77.7423 20.73 78.4943 19.9969C78.9899 19.5116 79.2716 18.8424 79.3458 17.9874H75.6559V16.7938H80.5785C80.6378 17.0519 80.6548 17.3018 80.6548 17.5434Z" fill="white" stroke="white" stroke-width="0.176231" stroke-miterlimit="10"/>
<path d="M88.4644 13.4048H83.8405V16.5439H88.009V17.7376H83.8405V20.8767H88.4644V22.0931H82.5315V12.1884H88.4644V13.4048Z" fill="white" stroke="white" stroke-width="0.176231" stroke-miterlimit="10"/>
<path d="M93.9759 22.0931H92.6668V13.4048H89.8306V12.1884H96.8142V13.4048H93.9759V22.0931Z" fill="white" stroke="white" stroke-width="0.176231" stroke-miterlimit="10"/>
<path d="M101.868 22.0931V12.1884H103.175V22.0931H101.868Z" fill="white" stroke="white" stroke-width="0.176231" stroke-miterlimit="10"/>
<path d="M108.968 22.0931H107.67V13.4048H104.823V12.1884H111.815V13.4048H108.968V22.0931Z" fill="white" stroke="white" stroke-width="0.176231" stroke-miterlimit="10"/>
<path d="M125.037 20.8188C124.035 21.8205 122.793 22.3202 121.313 22.3202C119.824 22.3202 118.583 21.8205 117.581 20.8188C116.581 19.8193 116.083 18.5925 116.083 17.1407C116.083 15.6889 116.581 14.4621 117.581 13.4626C118.583 12.461 119.824 11.9612 121.313 11.9612C122.785 11.9612 124.026 12.461 125.028 13.4708C126.036 14.4787 126.534 15.6971 126.534 17.1407C126.534 18.5925 126.036 19.8193 125.037 20.8188ZM118.549 19.9886C119.303 20.73 120.22 21.1018 121.313 21.1018C122.397 21.1018 123.323 20.73 124.069 19.9886C124.82 19.2472 125.202 18.2952 125.202 17.1407C125.202 15.9863 124.82 15.0342 124.069 14.2928C123.323 13.5514 122.397 13.1797 121.313 13.1797C120.22 13.1797 119.303 13.5514 118.549 14.2928C117.797 15.0342 117.415 15.9863 117.415 17.1407C117.415 18.2952 117.797 19.2472 118.549 19.9886Z" fill="white" stroke="white" stroke-width="0.176231" stroke-miterlimit="10"/>
<path d="M128.37 22.0931V12.1884H129.959L134.899 19.8916H134.956L134.899 17.9875V12.1884H136.206V22.0931H134.841L129.669 14.0099H129.612L129.669 15.9223V22.0931H128.37Z" fill="white" stroke="white" stroke-width="0.176231" stroke-miterlimit="10"/>
<path d="M115.761 36.5578C111.781 36.5578 108.53 39.511 108.53 43.5857C108.53 47.6273 111.781 50.6115 115.761 50.6115C119.75 50.6115 123.001 47.6273 123.001 43.5857C123.001 39.511 119.75 36.5578 115.761 36.5578ZM115.761 47.8441C113.577 47.8441 111.698 46.0866 111.698 43.5857C111.698 41.0517 113.577 39.3252 115.761 39.3252C117.945 39.3252 119.832 41.0517 119.832 43.5857C119.832 46.0866 117.945 47.8441 115.761 47.8441ZM99.9829 36.5578C95.9945 36.5578 92.7516 39.511 92.7516 43.5857C92.7516 47.6273 95.9945 50.6115 99.9829 50.6115C103.969 50.6115 107.214 47.6273 107.214 43.5857C107.214 39.511 103.969 36.5578 99.9829 36.5578ZM99.9829 47.8441C97.797 47.8441 95.9119 46.0866 95.9119 43.5857C95.9119 41.0517 97.797 39.3252 99.9829 39.3252C102.167 39.3252 104.046 41.0517 104.046 43.5857C104.046 46.0866 102.167 47.8441 99.9829 47.8441ZM81.2076 38.7118V41.6981H88.5216C88.3077 43.3668 87.7358 44.5935 86.8589 45.4485C85.7913 46.4811 84.1286 47.6273 81.2076 47.6273C76.7065 47.6273 73.1819 44.0855 73.1819 39.6969C73.1819 35.3084 76.7065 31.7665 81.2076 31.7665C83.6414 31.7665 85.4122 32.6938 86.7191 33.8958L88.8775 31.7913C87.0495 30.0896 84.6179 28.7823 81.2076 28.7823C75.0353 28.7823 69.848 33.6789 69.848 39.6969C69.848 45.7149 75.0353 50.6115 81.2076 50.6115C84.5437 50.6115 87.0495 49.5458 89.0194 47.5467C91.038 45.5786 91.6671 42.8112 91.6671 40.5767C91.6671 39.8828 91.6078 39.2446 91.5019 38.7118H81.2076ZM157.982 41.0269C157.387 39.4553 155.551 36.5578 151.81 36.5578C148.103 36.5578 145.017 39.4057 145.017 43.5857C145.017 47.522 148.071 50.6115 152.166 50.6115C155.476 50.6115 157.387 48.6434 158.173 47.4972L155.716 45.9008C154.896 47.0697 153.78 47.8441 152.166 47.8441C150.562 47.8441 149.412 47.1275 148.675 45.7149L158.315 41.8261L157.982 41.0269ZM148.154 43.3668C148.071 40.6572 150.312 39.2694 151.918 39.2694C153.176 39.2694 154.244 39.8828 154.6 40.7605L148.154 43.3668ZM140.319 50.184H143.488V29.532H140.319V50.184ZM135.13 38.1232H135.024C134.312 37.3013 132.954 36.5578 131.234 36.5578C127.625 36.5578 124.325 39.6473 124.325 43.6084C124.325 47.5467 127.625 50.6115 131.234 50.6115C132.954 50.6115 134.312 49.8618 135.024 49.0151H135.13V50.0229C135.13 52.7097 133.657 54.1533 131.283 54.1533C129.347 54.1533 128.146 52.7903 127.65 51.6441L124.895 52.7655C125.689 54.6283 127.792 56.9207 131.283 56.9207C134.998 56.9207 138.133 54.7894 138.133 49.6037V36.9853H135.13V38.1232ZM131.505 47.8441C129.322 47.8441 127.494 46.0619 127.494 43.6084C127.494 41.1322 129.322 39.3252 131.505 39.3252C133.657 39.3252 135.354 41.1322 135.354 43.6084C135.354 46.0619 133.657 47.8441 131.505 47.8441ZM172.818 29.532H165.239V50.184H168.399V42.3589H172.818C176.328 42.3589 179.77 39.8828 179.77 35.9444C179.77 32.0082 176.319 29.532 172.818 29.532ZM172.9 39.4863H168.399V32.4047H172.9C175.26 32.4047 176.607 34.315 176.607 35.9444C176.607 37.5429 175.26 39.4863 172.9 39.4863ZM192.436 36.5186C190.153 36.5186 187.778 37.5016 186.802 39.6804L189.606 40.8266C190.21 39.6804 191.32 39.3086 192.493 39.3086C194.133 39.3086 195.796 40.269 195.821 41.9645V42.1813C195.249 41.8592 194.025 41.3821 192.519 41.3821C189.498 41.3821 186.421 43.0033 186.421 46.0288C186.421 48.7962 188.895 50.5785 191.676 50.5785C193.802 50.5785 194.976 49.6429 195.713 48.5546H195.821V50.151H198.873V42.2288C198.873 38.5672 196.069 36.5186 192.436 36.5186ZM192.055 47.8359C191.021 47.8359 189.581 47.3361 189.581 46.0866C189.581 44.4882 191.377 43.8748 192.932 43.8748C194.323 43.8748 194.976 44.1743 195.821 44.5687C195.573 46.4811 193.885 47.8359 192.055 47.8359ZM209.994 36.9708L206.361 45.9235H206.253L202.497 36.9708H199.089L204.732 49.4818L201.512 56.4436H204.815L213.51 36.9708H209.994ZM181.507 50.184H184.675V29.532H181.507V50.184Z" fill="white"/>
<defs>
<linearGradient id="paint0_linear_57_134" x1="37.2449" y1="52.3158" x2="9.52653" y2="23.8867" gradientUnits="userSpaceOnUse">
<stop stop-color="#00A0FF"/>
<stop offset="0.0066" stop-color="#00A1FF"/>
<stop offset="0.2601" stop-color="#00BEFF"/>
<stop offset="0.5122" stop-color="#00D2FF"/>
<stop offset="0.7604" stop-color="#00DFFF"/>
<stop offset="1" stop-color="#00E3FF"/>
</linearGradient>
<linearGradient id="paint1_linear_57_134" x1="57.6379" y1="33.66" x2="16.6357" y2="33.66" gradientUnits="userSpaceOnUse">
<stop stop-color="#FFE000"/>
<stop offset="0.4087" stop-color="#FFBD00"/>
<stop offset="0.7754" stop-color="#FFA500"/>
<stop offset="1" stop-color="#FF9C00"/>
</linearGradient>
<linearGradient id="paint2_linear_57_134" x1="42.3747" y1="29.8688" x2="4.78638" y2="-8.68333" gradientUnits="userSpaceOnUse">
<stop stop-color="#FF3A44"/>
<stop offset="1" stop-color="#C31162"/>
</linearGradient>
<linearGradient id="paint3_linear_57_134" x1="12.6702" y1="66.4145" x2="29.4551" y2="49.1994" gradientUnits="userSpaceOnUse">
<stop stop-color="#32A071"/>
<stop offset="0.0685" stop-color="#2DA771"/>
<stop offset="0.4762" stop-color="#15CF74"/>
<stop offset="0.8009" stop-color="#06E775"/>
<stop offset="1" stop-color="#00F076"/>
</linearGradient>
</defs>
</svg>
