<svg xmlns="http://www.w3.org/2000/svg" viewBox="0 0 3755.67 3756.49" xmlns:v="https://vecta.io/nano"><path d="M3126.38,874.34,1863.67,1110.8,628.36,874.34,501,2296.15l-405.68,175a1869.4,1869.4,0,0,0,177.57,382.8l379.69,63.7H870.89l221.3-15.16,15.16-936.76,406.23,479h0L1877.82,2763l323.93-306.18,451.7-476-51.53,958L2734.1,2957h364.24l384.44-103.2a1869,1869,0,0,0,177.52-382.71l-439.94-138.6Z" fill="#fff"/><path d="M3751.85 1754.21c-36.7-576.95-335.13-1082.87-777.7-1401.2C2665.5 131 2286.75.25 1877.78.25V0C1209.56 0 622.17 349.74 289.31 875.73a1862 1862 0 0 0-276.7 781.74A1889.7 1889.7 0 0 0 0 1878c.24 187.44 27.29 368.42 78.35 539.26l.85 2.84q2.08 6.91 4.21 13.81l1.06 3.41 4.19 13.26q.91 2.86 1.84 5.73 2.16 6.69 4.37 13.37c.16.48.31 1 .47 1.44h561.89V891.23l1220.55 1220.58L3098.34 891.23v1579.9h562a1.18 1.18 0 0 1 .07-.2q2.52-7.6 5-15.22l1.53-4.78q1.95-6.07 3.85-12.17 1-3.2 2-6.4 1.64-5.3 3.23-10.6.87-2.85 1.72-5.7 2.1-7 4.15-14.11l1-3.64 4.37-15.43v-.12c44.63-160.63 68.09-329.88 68.4-504.75q.11-62.4-3.81-123.8z" fill="#f26822"/><path d="M2734.1 2853.86h-43v-994.14l-532.7 532.7L1877.76 2673l-280.61-280.61h0l-532.68-532.7v994.14H657.2l-384.28.07h0l2.52 4.1 3.52 5.73 3.27 5.26q2.2 3.55 4.43 7.09l2.48 3.93q3.5 5.53 7 11l1.5 2.33q3 4.7 6.08 9.38l1.77 2.71q3.35 5.1 6.7 10.16l.75 1.13q8.07 12.14 16.33 24.14l.13.2a1890.91 1890.91 0 0 0 392.51 417.21l2.05 1.6 9.09 7 2.14 1.65q5.17 4 10.38 7.91l4 3 6.11 4.58 5.71 4.24 4.09 3c311.42 229.37 696.12 365 1112.27 365 363.78 0 703.54-103.71 991.33-283l2.72-1.7 6.66-4.18 5.67-3.6 4.79-3q11.72-7.5 23.32-15.18l.6-.39a1890.43 1890.43 0 0 0 561.41-577.76l1.49-2.39q2.86-4.63 5.71-9.29l1.27-2.07h0-384.44z" fill="#4d4d4d"/></svg>