<svg xmlns="http://www.w3.org/2000/svg" viewBox="0 0 512 512"><defs><style>.cls-1{fill:#007a3d;}.cls-2{fill:#fff;}</style></defs><g id="Layer_2" data-name="Layer 2"><g id="Layer_1-2" data-name="Layer 1"><path class="cls-1" d="M512,248.11v16.5c-.21,1.4-.47,2.79-.63,4.2-1.38,11.6-2.07,23.32-4.21,34.78-8.35,44.7-27.31,84.57-57.15,118.85q-67.92,78-171.2,88.15c-5.21.5-10.43.94-15.64,1.41H248.83c-1.52-.22-3-.48-4.57-.65-12-1.33-24.1-1.79-35.86-4.12-58.65-11.63-108-39.72-146.89-85.32C26.45,380.77,6.4,333.07,1.4,279.16Q.71,271.89,0,264.61v-16.5a40.09,40.09,0,0,0,.61-4.2,236.76,236.76,0,0,1,7.11-49.13C22.46,137.19,52.9,89.71,100.12,53.43c39.25-30.15,83.57-47.84,133.07-52C238.4,1,243.62.47,248.83,0h14.34a44.4,44.4,0,0,0,4.57.63A232.81,232.81,0,0,1,320,8.32c60.33,16.5,109.25,49.68,145.35,101A250.6,250.6,0,0,1,510.6,232.84Q511.29,240.48,512,248.11Zm-219.57,77.7c.42-1.38.75-2.5,1.1-3.62,3.54-11.26,7.11-22.5,10.6-33.77.58-1.87,1.27-2.91,3.6-3,20.42-.78,40.74-2.55,60.83-6.42,21-4.05,41.67-9.34,61-18.72,31.62-15.31,52.16-39.2,57-74.87,1.12-8.21,1.25-16.18-4.43-23.5-16.51-21.27-43.34-28.51-67.82-17.55-20.35,9.11-37.36,23-53.21,38.34-19.84,19.23-36.5,41-51.07,64.44-.95,1.53-2.87,3.37-4.43,3.45-13.75.7-27.45.53-40.58-4.64a8.7,8.7,0,0,1-4.88-4.72c-4.19-8.39-8.71-16.63-13.32-25.34a12.24,12.24,0,0,0-1.56,1.79c-4.7,10-9.43,20.09-14,30.22-.44,1,.12,2.68.7,3.8,2.83,5.51,6.19,10.77,8.69,16.42,9.94,22.49,10.74,45.95,7,69.87-2.84,18.11-12.62,31-28.66,39.58A143.39,143.39,0,0,1,184,390.67c-18.93,4.43-38.11,4.81-57.33,2.74-13.23-1.43-26.16-4.4-38-10.85-18.22-10-28.57-24.55-26.29-46.29C63.61,325,67,314.34,71.47,304c3.44-7.95,7.27-15.74,11.06-23.88-2.27-.34-4.26-3.76-6.47-.31-11.24,17.56-21.17,35.77-26.58,56.06-5.11,19.18-5.09,38.21,4.72,56,13.81,25.06,36.13,37.25,64,38.93,23,1.39,45.81-.71,68-7.64,21.87-6.84,40.5-18.37,52.55-38.44,13.93-23.2,22.31-48.46,25.92-75.26,1.2-9,1.75-18,2.58-26.84l25.71,3.5c0,.21-.08.67-.17,1.12-2,8.85-4,17.69-5.83,26.55C286,318.44,288.5,324.17,292.43,325.81ZM375.87,82.7,348.64,60.59,328.8,89.82l26.94,22.68Z"/><path class="cls-2" d="M292.43,325.81c-3.93-1.64-6.45-7.37-5.47-12,1.88-8.86,3.88-17.7,5.83-26.55.09-.45.14-.91.17-1.12l-25.71-3.5c-.83,8.81-1.38,17.87-2.58,26.84-3.61,26.8-12,52.06-25.92,75.26-12.05,20.07-30.68,31.6-52.55,38.44-22.16,6.93-45,9-68,7.64C90.33,429.16,68,417,54.2,391.91c-9.81-17.81-9.83-36.84-4.72-56,5.41-20.29,15.34-38.5,26.58-56.06,2.21-3.45,4.2,0,6.47.31-3.79,8.14-7.62,15.93-11.06,23.88-4.47,10.32-7.86,21-9,32.25-2.28,21.74,8.07,36.31,26.29,46.29,11.8,6.45,24.73,9.42,38,10.85,19.22,2.07,38.4,1.69,57.33-2.74a143.39,143.39,0,0,0,35.08-13.1c16-8.57,25.82-21.47,28.66-39.58,3.75-23.92,3-47.38-7-69.87-2.5-5.65-5.86-10.91-8.69-16.42-.58-1.12-1.14-2.82-.7-3.8,4.53-10.13,9.26-20.17,14-30.22a12.24,12.24,0,0,1,1.56-1.79c4.61,8.71,9.13,17,13.32,25.34A8.7,8.7,0,0,0,265.1,246c13.13,5.17,26.83,5.34,40.58,4.64,1.56-.08,3.48-1.92,4.43-3.45,14.57-23.43,31.23-45.21,51.07-64.44C377,167.34,394,153.47,414.39,144.36c24.48-11,51.31-3.72,67.82,17.55,5.68,7.32,5.55,15.29,4.43,23.5-4.88,35.67-25.42,59.56-57,74.87-19.37,9.38-40,14.67-61,18.72-20.09,3.87-40.41,5.64-60.83,6.42-2.33.09-3,1.13-3.6,3-3.49,11.27-7.06,22.51-10.6,33.77C293.18,323.31,292.85,324.43,292.43,325.81Zm31.95-75.42c7.27-.58,13.53-1.15,19.8-1.57,33.51-2.29,65.08-11.87,95.49-25.62A86.38,86.38,0,0,0,465.05,206c1.89-1.87,2.16-3.45.17-5.4-4.59-4.51-8.76-9.52-13.7-13.59-13.14-10.82-27.48-13.73-43.67-6.53a187.1,187.1,0,0,0-44,27.82A237.42,237.42,0,0,0,324.38,250.39Z"/><path class="cls-2" d="M375.87,82.7l-20.13,29.8L328.8,89.82l19.84-29.23Z"/><path class="cls-1" d="M324.38,250.39a237.42,237.42,0,0,1,39.44-42.08,187.1,187.1,0,0,1,44-27.82c16.19-7.2,30.53-4.29,43.67,6.53,4.94,4.07,9.11,9.08,13.7,13.59,2,1.95,1.72,3.53-.17,5.4a86.38,86.38,0,0,1-25.38,17.19c-30.41,13.75-62,23.33-95.49,25.62C337.91,249.24,331.65,249.81,324.38,250.39Z"/></g></g></svg>