<svg id="Layer_1" enable-background="new 0 0 512 512" viewBox="0 0 512 512" xmlns="http://www.w3.org/2000/svg"><circle cx="256" cy="256" fill="#f0f0f0" r="256"/><path d="m256 0c-101.494 0-189.19 59.065-230.598 144.696h461.195c-41.407-85.631-129.104-144.696-230.597-144.696z" fill="#ff9811"/><path d="m256 512c101.493 0 189.19-59.065 230.598-144.696h-461.196c41.408 85.631 129.104 144.696 230.598 144.696z" fill="#6da544"/><circle cx="256" cy="256" fill="#0052b4" r="89.043"/><circle cx="256" cy="256" fill="#f0f0f0" r="55.652"/><path d="m256 187.326 17.169 38.938 42.304-4.601-25.136 34.337 25.136 34.337-42.304-4.601-17.169 38.938-17.169-38.938-42.304 4.6 25.136-34.336-25.136-34.337 42.304 4.601z" fill="#0052b4"/><g/><g/><g/><g/><g/><g/><g/><g/><g/><g/><g/><g/><g/><g/><g/></svg>